<?xml version="1.0" standalone="no"?>
<!DOCTYPE svg PUBLIC "-//W3C//DTD SVG 1.1//EN" "http://www.w3.org/Graphics/SVG/1.1/DTD/svg11.dtd" >
<svg xmlns="http://www.w3.org/2000/svg" xmlns:xlink="http://www.w3.org/1999/xlink" version="1.1">
<metadata>
Created by FontForge 20170731 at Tue Dec 10 16:43:20 2019
 By Aleksey,,,
Copyright Saudi Telecom Company
</metadata>
<defs>
<font id="STCForward-Medium" horiz-adv-x="0" >
  <font-face 
    font-family="STC Forward Medium"
    font-weight="500"
    font-stretch="normal"
    units-per-em="1000"
    panose-1="0 0 6 0 0 0 0 0 0 0"
    ascent="800"
    descent="-200"
    x-height="513"
    cap-height="750"
    bbox="-421 -440 1375 999"
    underline-thickness="50"
    underline-position="-150"
    unicode-range="U+0020-FEFC"
  />
<missing-glyph horiz-adv-x="861" 
d="M59 750h743v-750h-743v750zM706 91v568h-551v-568h551zM426 313l-107 -108l-56 58l106 106l-106 107l56 57l107 -107l106 106l57 -56l-106 -107l106 -106l-57 -57z" />
    <glyph glyph-name="fi" unicode="fi" horiz-adv-x="723" 
d="M34 403v110h92v96q0 66 40 103.5t120 37.5h159v-110h-148q-46 0 -46 -46v-81h120v-110h-120v-403h-125v403h-92zM524 608v142h125v-142h-125zM524 403h-92v110h217v-513h-125v403z" />
    <glyph glyph-name="fl" unicode="fl" horiz-adv-x="752" 
d="M34 403v110h92v96q0 66 40 103.5t120 37.5h159v-110h-148q-46 0 -46 -46v-81h149v-110h-149v-403h-125v403h-92zM542.5 37q-37.5 37 -37.5 103v610h125v-598q0 -42 39 -42h54v-110h-68q-75 0 -112.5 37z" />
    <glyph glyph-name="uniFEF5" unicode="&#xfedf;&#xfe82;" horiz-adv-x="662" arabic-form="isolated" 
d="M592 713v-505q0 -110 -46.5 -159t-158.5 -49h-357v130h181v394h110v-394h66q37 0 56.5 5t29 20.5t9.5 47.5v510h110zM364.5 602.5q-20.5 -8.5 -41.5 -8.5q-23 0 -62 15q-12 5 -24 8.5t-21 3.5q-33 0 -65 -21l-20 58q14 11 36 19t44 8q13 0 26 -4t24 -9q30 -14 53 -14
q17 0 32 5t33 16l17 -58q-11 -10 -31.5 -18.5z" />
    <glyph glyph-name="uniFEF6" unicode="&#xfee0;&#xfe82;" horiz-adv-x="689" arabic-form="final" 
d="M706 120v-110l-17 -10q-53 0 -85.5 14.5t-49.5 44.5q-46 -59 -167 -59h-357v130h181v394h110v-394h66q37 0 56.5 5t29 20.5t9.5 47.5v510h110v-516q0 -32 10 -46.5t28.5 -17.5t58.5 -3zM364.5 602.5q-20.5 -8.5 -41.5 -8.5q-23 0 -62 15q-12 5 -24 8.5t-21 3.5
q-33 0 -65 -21l-20 58q14 11 36 19t44 8q13 0 26 -4t24 -9q30 -14 53 -14q17 0 32 5t33 16l17 -58q-11 -10 -31.5 -18.5z" />
    <glyph glyph-name="uniFEF7" unicode="&#xfedf;&#xfe84;" horiz-adv-x="662" arabic-form="isolated" 
d="M592 713v-505q0 -110 -46.5 -159t-158.5 -49h-357v130h181v394h110v-394h66q37 0 56.5 5t29 20.5t9.5 47.5v510h110zM354 663v-65h-187v62h29q-15 17 -15 47q0 41 28.5 63.5t69.5 22.5q35 0 65 -13l-13 -54q-26 5 -52 5q-20 0 -32 -8.5t-12 -25.5t7 -25.5t25 -8.5h87z
" />
    <glyph glyph-name="uniFEF8" unicode="&#xfee0;&#xfe84;" horiz-adv-x="689" arabic-form="final" 
d="M706 120v-110l-17 -10q-53 0 -85.5 14.5t-49.5 44.5q-46 -59 -167 -59h-357v130h181v394h110v-394h66q37 0 56.5 5t29 20.5t9.5 47.5v510h110v-516q0 -32 10 -46.5t28.5 -17.5t58.5 -3zM354 663v-65h-187v62h29q-15 17 -15 47q0 41 28.5 63.5t69.5 22.5q35 0 65 -13
l-13 -54q-26 5 -52 5q-20 0 -32 -8.5t-12 -25.5t7 -25.5t25 -8.5h87z" />
    <glyph glyph-name="uniFEF9" unicode="&#xfedf;&#xfe88;" horiz-adv-x="662" arabic-form="isolated" 
d="M592 713v-505q0 -110 -46.5 -159t-158.5 -49h-357v130h181v394h110v-394h66q37 0 56.5 5t29 20.5t9.5 47.5v510h110zM330 -179v-65h-187v62h29q-15 17 -15 47q0 41 28.5 63.5t69.5 22.5q35 0 65 -13l-13 -54q-26 5 -52 5q-20 0 -32 -8.5t-12 -25.5t7 -25.5t25 -8.5h87z
" />
    <glyph glyph-name="uniFEFA" unicode="&#xfee0;&#xfe88;" horiz-adv-x="689" arabic-form="final" 
d="M706 120v-110l-17 -10q-53 0 -85.5 14.5t-49.5 44.5q-46 -59 -167 -59h-357v130h181v394h110v-394h66q37 0 56.5 5t29 20.5t9.5 47.5v510h110v-516q0 -32 10 -46.5t28.5 -17.5t58.5 -3zM330 -179v-65h-187v62h29q-15 17 -15 47q0 41 28.5 63.5t69.5 22.5q35 0 65 -13
l-13 -54q-26 5 -52 5q-20 0 -32 -8.5t-12 -25.5t7 -25.5t25 -8.5h87z" />
    <glyph glyph-name="uniFEFB" unicode="&#xfedf;&#xfe8e;" horiz-adv-x="662" arabic-form="isolated" 
d="M592 713v-505q0 -110 -46.5 -159t-158.5 -49h-357v130h181v394h110v-394h66q37 0 56.5 5t29 20.5t9.5 47.5v510h110z" />
    <glyph glyph-name="uniFEFC" unicode="&#xfee0;&#xfe8e;" horiz-adv-x="689" arabic-form="final" 
d="M706 120v-110l-17 -10q-53 0 -85.5 14.5t-49.5 44.5q-46 -59 -167 -59h-357v130h181v394h110v-394h66q37 0 56.5 5t29 20.5t9.5 47.5v510h110v-516q0 -32 10 -46.5t28.5 -17.5t58.5 -3z" />
    <glyph glyph-name="f_b" unicode="fb" horiz-adv-x="1059" 
d="M34 403v110h92v96q0 66 40 103.5t120 37.5h159v-110h-148q-46 0 -46 -46v-81h149v-110h-149v-403h-125v403h-92zM892 492.5q55 -34.5 86 -96t31 -139.5q0 -79 -31 -141t-86 -96.5t-124 -34.5q-103 0 -160 72v-57h-122v750h122v-294q28 35 68.5 53t91.5 18q69 0 124 -34.5
zM845 141.5q37 42.5 37 115.5q0 72 -37 114t-98 42q-49 0 -84 -24t-55 -67v-131q21 -43 56 -67.5t83 -24.5q61 0 98 42.5z" />
    <glyph glyph-name="f_f" unicode="ff" horiz-adv-x="791" 
d="M34 403v110h92v96q0 66 40 103.5t120 37.5h159v-110h-148q-46 0 -46 -46v-81h105v-110h-105v-403h-125v403h-92zM403 403v110h89v96q0 66 40 103.5t120 37.5h159v-110h-148q-46 0 -46 -46v-81h149v-110h-149v-403h-125v403h-89z" />
    <glyph glyph-name="f_f_b" unicode="ffb" horiz-adv-x="1425" 
d="M251 513h96v-110h-96v-403h-125v403h-92v110h92v96q0 66 40 103.5t120 37.5h159v-110h-148q-46 0 -46 -46v-81zM532 712.5q40 37.5 120 37.5h159v-110h-148q-46 0 -46 -46v-81h149v-110h-149v-403h-125v403h-92v110h92v96q0 66 40 103.5zM1258 492.5q55 -34.5 86 -96
t31 -139.5q0 -79 -31 -141t-86 -96.5t-124 -34.5q-103 0 -160 72v-57h-122v750h122v-294q28 35 68.5 53t91.5 18q69 0 124 -34.5zM1211 141.5q37 42.5 37 115.5q0 72 -37 114t-98 42q-49 0 -84 -24t-55 -67v-131q21 -43 56 -67.5t83 -24.5q61 0 98 42.5z" />
    <glyph glyph-name="f_f_h" unicode="ffh" horiz-adv-x="1416" 
d="M251 513h97v-110h-97v-403h-125v403h-92v110h92v96q0 66 40 103.5t120 37.5h159v-110h-148q-46 0 -46 -46v-81zM532 712.5q40 37.5 120 37.5h159v-110h-148q-46 0 -46 -46v-81h149v-110h-149v-403h-125v403h-92v110h92v96q0 66 40 103.5zM1295.5 472.5
q51.5 -54.5 51.5 -144.5v-328h-125v297q0 53 -26 84.5t-79 31.5q-42 0 -82 -25t-58 -63v-325h-125v750h125v-301q32 38 77.5 58t100.5 20q89 0 140.5 -54.5z" />
    <glyph glyph-name="f_f_i" unicode="ffi" horiz-adv-x="1089" 
d="M34 403v110h92v96q0 66 40 103.5t120 37.5h159v-110h-148q-46 0 -46 -46v-81h105v-110h-105v-403h-125v403h-92zM403 403v110h89v96q0 66 40 103.5t120 37.5h159v-110h-148q-46 0 -46 -46v-81h149v-110h-149v-403h-125v403h-89zM890 608v142h125v-142h-125zM890 403h-75
v110h200v-513h-125v403z" />
    <glyph glyph-name="f_f_j" unicode="ffj" horiz-adv-x="1089" 
d="M34 403v110h92v96q0 66 40 103.5t120 37.5h159v-110h-148q-46 0 -46 -46v-81h100v-110h-100v-403h-125v403h-92zM400 403v110h92v96q0 66 40 103.5t120 37.5h159v-110h-148q-46 0 -46 -46v-81h99v-110h-99v-403h-125v403h-92zM890 608v142h125v-142h-125zM848 -90
q42 0 42 45v448h-124v110h249v-572q0 -66 -39.5 -103.5t-116.5 -37.5h-159v110h148z" />
    <glyph glyph-name="f_f_k" unicode="ffk" horiz-adv-x="1346" 
d="M251 513h102v-110h-102v-403h-125v403h-92v110h92v96q0 66 40 103.5t120 37.5h159v-110h-148q-46 0 -46 -46v-81zM532 712.5q40 37.5 120 37.5h159v-110h-148q-46 0 -46 -46v-81h149v-110h-149v-403h-125v403h-92v110h92v96q0 66 40 103.5zM1182 0l-148 218h-57v-218
h-125v750h125v-431h56l142 194h144l-181 -239l191 -274h-147z" />
    <glyph glyph-name="f_f_l" unicode="ffl" horiz-adv-x="1118" 
d="M34 403v110h92v96q0 66 40 103.5t120 37.5h159v-110h-148q-46 0 -46 -46v-81h105v-110h-105v-403h-125v403h-92zM403 403v110h89v96q0 66 40 103.5t120 37.5h159v-110h-148q-46 0 -46 -46v-81h149v-110h-149v-403h-125v403h-89zM908.5 37q-37.5 37 -37.5 103v610h125
v-598q0 -42 39 -42h54v-110h-68q-75 0 -112.5 37z" />
    <glyph glyph-name="f_h" unicode="fh" horiz-adv-x="1050" 
d="M34 403v110h92v96q0 66 40 103.5t120 37.5h159v-110h-148q-46 0 -46 -46v-81h149v-110h-149v-403h-125v403h-92zM929.5 472.5q51.5 -54.5 51.5 -144.5v-328h-125v297q0 53 -26 84.5t-79 31.5q-42 0 -82 -25t-58 -63v-325h-125v750h125v-301q32 38 77.5 58t100.5 20
q89 0 140.5 -54.5z" />
    <glyph glyph-name="f_idieresis" unicode="f&#xef;" horiz-adv-x="723" 
d="M251 513h106v-110h-106v-403h-125v403h-92v110h92v96q0 66 40 103.5t120 37.5h212v-142h-98v32h-103q-46 0 -46 -46v-81zM555 750h98v-142h-98v142zM400 403v110h249v-513h-125v403h-124z" />
    <glyph glyph-name="f_j" unicode="fj" horiz-adv-x="723" 
d="M34 403v110h92v96q0 66 40 103.5t120 37.5h159v-110h-148q-46 0 -46 -46v-81h99v-110h-99v-403h-125v403h-92zM524 608v142h125v-142h-125zM482 -90q42 0 42 45v448h-124v110h249v-572q0 -66 -39.5 -103.5t-116.5 -37.5h-159v110h148z" />
    <glyph glyph-name="f_k" unicode="fk" horiz-adv-x="980" 
d="M34 403v110h92v96q0 66 40 103.5t120 37.5h159v-110h-148q-46 0 -46 -46v-81h149v-110h-149v-403h-125v403h-92zM816 0l-148 218h-57v-218h-125v750h125v-431h56l142 194h144l-181 -239l191 -274h-147z" />
    <glyph glyph-name="uniFEDFFB51" unicode="&#xfedf;&#xfb51;" horiz-adv-x="662" 
d="M592 713v-505q0 -110 -46.5 -159t-158.5 -49h-357v130h181v394h110v-394h66q37 0 56.5 5t29 20.5t9.5 47.5v510h110z" />
    <glyph glyph-name="uniFEE0FB51" unicode="&#xfee0;&#xfb51;" horiz-adv-x="689" 
d="M706 120v-110l-17 -10q-53 0 -85.5 14.5t-49.5 44.5q-46 -59 -167 -59h-357v130h181v394h110v-394h66q37 0 56.5 5t29 20.5t9.5 47.5v510h110v-516q0 -32 10 -46.5t28.5 -17.5t58.5 -3z" />
    <glyph glyph-name="uni066E.init" unicode="&#x66e;" horiz-adv-x="284" 
d="M-17 120l17 10q44 0 67.5 4.5t35 18t11.5 41.5v233h110v-233q0 -101 -51 -147.5t-173 -46.5l-17 10v110z" />
    <glyph glyph-name="uni066E.medi" unicode="&#x66e;" horiz-adv-x="338" 
d="M355 120v-110l-17 -10q-62 0 -99 15.5t-54 48.5q-24 -33 -69 -48.5t-116 -15.5l-17 10v110l17 10q44 0 67.5 4.5t35 18t11.5 41.5v233h110v-230q0 -32 11.5 -46.5t33.5 -17.5t69 -3z" />
    <glyph glyph-name="uni066E.fina" unicode="&#x66e;" horiz-adv-x="978" 
d="M995 120v-110l-17 -10q-66 0 -105.5 16t-58.5 49q-24 -33 -69 -49t-117 -16h-322q-107 0 -166.5 31t-82 85t-22.5 132q0 38 9.5 80.5t22.5 73.5h105q-10 -28 -18.5 -69.5t-8.5 -69.5q0 -75 36.5 -104t124.5 -29h322q44 0 67.5 4.5t35 18t11.5 41.5v233h110v-230
q0 -32 13 -46.5t37 -17.5t76 -3z" />
    <glyph glyph-name="uni066F.fina" unicode="&#x66f;" horiz-adv-x="850" 
d="M867 120v-110l-17 -10h-98v-8q0 -109 -59.5 -164t-196.5 -55h-147q-127 0 -195 31.5t-93.5 95t-25.5 171.5q0 52 11.5 103t25.5 81h110q-13 -35 -22.5 -83t-9.5 -94q0 -63 15.5 -100t58.5 -56t125 -19h150q54 0 84.5 8t44.5 27.5t14 55.5v6h-115q-119 0 -166.5 58
t-47.5 152q0 71 31 125.5t88.5 85t132.5 30.5q53 0 102.5 -13.5t84.5 -33.5v-274h98zM642 130v173q-38 18 -89 18q-62 0 -93.5 -26t-31.5 -70q0 -42 27 -68.5t79 -26.5h108z" />
    <glyph glyph-name="uni06A1.init" unicode="&#x6a1;" horiz-adv-x="518" 
d="M458 209q0 -104 -47.5 -156.5t-157.5 -52.5h-253l-17 10v110l17 10h254q52 0 72.5 15t20.5 55v50q-36 -57 -130 -57q-92 0 -138 54.5t-46 135.5q0 67 30 118t84.5 79.5t127.5 28.5q52 0 100 -13.5t82 -33.5zM347 353v108q-36 18 -84 18q-57 0 -86 -22t-29 -59
q0 -33 24 -54t72 -21q75 0 103 30z" />
    <glyph glyph-name="uni06A1.medi" unicode="&#x6a1;" horiz-adv-x="554" 
d="M571 125v-120l-17 -5h-554l-17 5v120l17 5h110q-44 51 -44 123q0 108 59.5 165.5t158.5 57.5q97 0 150.5 -54.5t53.5 -154.5q0 -80 -50 -137h116zM207 324q-26 -22 -26 -64q0 -30 20.5 -59.5t79.5 -70.5q58 40 75 68.5t17 61.5q0 42 -26 64t-70 22t-70 -22z" />
    <glyph glyph-name="uni06A1.fina" unicode="&#x6a1;" horiz-adv-x="1017" 
d="M1034 125v-120l-17 -5h-715q-105 0 -163.5 34t-81 93.5t-22.5 143.5q0 39 9 82t22 77l110 1q-10 -28 -18 -71t-8 -73q0 -60 15.5 -94t48 -48.5t88.5 -14.5h254q-44 51 -44 123q0 108 59.5 165.5t158.5 57.5q97 0 150.5 -54.5t53.5 -154.5q0 -80 -50 -137h133zM653 324
q-26 -22 -26 -64q0 -30 20.5 -59.5t79.5 -70.5q58 40 75 68.5t17 61.5q0 42 -26 64t-70 22t-70 -22z" />
    <glyph glyph-name="uniFB51" unicode="&#x671;" horiz-adv-x="285" arabic-form="final" 
d="M114 48.5q-44 48.5 -44 159.5v405h110v-405q0 -36 8.5 -52t29.5 -21t67 -5l17 -10v-110l-17 -10h-23q-104 0 -148 48.5z" />
    <glyph glyph-name="uniFB6B" unicode="&#x6a4;" horiz-adv-x="1017" arabic-form="final" 
d="M1034 125v-120l-17 -5h-715q-105 0 -163.5 34t-81 93.5t-22.5 143.5q0 39 9 82t22 77l110 1q-10 -28 -18 -71t-8 -73q0 -60 15.5 -94t48 -48.5t88.5 -14.5h254q-44 51 -44 123q0 108 59.5 165.5t158.5 57.5q97 0 150.5 -54.5t53.5 -154.5q0 -80 -50 -137h133zM653 324
q-26 -22 -26 -64q0 -30 20.5 -59.5t79.5 -70.5q58 40 75 68.5t17 61.5q0 42 -26 64t-70 22t-70 -22zM679 845h110v-105h-110v105zM602 697h105v-110h-105v110zM758 697h105v-110h-105v110z" />
    <glyph glyph-name="uniFB6C" unicode="&#x6a4;" horiz-adv-x="518" arabic-form="initial" 
d="M458 209q0 -104 -47.5 -156.5t-157.5 -52.5h-253l-17 10v110l17 10h254q52 0 72.5 15t20.5 55v50q-36 -57 -130 -57q-92 0 -138 54.5t-46 135.5q0 67 30 118t84.5 79.5t127.5 28.5q52 0 100 -13.5t82 -33.5zM347 353v108q-36 18 -84 18q-57 0 -86 -22t-29 -59
q0 -33 24 -54t72 -21q75 0 103 30zM224 958h110v-105h-110v105zM147 810h105v-110h-105v110zM303 810h105v-110h-105v110z" />
    <glyph glyph-name="uniFB6D" unicode="&#x6a4;" horiz-adv-x="554" arabic-form="medial" 
d="M571 125v-120l-17 -5h-554l-17 5v120l17 5h110q-44 51 -44 123q0 108 59.5 165.5t158.5 57.5q97 0 150.5 -54.5t53.5 -154.5q0 -80 -50 -137h116zM207 324q-26 -22 -26 -64q0 -30 20.5 -59.5t79.5 -70.5q58 40 75 68.5t17 61.5q0 42 -26 64t-70 22t-70 -22zM233 845h110
v-105h-110v105zM156 697h105v-110h-105v110zM312 697h105v-110h-105v110z" />
    <glyph glyph-name="uniFB8F" unicode="&#x6a9;" horiz-adv-x="906" arabic-form="final" 
d="M923 120v-110l-17 -10q-56 0 -89.5 16t-49.5 50q-55 -66 -190 -66h-273q-107 0 -166 31t-81 84.5t-22 132.5q0 38 9.5 80.5t22.5 73.5h105q-10 -28 -18.5 -69.5t-8.5 -69.5q0 -75 36.5 -104t124.5 -29h277q55 0 85.5 12.5t30.5 50.5v520h110v-516q0 -32 10 -46.5
t28.5 -17.5t58.5 -3zM433 283h-113v80h112q20 0 32.5 4.5t12.5 12.5q0 16 -29 29t-109 13l-6 102l192 83l12 -76l-114 -46q56 -6 90 -31t34 -72q0 -99 -114 -99z" />
    <glyph glyph-name="uniFB90" unicode="&#x6a9;" horiz-adv-x="627" arabic-form="initial" 
d="M474.5 399q58.5 -29 80.5 -79.5t22 -121.5v-68q0 -130 -114 -130h-463l-17 4v122l17 4h462v68q0 57 -33 86.5t-121 29.5h-237l-32 123l388 296l65 -100l-285 -205h105q104 0 162.5 -29z" />
    <glyph glyph-name="uniFB91" unicode="&#x6a9;" horiz-adv-x="671" arabic-form="medial" 
d="M688 120v-110l-17 -10q-83 0 -119 37q-28 -37 -89 -37h-463l-17 4v122l17 4h462v68q0 57 -33 86.5t-121 29.5h-237l-32 123l388 296l65 -100l-285 -205h105q104 0 162.5 -29t80.5 -79.5t22 -121.5v-31q6 -25 26 -31t68 -6z" />
    <glyph glyph-name="uniFB9F" unicode="&#x6ba;" horiz-adv-x="730" arabic-form="final" 
d="M747 120v-110l-17 -10q-63 0 -98 21q-10 -107 -82.5 -172.5t-219.5 -65.5q-161 0 -228 84t-67 216q0 57 11.5 116t26.5 92h110q-11 -34 -22 -87t-11 -111q0 -85 41 -132.5t148 -47.5q104 0 144 36t40 105v373h110v-230q0 -32 10 -46.5t28.5 -17.5t58.5 -3z" />
    <glyph glyph-name="uniFBFD" unicode="&#x6cc;" horiz-adv-x="763" arabic-form="final" 
d="M780 120v-110l-17 -10h-37v-19q0 -223 -336 -223q-143 0 -221 39.5t-106 107.5t-28 167q0 59 10 119.5t23 92.5h110q-9 -32 -18.5 -86.5t-9.5 -112.5q0 -79 22.5 -121t75.5 -59t152 -17q89 0 135 10.5t61 28t15 43.5v30h-163v130h315zM270 -327h105v-110h-105v110z
M421 -327h105v-110h-105v110z" />
    <glyph glyph-name="uniFBFE" unicode="&#x6cc;" horiz-adv-x="284" arabic-form="initial" 
d="M-17 120l17 10q44 0 67.5 4.5t35 18t11.5 41.5v233h110v-233q0 -101 -51 -147.5t-173 -46.5l-17 10v110zM25 -106h105v-110h-105v110zM176 -106h105v-110h-105v110z" />
    <glyph glyph-name="uniFBFF" unicode="&#x6cc;" horiz-adv-x="338" arabic-form="medial" 
d="M355 120v-110l-17 -10q-62 0 -99 15.5t-54 48.5q-24 -33 -69 -48.5t-116 -15.5l-17 10v110l17 10q44 0 67.5 4.5t35 18t11.5 41.5v233h110v-230q0 -32 11.5 -46.5t33.5 -17.5t69 -3zM50 -106h105v-110h-105v110zM201 -106h105v-110h-105v110z" />
    <glyph glyph-name="uniFC31" unicode="&#xfc31;" horiz-adv-x="931" arabic-form="isolated" 
d="M837 69q-34 -51 -111 -64v-24q0 -223 -336 -223q-143 0 -221 39.5t-106 107.5t-28 167q0 59 10 119.5t23 92.5h110q-9 -32 -18.5 -86.5t-9.5 -112.5q0 -79 22.5 -121t75.5 -59t152 -17q89 0 135 10.5t61 28t15 43.5v30h-163v130h219q52 0 72.5 15t20.5 55v50
q-36 -57 -130 -57q-92 0 -138 54.5t-46 135.5q0 67 30 118t84.5 79.5t127.5 28.5q52 0 100 -13.5t82 -33.5l1 -353q0 -89 -34 -140zM760 353v108q-36 18 -84 18q-57 0 -86 -22t-29 -59q0 -33 24 -54t72 -21q75 0 103 30zM633 810h110v-110h-110v110z" />
    <glyph glyph-name="uniFC32" unicode="&#xfc32;" horiz-adv-x="931" arabic-form="isolated" 
d="M837 69q-34 -51 -111 -64v-24q0 -223 -336 -223q-143 0 -221 39.5t-106 107.5t-28 167q0 59 10 119.5t23 92.5h110q-9 -32 -18.5 -86.5t-9.5 -112.5q0 -79 22.5 -121t75.5 -59t152 -17q89 0 135 10.5t61 28t15 43.5v30h-163v130h219q52 0 72.5 15t20.5 55v50
q-36 -57 -130 -57q-92 0 -138 54.5t-46 135.5q0 67 30 118t84.5 79.5t127.5 28.5q52 0 100 -13.5t82 -33.5l1 -353q0 -89 -34 -140zM760 353v108q-36 18 -84 18q-57 0 -86 -22t-29 -59q0 -33 24 -54t72 -21q75 0 103 30zM633 810h110v-110h-110v110zM272 -330h105v-110h-105
v110zM423 -330h105v-110h-105v110z" />
    <glyph glyph-name="uniFC35" unicode="&#xfc35;" horiz-adv-x="931" arabic-form="isolated" 
d="M837 69q-34 -51 -111 -64v-24q0 -223 -336 -223q-143 0 -221 39.5t-106 107.5t-28 167q0 59 10 119.5t23 92.5h110q-9 -32 -18.5 -86.5t-9.5 -112.5q0 -79 22.5 -121t75.5 -59t152 -17q89 0 135 10.5t61 28t15 43.5v30h-163v130h219q52 0 72.5 15t20.5 55v50
q-36 -57 -130 -57q-92 0 -138 54.5t-46 135.5q0 67 30 118t84.5 79.5t127.5 28.5q52 0 100 -13.5t82 -33.5l1 -353q0 -89 -34 -140zM760 353v108q-36 18 -84 18q-57 0 -86 -22t-29 -59q0 -33 24 -54t72 -21q75 0 103 30zM560 811h105v-110h-105v110zM711 811h105v-110h-105
v110z" />
    <glyph glyph-name="uniFC36" unicode="&#xfc36;" horiz-adv-x="931" arabic-form="isolated" 
d="M837 69q-34 -51 -111 -64v-24q0 -223 -336 -223q-143 0 -221 39.5t-106 107.5t-28 167q0 59 10 119.5t23 92.5h110q-9 -32 -18.5 -86.5t-9.5 -112.5q0 -79 22.5 -121t75.5 -59t152 -17q89 0 135 10.5t61 28t15 43.5v30h-163v130h219q52 0 72.5 15t20.5 55v50
q-36 -57 -130 -57q-92 0 -138 54.5t-46 135.5q0 67 30 118t84.5 79.5t127.5 28.5q52 0 100 -13.5t82 -33.5l1 -353q0 -89 -34 -140zM760 353v108q-36 18 -84 18q-57 0 -86 -22t-29 -59q0 -33 24 -54t72 -21q75 0 103 30zM272 -330h105v-110h-105v110zM423 -330h105v-110
h-105v110zM560 811h105v-110h-105v110zM711 811h105v-110h-105v110z" />
    <glyph glyph-name="uniFE82" unicode="&#x622;" horiz-adv-x="285" arabic-form="final" 
d="M114 48.5q-44 48.5 -44 159.5v405h110v-405q0 -36 8.5 -52t29.5 -21t67 -5l17 -10v-110l-17 -10h-23q-104 0 -148 48.5zM225.5 692.5q-20.5 -8.5 -41.5 -8.5q-23 0 -62 15q-12 5 -24 8.5t-21 3.5q-33 0 -65 -21l-20 58q14 11 36 19t44 8q13 0 26 -4t24 -9q30 -14 53 -14
q17 0 32 5t33 16l17 -58q-11 -10 -31.5 -18.5z" />
    <glyph glyph-name="uniFE84" unicode="&#x623;" horiz-adv-x="285" arabic-form="final" 
d="M114 48.5q-44 48.5 -44 159.5v405h110v-405q0 -36 8.5 -52t29.5 -21t67 -5l17 -10v-110l-17 -10h-23q-104 0 -148 48.5zM215 753v-65h-187v62h29q-15 17 -15 47q0 41 28.5 63.5t69.5 22.5q35 0 65 -13l-13 -54q-26 5 -52 5q-20 0 -32 -8.5t-12 -25.5t7 -25.5t25 -8.5h87z
" />
    <glyph glyph-name="uniFE86" unicode="&#x624;" horiz-adv-x="567" arabic-form="final" 
d="M584 120v-110l-17 -10h-98v-28q0 -94 -45.5 -141.5t-150.5 -47.5h-207v130h210q46 0 64.5 13t18.5 48v26h-105q-130 0 -177 55.5t-47 149.5q0 73 31 128.5t88.5 86.5t132.5 31q53 0 102.5 -13.5t84.5 -33.5v-274h98zM359 130v173q-38 18 -89 18q-62 0 -93.5 -27.5
t-31.5 -73.5q0 -90 116 -90h98zM352 591v-65h-187v62h29q-15 17 -15 47q0 41 28.5 63.5t69.5 22.5q35 0 65 -13l-13 -54q-26 5 -52 5q-20 0 -32 -8.5t-12 -25.5t7 -25.5t25 -8.5h87z" />
    <glyph glyph-name="uniFE88" unicode="&#x625;" horiz-adv-x="285" arabic-form="final" 
d="M114 48.5q-44 48.5 -44 159.5v505h110v-505q0 -36 8.5 -52t29.5 -21t67 -5l17 -10v-110l-17 -10h-23q-104 0 -148 48.5zM232 -179v-65h-187v62h29q-15 17 -15 47q0 41 28.5 63.5t69.5 22.5q35 0 65 -13l-13 -54q-26 5 -52 5q-20 0 -32 -8.5t-12 -25.5t7 -25.5t25 -8.5h87
z" />
    <glyph glyph-name="uniFE8A" unicode="&#x626;" horiz-adv-x="763" arabic-form="final" 
d="M780 120v-110l-17 -10h-37v-19q0 -223 -336 -223q-143 0 -221 39.5t-106 107.5t-28 167q0 59 10 119.5t23 92.5h110q-9 -32 -18.5 -86.5t-9.5 -112.5q0 -79 22.5 -121t75.5 -59t152 -17q89 0 135 10.5t61 28t15 43.5v30h-163v130h315zM216 429v-65h-187v62h29
q-15 17 -15 47q0 41 28.5 63.5t69.5 22.5q35 0 65 -13l-13 -54q-26 5 -52 5q-20 0 -32 -8.5t-12 -25.5t7 -25.5t25 -8.5h87z" />
    <glyph glyph-name="uniFE8B" unicode="&#x626;" horiz-adv-x="284" arabic-form="initial" 
d="M-17 120l17 10q44 0 67.5 4.5t35 18t11.5 41.5v233h110v-233q0 -101 -51 -147.5t-173 -46.5l-17 10v110zM260 567v-65h-187v62h29q-15 17 -15 47q0 41 28.5 63.5t69.5 22.5q35 0 65 -13l-13 -54q-26 5 -52 5q-20 0 -32 -8.5t-12 -25.5t7 -25.5t25 -8.5h87z" />
    <glyph glyph-name="uniFE8C" unicode="&#x626;" horiz-adv-x="338" arabic-form="medial" 
d="M355 120v-110l-17 -10q-62 0 -99 15.5t-54 48.5q-24 -33 -69 -48.5t-116 -15.5l-17 10v110l17 10q44 0 67.5 4.5t35 18t11.5 41.5v233h110v-230q0 -32 11.5 -46.5t33.5 -17.5t69 -3zM261 567v-65h-187v62h29q-15 17 -15 47q0 41 28.5 63.5t69.5 22.5q35 0 65 -13l-13 -54
q-26 5 -52 5q-20 0 -32 -8.5t-12 -25.5t7 -25.5t25 -8.5h87z" />
    <glyph glyph-name="uniFE8E" unicode="&#x627;" horiz-adv-x="285" arabic-form="final" 
d="M114 48.5q-44 48.5 -44 159.5v505h110v-505q0 -36 8.5 -52t29.5 -21t67 -5l17 -10v-110l-17 -10h-23q-104 0 -148 48.5z" />
    <glyph glyph-name="uniFE90" unicode="&#x628;" horiz-adv-x="978" arabic-form="final" 
d="M995 120v-110l-17 -10q-66 0 -105.5 16t-58.5 49q-24 -33 -69 -49t-117 -16h-322q-107 0 -166.5 31t-82 85t-22.5 132q0 38 9.5 80.5t22.5 73.5h105q-10 -28 -18.5 -69.5t-8.5 -69.5q0 -75 36.5 -104t124.5 -29h322q44 0 67.5 4.5t35 18t11.5 41.5v233h110v-230
q0 -32 13 -46.5t37 -17.5t76 -3zM383 -104h110v-110h-110v110z" />
    <glyph glyph-name="uniFE91" unicode="&#x628;" horiz-adv-x="284" arabic-form="initial" 
d="M-17 120l17 10q44 0 67.5 4.5t35 18t11.5 41.5v233h110v-233q0 -101 -51 -147.5t-173 -46.5l-17 10v110zM115 -107h110v-110h-110v110z" />
    <glyph glyph-name="uniFE92" unicode="&#x628;" horiz-adv-x="338" arabic-form="medial" 
d="M355 120v-110l-17 -10q-62 0 -99 15.5t-54 48.5q-24 -33 -69 -48.5t-116 -15.5l-17 10v110l17 10q44 0 67.5 4.5t35 18t11.5 41.5v233h110v-230q0 -32 11.5 -46.5t33.5 -17.5t69 -3zM114 -104h110v-110h-110v110z" />
    <glyph glyph-name="uniFE94" unicode="&#x629;" horiz-adv-x="573" arabic-form="final" 
d="M590 126v-122l-17 -4q-82 0 -131.5 27t-67.5 95q-16 -38 -49.5 -60t-95.5 -22q-98 0 -146 60t-48 150q0 73 32 128.5t90 86.5t135 31q35 0 71 -12v43h110l-1 -308q0 -36 9 -55t30.5 -26.5t61.5 -7.5zM363 206v7v146q-35 7 -73 7q-69 0 -104.5 -27.5t-35.5 -73.5
q0 -42 27 -68.5t79 -26.5q76 0 107 36zM133 698h105v-110h-105v110zM284 698h105v-110h-105v110z" />
    <glyph glyph-name="uniFE96" unicode="&#x62a;" horiz-adv-x="978" arabic-form="final" 
d="M995 120v-110l-17 -10q-66 0 -105.5 16t-58.5 49q-24 -33 -69 -49t-117 -16h-322q-107 0 -166.5 31t-82 85t-22.5 132q0 38 9.5 80.5t22.5 73.5h105q-10 -28 -18.5 -69.5t-8.5 -69.5q0 -75 36.5 -104t124.5 -29h322q44 0 67.5 4.5t35 18t11.5 41.5v233h110v-230
q0 -32 13 -46.5t37 -17.5t76 -3zM321 551h105v-110h-105v110zM472 551h105v-110h-105v110z" />
    <glyph glyph-name="uniFE97" unicode="&#x62a;" horiz-adv-x="284" arabic-form="initial" 
d="M-17 120l17 10q44 0 67.5 4.5t35 18t11.5 41.5v233h110v-233q0 -101 -51 -147.5t-173 -46.5l-17 10v110zM42 629h105v-110h-105v110zM193 629h105v-110h-105v110z" />
    <glyph glyph-name="uniFE98" unicode="&#x62a;" horiz-adv-x="338" arabic-form="medial" 
d="M355 120v-110l-17 -10q-62 0 -99 15.5t-54 48.5q-24 -33 -69 -48.5t-116 -15.5l-17 10v110l17 10q44 0 67.5 4.5t35 18t11.5 41.5v233h110v-230q0 -32 11.5 -46.5t33.5 -17.5t69 -3zM43 629h105v-110h-105v110zM194 629h105v-110h-105v110z" />
    <glyph glyph-name="uniFE9A" unicode="&#x62b;" horiz-adv-x="978" arabic-form="final" 
d="M995 120v-110l-17 -10q-66 0 -105.5 16t-58.5 49q-24 -33 -69 -49t-117 -16h-322q-107 0 -166.5 31t-82 85t-22.5 132q0 38 9.5 80.5t22.5 73.5h105q-10 -28 -18.5 -69.5t-8.5 -69.5q0 -75 36.5 -104t124.5 -29h322q44 0 67.5 4.5t35 18t11.5 41.5v233h110v-230
q0 -32 13 -46.5t37 -17.5t76 -3zM398 698h110v-105h-110v105zM321 550h105v-110h-105v110zM477 550h105v-110h-105v110z" />
    <glyph glyph-name="uniFE9B" unicode="&#x62b;" horiz-adv-x="284" arabic-form="initial" 
d="M-17 120l17 10q44 0 67.5 4.5t35 18t11.5 41.5v233h110v-233q0 -101 -51 -147.5t-173 -46.5l-17 10v110zM119 776h110v-105h-110v105zM42 628h105v-110h-105v110zM198 628h105v-110h-105v110z" />
    <glyph glyph-name="uniFE9C" unicode="&#x62b;" horiz-adv-x="338" arabic-form="medial" 
d="M355 120v-110l-17 -10q-62 0 -99 15.5t-54 48.5q-24 -33 -69 -48.5t-116 -15.5l-17 10v110l17 10q44 0 67.5 4.5t35 18t11.5 41.5v233h110v-230q0 -32 11.5 -46.5t33.5 -17.5t69 -3zM120 776h110v-105h-110v105zM43 628h105v-110h-105v110zM199 628h105v-110h-105v110z
" />
    <glyph glyph-name="uniFE9E" unicode="&#x62c;" horiz-adv-x="696" arabic-form="final" 
d="M713 120v-110l-17 -10q-85 0 -123 31q-34 -31 -96 -31h-251q-91 0 -91 -79q0 -50 35.5 -80t130.5 -30h209v-130h-220q-139 0 -204.5 64t-65.5 170q0 89 49.5 152t162.5 63h245q24 0 24 28v68q0 95 -148 95q-97 0 -185 -32l-28 111q46 22 98.5 36.5t125.5 14.5
q99 0 175.5 -43t76.5 -163v-86q0 -14 -1 -21q12 -5 29.5 -6.5t51.5 -1.5zM394 -156h-99v99h99v-99z" />
    <glyph glyph-name="uniFE9F" unicode="&#x62c;" horiz-adv-x="606" arabic-form="initial" 
d="M-17 126l17 4h441v81q0 61 -41.5 85.5t-106.5 24.5q-110 0 -215 -42l-28 111q117 61 254 61q100 0 176 -45t76 -171v-105q0 -130 -114 -130h-442l-17 4v122zM217 -104h110v-110h-110v110z" />
    <glyph glyph-name="uniFEA0" unicode="&#x62c;" horiz-adv-x="646" arabic-form="medial" 
d="M663 120v-110l-17 -10q-82 0 -121 30q-28 -30 -83 -30h-442l-17 4v122l17 4h441v81q0 61 -41.5 85.5t-106.5 24.5q-110 0 -215 -42l-28 111q117 61 254 61q100 0 176 -45t76 -171v-91q12 -9 31 -11.5t59 -2.5zM217 -104h110v-110h-110v110z" />
    <glyph glyph-name="uniFEA2" unicode="&#x62d;" horiz-adv-x="696" arabic-form="final" 
d="M713 120v-110l-17 -10q-85 0 -123 31q-34 -31 -96 -31h-251q-91 0 -91 -79q0 -50 35.5 -80t130.5 -30h209v-130h-220q-139 0 -204.5 64t-65.5 170q0 89 49.5 152t162.5 63h245q24 0 24 28v68q0 95 -148 95q-97 0 -185 -32l-28 111q46 22 98.5 36.5t125.5 14.5
q99 0 175.5 -43t76.5 -163v-86q0 -14 -1 -21q12 -5 29.5 -6.5t51.5 -1.5z" />
    <glyph glyph-name="uniFEA3" unicode="&#x62d;" horiz-adv-x="606" arabic-form="initial" 
d="M-17 126l17 4h441v81q0 61 -41.5 85.5t-106.5 24.5q-110 0 -215 -42l-28 111q117 61 254 61q100 0 176 -45t76 -171v-105q0 -130 -114 -130h-442l-17 4v122z" />
    <glyph glyph-name="uniFEA4" unicode="&#x62d;" horiz-adv-x="646" arabic-form="medial" 
d="M663 120v-110l-17 -10q-82 0 -121 30q-28 -30 -83 -30h-442l-17 4v122l17 4h441v81q0 61 -41.5 85.5t-106.5 24.5q-110 0 -215 -42l-28 111q117 61 254 61q100 0 176 -45t76 -171v-91q12 -9 31 -11.5t59 -2.5z" />
    <glyph glyph-name="uniFEA6" unicode="&#x62e;" horiz-adv-x="696" arabic-form="final" 
d="M713 120v-110l-17 -10q-85 0 -123 31q-34 -31 -96 -31h-251q-91 0 -91 -79q0 -50 35.5 -80t130.5 -30h209v-130h-220q-139 0 -204.5 64t-65.5 170q0 89 49.5 152t162.5 63h245q24 0 24 28v68q0 95 -148 95q-97 0 -185 -32l-28 111q46 22 98.5 36.5t125.5 14.5
q99 0 175.5 -43t76.5 -163v-86q0 -14 -1 -21q12 -5 29.5 -6.5t51.5 -1.5zM299 653h110v-110h-110v110z" />
    <glyph glyph-name="uniFEA7" unicode="&#x62e;" horiz-adv-x="606" arabic-form="initial" 
d="M-17 126l17 4h441v81q0 61 -41.5 85.5t-106.5 24.5q-110 0 -215 -42l-28 111q117 61 254 61q100 0 176 -45t76 -171v-105q0 -130 -114 -130h-442l-17 4v122zM249 652h110v-110h-110v110z" />
    <glyph glyph-name="uniFEA8" unicode="&#x62e;" horiz-adv-x="646" arabic-form="medial" 
d="M663 120v-110l-17 -10q-82 0 -121 30q-28 -30 -83 -30h-442l-17 4v122l17 4h441v81q0 61 -41.5 85.5t-106.5 24.5q-110 0 -215 -42l-28 111q117 61 254 61q100 0 176 -45t76 -171v-91q12 -9 31 -11.5t59 -2.5zM249 652h110v-110h-110v110z" />
    <glyph glyph-name="uniFEAA" unicode="&#x62f;" horiz-adv-x="602" arabic-form="final" 
d="M619 120v-110l-17 -10q-50 0 -81.5 12.5t-48.5 38.5q-42 -51 -140 -51h-292v130h351v73q0 33 -20.5 57t-84 44t-186.5 33l19 124q157 -17 242.5 -52t116 -82.5t29.5 -112.5l-1 -38q3 -22 14.5 -32t28.5 -12t53 -2z" />
    <glyph glyph-name="uniFEAC" unicode="&#x630;" horiz-adv-x="602" arabic-form="final" 
d="M619 120v-110l-17 -10q-50 0 -81.5 12.5t-48.5 38.5q-42 -51 -140 -51h-292v130h351v73q0 33 -20.5 57t-84 44t-186.5 33l19 124q157 -17 242.5 -52t116 -82.5t29.5 -112.5l-1 -38q3 -22 14.5 -32t28.5 -12t53 -2zM192 678h110v-110h-110v110z" />
    <glyph glyph-name="uniFEAE" unicode="&#x631;" horiz-adv-x="365" arabic-form="final" 
d="M382 120v-110l-17 -10q-62 0 -97 20v-58q0 -82 -39.5 -130.5t-137.5 -48.5h-101v130h97q40 0 55.5 9.5t15.5 35.5v469h110v-230q0 -32 10 -46.5t28.5 -17.5t58.5 -3z" />
    <glyph glyph-name="uniFEB0" unicode="&#x632;" horiz-adv-x="365" arabic-form="final" 
d="M382 120v-110l-17 -10q-62 0 -97 20v-58q0 -82 -39.5 -130.5t-137.5 -48.5h-101v130h97q40 0 55.5 9.5t15.5 35.5v469h110v-230q0 -32 10 -46.5t28.5 -17.5t58.5 -3zM158 628h110v-110h-110v110z" />
    <glyph glyph-name="uniFEB2" unicode="&#x633;" horiz-adv-x="1324" arabic-form="final" 
d="M1341 120v-110l-17 -10q-131 0 -174 56q-37 -56 -148 -56q-100 0 -135 52q-16 -24 -49 -38t-84 -14h-106q-16 -96 -88 -154t-210 -58q-161 0 -228 84t-67 216q0 57 11.5 116t26.5 92h110q-11 -34 -22 -87t-11 -111q0 -85 41 -132.5t148 -47.5q104 0 144 36t40 105v306
h110v-235h103q39 0 56 10t17 32v193h110v-218q30 -17 84 -17q47 0 67 9.5t20 32.5v254h110v-275q40 -21 124 -21z" />
    <glyph glyph-name="uniFEB3" unicode="&#x633;" horiz-adv-x="857" arabic-form="initial" 
d="M797 426v-256q-4 -84 -56.5 -127t-136.5 -43q-103 0 -142 50q-41 -50 -151 -50q-109 0 -144 56q-35 -56 -133 -56h-34l-17 10v110l17 10h37q39 0 56 10t17 32v193h110v-217q31 -18 92 -18q52 0 73.5 9.5t21.5 32.5v193h110v-217q29 -18 89 -18q38 0 57.5 9.5t23.5 30.5
v256h110z" />
    <glyph glyph-name="uniFEB4" unicode="&#x633;" horiz-adv-x="921" arabic-form="medial" 
d="M938 120v-110l-17 -10q-131 0 -174 56q-37 -56 -148 -56q-100 0 -135 53q-39 -53 -153 -53q-109 0 -144 56q-35 -56 -133 -56h-34l-17 10v110l17 10h37q39 0 56 10t17 32v193h110v-217q31 -18 92 -18q52 0 73.5 9.5t21.5 32.5v193h110v-218q30 -17 83 -17q47 0 67 9.5
t20 32.5v254h110v-275q40 -21 124 -21z" />
    <glyph glyph-name="uniFEB6" unicode="&#x634;" horiz-adv-x="1324" arabic-form="final" 
d="M1341 120v-110l-17 -10q-131 0 -174 56q-37 -56 -148 -56q-100 0 -135 52q-16 -24 -49 -38t-84 -14h-106q-16 -96 -88 -154t-210 -58q-161 0 -228 84t-67 216q0 57 11.5 116t26.5 92h110q-11 -34 -22 -87t-11 -111q0 -85 41 -132.5t148 -47.5q104 0 144 36t40 105v306
h110v-235h103q39 0 56 10t17 32v193h110v-218q30 -17 84 -17q47 0 67 9.5t20 32.5v254h110v-275q40 -21 124 -21zM813 745h110v-105h-110v105zM736 597h105v-110h-105v110zM892 597h105v-110h-105v110z" />
    <glyph glyph-name="uniFEB7" unicode="&#x634;" horiz-adv-x="857" arabic-form="initial" 
d="M797 426v-256q-4 -84 -56.5 -127t-136.5 -43q-103 0 -142 50q-41 -50 -151 -50q-109 0 -144 56q-35 -56 -133 -56h-34l-17 10v110l17 10h37q39 0 56 10t17 32v193h110v-217q31 -18 92 -18q52 0 73.5 9.5t21.5 32.5v193h110v-217q29 -18 89 -18q38 0 57.5 9.5t23.5 30.5
v256h110zM409 743h110v-105h-110v105zM332 595h105v-110h-105v110zM488 595h105v-110h-105v110z" />
    <glyph glyph-name="uniFEB8" unicode="&#x634;" horiz-adv-x="921" arabic-form="medial" 
d="M938 120v-110l-17 -10q-131 0 -174 56q-37 -56 -148 -56q-100 0 -135 53q-39 -53 -153 -53q-109 0 -144 56q-35 -56 -133 -56h-34l-17 10v110l17 10h37q39 0 56 10t17 32v193h110v-217q31 -18 92 -18q52 0 73.5 9.5t21.5 32.5v193h110v-218q30 -17 83 -17q47 0 67 9.5
t20 32.5v254h110v-275q40 -21 124 -21zM410 746h110v-105h-110v105zM333 598h105v-110h-105v110zM489 598h105v-110h-105v110z" />
    <glyph glyph-name="uniFEBA" unicode="&#x635;" horiz-adv-x="1211" arabic-form="final" 
d="M1228 120v-110l-17 -10q-95 0 -129 49q-62 -49 -176 -49h-278q-16 -96 -88 -154t-210 -58q-161 0 -228 84t-67 216q0 57 11.5 116t26.5 92h110q-11 -34 -22 -87t-11 -111q0 -85 41 -132.5t148 -47.5q104 0 144 36t40 105v358h110v-51l33 12q106 37 169.5 55t115.5 18
q91 0 146.5 -57.5t55.5 -162.5q0 -55 -13 -94q11 -5 26.5 -6t44.5 -1zM1009 149.5q31 19.5 31 73.5q0 50 -29.5 74t-79.5 24q-42 0 -100.5 -15.5t-168.5 -50.5l-29 -9v-116h273q72 0 103 19.5z" />
    <glyph glyph-name="uniFEBB" unicode="&#x635;" horiz-adv-x="781" arabic-form="initial" 
d="M665.5 393.5q55.5 -57.5 55.5 -162.5q0 -119 -63 -175t-184 -56h-474l-17 15v99l17 16h96v285h110v-47l33 12q104 36 166.5 53.5t113.5 17.5q91 0 146.5 -57.5zM577 149.5q31 19.5 31 73.5q0 50 -29.5 74t-79.5 24q-42 0 -99.5 -15t-164.5 -49l-29 -9v-118h268
q72 0 103 19.5z" />
    <glyph glyph-name="uniFEBC" unicode="&#x635;" horiz-adv-x="779" arabic-form="medial" 
d="M796 120v-110l-17 -10q-95 0 -129 49q-62 -49 -176 -49h-474l-17 15v99l17 16h96v285h110v-47l33 12q104 36 166.5 53.5t113.5 17.5q91 0 146.5 -57.5t55.5 -162.5q0 -55 -13 -94q11 -5 26.5 -6t44.5 -1zM577 149.5q31 19.5 31 73.5q0 50 -29.5 74t-79.5 24
q-42 0 -99.5 -15t-164.5 -49l-29 -9v-118h268q72 0 103 19.5z" />
    <glyph glyph-name="uniFEBE" unicode="&#x636;" horiz-adv-x="1211" arabic-form="final" 
d="M1228 120v-110l-17 -10q-95 0 -129 49q-62 -49 -176 -49h-278q-16 -96 -88 -154t-210 -58q-161 0 -228 84t-67 216q0 57 11.5 116t26.5 92h110q-11 -34 -22 -87t-11 -111q0 -85 41 -132.5t148 -47.5q104 0 144 36t40 105v358h110v-51l33 12q106 37 169.5 55t115.5 18
q91 0 146.5 -57.5t55.5 -162.5q0 -55 -13 -94q11 -5 26.5 -6t44.5 -1zM1009 149.5q31 19.5 31 73.5q0 50 -29.5 74t-79.5 24q-42 0 -100.5 -15.5t-168.5 -50.5l-29 -9v-116h273q72 0 103 19.5zM639 616h110v-110h-110v110z" />
    <glyph glyph-name="uniFEBF" unicode="&#x636;" horiz-adv-x="781" arabic-form="initial" 
d="M665.5 393.5q55.5 -57.5 55.5 -162.5q0 -119 -63 -175t-184 -56h-474l-17 15v99l17 16h96v285h110v-47l33 12q104 36 166.5 53.5t113.5 17.5q91 0 146.5 -57.5zM577 149.5q31 19.5 31 73.5q0 50 -29.5 74t-79.5 24q-42 0 -99.5 -15t-164.5 -49l-29 -9v-118h268
q72 0 103 19.5zM207 616h110v-110h-110v110z" />
    <glyph glyph-name="uniFEC0" unicode="&#x636;" horiz-adv-x="779" arabic-form="medial" 
d="M796 120v-110l-17 -10q-95 0 -129 49q-62 -49 -176 -49h-474l-17 15v99l17 16h96v285h110v-47l33 12q104 36 166.5 53.5t113.5 17.5q91 0 146.5 -57.5t55.5 -162.5q0 -55 -13 -94q11 -5 26.5 -6t44.5 -1zM577 149.5q31 19.5 31 73.5q0 50 -29.5 74t-79.5 24
q-42 0 -99.5 -15t-164.5 -49l-29 -9v-118h268q72 0 103 19.5zM207 616h110v-110h-110v110z" />
    <glyph glyph-name="uniFEC2" unicode="&#x637;" horiz-adv-x="785" arabic-form="final" 
d="M802 120v-110l-17 -10q-50 0 -82 13t-50 40q-62 -53 -182 -53h-441v130h88v583h110v-338l23 9q93 34 150.5 50.5t108.5 16.5q94 0 151 -59t57 -166q0 -46 -11 -85q11 -7 27.5 -9t50.5 -2zM574 148.5q31 18.5 31 69.5q0 52 -29.5 77.5t-79.5 25.5q-37 0 -84.5 -12
t-128.5 -38q-10 -3 -55 -17v-124h243q72 0 103 18.5z" />
    <glyph glyph-name="uniFEC3" unicode="&#x637;" horiz-adv-x="740" arabic-form="initial" 
d="M623 392q57 -59 57 -166q0 -116 -63 -171t-184 -55h-433l-17 10v110l17 10h80v583h110v-338l23 9q93 34 150.5 50.5t108.5 16.5q94 0 151 -59zM536 148.5q31 18.5 31 69.5q0 52 -29.5 77.5t-79.5 25.5q-37 0 -84.5 -12t-128.5 -38q-10 -3 -55 -17v-124h243q72 0 103 18.5
z" />
    <glyph glyph-name="uniFEC4" unicode="&#x637;" horiz-adv-x="743" arabic-form="medial" 
d="M760 120v-110l-17 -10q-50 0 -81.5 12.5t-48.5 38.5q-61 -51 -180 -51h-433l-17 10v110l17 10h80v583h110v-338l23 9q93 34 150.5 50.5t108.5 16.5q94 0 151 -59t57 -166q0 -48 -11 -87q11 -6 27 -7.5t47 -1.5zM536 148.5q31 18.5 31 69.5q0 52 -29.5 77.5t-79.5 25.5
q-37 0 -84.5 -12t-128.5 -38q-10 -3 -55 -17v-124h243q72 0 103 18.5z" />
    <glyph glyph-name="uniFEC6" unicode="&#x638;" horiz-adv-x="785" arabic-form="final" 
d="M802 120v-110l-17 -10q-50 0 -82 13t-50 40q-62 -53 -182 -53h-441v130h88v583h110v-338l23 9q93 34 150.5 50.5t108.5 16.5q94 0 151 -59t57 -166q0 -46 -11 -85q11 -7 27.5 -9t50.5 -2zM574 148.5q31 18.5 31 69.5q0 52 -29.5 77.5t-79.5 25.5q-37 0 -84.5 -12
t-128.5 -38q-10 -3 -55 -17v-124h243q72 0 103 18.5zM421 662h110v-110h-110v110z" />
    <glyph glyph-name="uniFEC7" unicode="&#x638;" horiz-adv-x="740" arabic-form="initial" 
d="M623 392q57 -59 57 -166q0 -116 -63 -171t-184 -55h-433l-17 10v110l17 10h80v583h110v-338l23 9q93 34 150.5 50.5t108.5 16.5q94 0 151 -59zM536 148.5q31 18.5 31 69.5q0 52 -29.5 77.5t-79.5 25.5q-37 0 -84.5 -12t-128.5 -38q-10 -3 -55 -17v-124h243q72 0 103 18.5
zM393 652h110v-110h-110v110z" />
    <glyph glyph-name="uniFEC8" unicode="&#x638;" horiz-adv-x="743" arabic-form="medial" 
d="M760 120v-110l-17 -10q-50 0 -81.5 12.5t-48.5 38.5q-61 -51 -180 -51h-433l-17 10v110l17 10h80v583h110v-338l23 9q93 34 150.5 50.5t108.5 16.5q94 0 151 -59t57 -166q0 -48 -11 -87q11 -6 27 -7.5t47 -1.5zM536 148.5q31 18.5 31 69.5q0 52 -29.5 77.5t-79.5 25.5
q-37 0 -84.5 -12t-128.5 -38q-10 -3 -55 -17v-124h243q72 0 103 18.5zM393 652h110v-110h-110v110z" />
    <glyph glyph-name="uniFECA" unicode="&#x639;" horiz-adv-x="596" arabic-form="final" 
d="M613 126v-122l-17 -4q-127 0 -191 8t-102 32q-62 -14 -94 -24t-55 -34.5t-23 -67.5q0 -46 34.5 -74.5t126.5 -28.5h256v-130h-267q-142 0 -203.5 62t-61.5 168q0 82 45.5 139.5t126.5 75.5l-116 159v127q39 16 99.5 26.5t135.5 10.5q135 0 235 -37v-127l-113 -155h167z
M187 315l120 -170l119 169q-57 10 -119 10t-120 -9z" />
    <glyph glyph-name="uniFECB" unicode="&#x639;" horiz-adv-x="534" arabic-form="initial" 
d="M492 130v-130h-492l-17 3v123l17 4h73q-25 39 -25 106q0 108 65 161.5t168 53.5q50 0 96.5 -9t71.5 -20l-27 -120q-36 8 -66.5 13.5t-74.5 5.5q-60 0 -89 -22.5t-29 -62.5q0 -55 32 -80.5t111 -25.5h186z" />
    <glyph glyph-name="uniFECC" unicode="&#x639;" horiz-adv-x="578" arabic-form="medial" 
d="M595 126v-122l-17 -4q-129 0 -190.5 11t-98.5 44q-37 -33 -98.5 -44t-190.5 -11l-17 4v122l17 4h167l-113 157v127q39 16 99.5 26.5t135.5 10.5q139 0 235 -37v-127l-113 -157h167zM169 317l120 -172l119 171q-53 10 -119 10q-62 0 -120 -9z" />
    <glyph glyph-name="uniFECE" unicode="&#x63a;" horiz-adv-x="596" arabic-form="final" 
d="M613 126v-122l-17 -4q-127 0 -191 8t-102 32q-62 -14 -94 -24t-55 -34.5t-23 -67.5q0 -46 34.5 -74.5t126.5 -28.5h256v-130h-267q-142 0 -203.5 62t-61.5 168q0 82 45.5 139.5t126.5 75.5l-116 159v127q39 16 99.5 26.5t135.5 10.5q135 0 235 -37v-127l-113 -155h167z
M187 315l120 -170l119 169q-57 10 -119 10t-120 -9zM252 658h110v-110h-110v110z" />
    <glyph glyph-name="uniFECF" unicode="&#x63a;" horiz-adv-x="534" arabic-form="initial" 
d="M492 130v-130h-492l-17 3v123l17 4h73q-25 39 -25 106q0 108 65 161.5t168 53.5q50 0 96.5 -9t71.5 -20l-27 -120q-36 8 -66.5 13.5t-74.5 5.5q-60 0 -89 -22.5t-29 -62.5q0 -55 32 -80.5t111 -25.5h186zM222 658h110v-110h-110v110z" />
    <glyph glyph-name="uniFED0" unicode="&#x63a;" horiz-adv-x="578" arabic-form="medial" 
d="M595 126v-122l-17 -4q-129 0 -190.5 11t-98.5 44q-37 -33 -98.5 -44t-190.5 -11l-17 4v122l17 4h167l-113 157v127q39 16 99.5 26.5t135.5 10.5q139 0 235 -37v-127l-113 -157h167zM169 317l120 -172l119 171q-53 10 -119 10q-62 0 -120 -9zM234 658h110v-110h-110v110z
" />
    <glyph glyph-name="uniFED2" unicode="&#x641;" horiz-adv-x="1017" arabic-form="final" 
d="M1034 125v-120l-17 -5h-715q-105 0 -163.5 34t-81 93.5t-22.5 143.5q0 39 9 82t22 77l110 1q-10 -28 -18 -71t-8 -73q0 -60 15.5 -94t48 -48.5t88.5 -14.5h254q-44 51 -44 123q0 108 59.5 165.5t158.5 57.5q97 0 150.5 -54.5t53.5 -154.5q0 -80 -50 -137h133zM653 324
q-26 -22 -26 -64q0 -30 20.5 -59.5t79.5 -70.5q58 40 75 68.5t17 61.5q0 42 -26 64t-70 22t-70 -22zM675 697h110v-110h-110v110z" />
    <glyph glyph-name="uniFED3" unicode="&#x641;" horiz-adv-x="518" arabic-form="initial" 
d="M458 209q0 -104 -47.5 -156.5t-157.5 -52.5h-253l-17 10v110l17 10h254q52 0 72.5 15t20.5 55v50q-36 -57 -130 -57q-92 0 -138 54.5t-46 135.5q0 67 30 118t84.5 79.5t127.5 28.5q52 0 100 -13.5t82 -33.5zM347 353v108q-36 18 -84 18q-57 0 -86 -22t-29 -59
q0 -33 24 -54t72 -21q75 0 103 30zM220 810h110v-110h-110v110z" />
    <glyph glyph-name="uniFED4" unicode="&#x641;" horiz-adv-x="554" arabic-form="medial" 
d="M571 125v-120l-17 -5h-554l-17 5v120l17 5h110q-44 51 -44 123q0 108 59.5 165.5t158.5 57.5q97 0 150.5 -54.5t53.5 -154.5q0 -80 -50 -137h116zM207 324q-26 -22 -26 -64q0 -30 20.5 -59.5t79.5 -70.5q58 40 75 68.5t17 61.5q0 42 -26 64t-70 22t-70 -22zM229 697h110
v-110h-110v110z" />
    <glyph glyph-name="uniFED6" unicode="&#x642;" horiz-adv-x="850" arabic-form="final" 
d="M867 120v-110l-17 -10h-98v-8q0 -109 -59.5 -164t-196.5 -55h-147q-127 0 -195 31.5t-93.5 95t-25.5 171.5q0 52 11.5 103t25.5 81h110q-13 -35 -22.5 -83t-9.5 -94q0 -63 15.5 -100t58.5 -56t125 -19h150q54 0 84.5 8t44.5 27.5t14 55.5v6h-115q-119 0 -166.5 58
t-47.5 152q0 71 31 125.5t88.5 85t132.5 30.5q53 0 102.5 -13.5t84.5 -33.5v-274h98zM642 130v173q-38 18 -89 18q-62 0 -93.5 -26t-31.5 -70q0 -42 27 -68.5t79 -26.5h108zM437 663h105v-110h-105v110zM588 663h105v-110h-105v110z" />
    <glyph glyph-name="uniFED7" unicode="&#x642;" horiz-adv-x="518" arabic-form="initial" 
d="M458 209q0 -104 -47.5 -156.5t-157.5 -52.5h-253l-17 10v110l17 10h254q52 0 72.5 15t20.5 55v50q-36 -57 -130 -57q-92 0 -138 54.5t-46 135.5q0 67 30 118t84.5 79.5t127.5 28.5q52 0 100 -13.5t82 -33.5zM347 353v108q-36 18 -84 18q-57 0 -86 -22t-29 -59
q0 -33 24 -54t72 -21q75 0 103 30zM147 811h105v-110h-105v110zM298 811h105v-110h-105v110z" />
    <glyph glyph-name="uniFED8" unicode="&#x642;" horiz-adv-x="554" arabic-form="medial" 
d="M571 125v-120l-17 -5h-554l-17 5v120l17 5h110q-44 51 -44 123q0 108 59.5 165.5t158.5 57.5q97 0 150.5 -54.5t53.5 -154.5q0 -80 -50 -137h116zM207 324q-26 -22 -26 -64q0 -30 20.5 -59.5t79.5 -70.5q58 40 75 68.5t17 61.5q0 42 -26 64t-70 22t-70 -22zM156 698h105
v-110h-105v110zM307 698h105v-110h-105v110z" />
    <glyph glyph-name="uniFEDA" unicode="&#x643;" horiz-adv-x="906" arabic-form="final" 
d="M923 120v-110l-17 -10q-56 0 -89.5 16t-49.5 50q-55 -66 -190 -66h-273q-107 0 -166 31t-81 84.5t-22 132.5q0 38 9.5 80.5t22.5 73.5h105q-10 -28 -18.5 -69.5t-8.5 -69.5q0 -75 36.5 -104t124.5 -29h277q55 0 85.5 12.5t30.5 50.5v520h110v-516q0 -32 10 -46.5
t28.5 -17.5t58.5 -3zM433 283h-113v80h112q20 0 32.5 4.5t12.5 12.5q0 16 -29 29t-109 13l-6 102l192 83l12 -76l-114 -46q56 -6 90 -31t34 -72q0 -99 -114 -99z" />
    <glyph glyph-name="uniFEDB" unicode="&#x643;" horiz-adv-x="627" arabic-form="initial" 
d="M474.5 399q58.5 -29 80.5 -79.5t22 -121.5v-68q0 -130 -114 -130h-463l-17 4v122l17 4h462v68q0 57 -33 86.5t-121 29.5h-237l-32 123l388 296l65 -100l-285 -205h105q104 0 162.5 -29z" />
    <glyph glyph-name="uniFEDC" unicode="&#x643;" horiz-adv-x="671" arabic-form="medial" 
d="M688 120v-110l-17 -10q-83 0 -119 37q-28 -37 -89 -37h-463l-17 4v122l17 4h462v68q0 57 -33 86.5t-121 29.5h-237l-32 123l388 296l65 -100l-285 -205h105q104 0 162.5 -29t80.5 -79.5t22 -121.5v-31q6 -25 26 -31t68 -6z" />
    <glyph glyph-name="uniFEDE" unicode="&#x644;" horiz-adv-x="700" arabic-form="final" 
d="M717 120v-110l-17 -10q-73 0 -108 28q-23 -83 -90.5 -131.5t-186.5 -48.5q-153 0 -216.5 84t-63.5 216q0 57 11.5 116t26.5 92h110q-11 -34 -22 -87t-11 -111q0 -85 37.5 -132.5t136.5 -47.5q96 0 132.5 36t36.5 105v594h110v-516q0 -32 10 -46.5t28.5 -17.5t58.5 -3z
" />
    <glyph glyph-name="uniFEDF" unicode="&#x644;" horiz-adv-x="275" arabic-form="initial" 
d="M-17 120l17 10q37 0 56.5 5t29 20.5t9.5 47.5v510h110v-505q0 -110 -46.5 -159t-158.5 -49l-17 10v110z" />
    <glyph glyph-name="uniFEE0" unicode="&#x644;" horiz-adv-x="302" arabic-form="medial" 
d="M319 120v-110l-17 -10q-53 0 -85.5 14.5t-49.5 44.5q-46 -59 -167 -59l-17 10v110l17 10q37 0 56.5 5t29 20.5t9.5 47.5v510h110v-516q0 -32 10 -46.5t28.5 -17.5t58.5 -3z" />
    <glyph glyph-name="uniFEE2" unicode="&#x645;" horiz-adv-x="783" arabic-form="final" 
d="M800 120v-110l-17 -10q-50 0 -82 13t-49 39q-55 -78 -187 -78q-71 0 -118 26.5t-72 73.5h-47q-37 0 -55 -5.5t-25.5 -20.5t-7.5 -47v-300h-110v304q0 98 50.5 146.5t166.5 52.5q2 73 33.5 129t88 87t130.5 31q53 0 102.5 -13.5t84.5 -33.5v-207q0 -32 10 -46.5
t28.5 -17.5t58.5 -3zM576 303q-38 18 -89 18q-62 0 -93.5 -30.5t-31.5 -81.5q0 -47 28 -76t83 -29q42 0 67.5 15t34.5 42z" />
    <glyph glyph-name="uniFEE3" unicode="&#x645;" horiz-adv-x="569" arabic-form="initial" 
d="M424.5 437.5q49.5 -13.5 84.5 -33.5v-238q0 -73 -52 -124.5t-169 -51.5q-98 0 -155 52q-21 -21 -52.5 -31.5t-80.5 -10.5l-17 10v110l17 10q30 0 48 2.5t29 9.5q-7 27 -7 61q0 73 31 129.5t88.5 87.5t132.5 31q53 0 102.5 -13.5zM399 303q-38 18 -89 18q-62 0 -93.5 -28
t-31.5 -75q0 -44 28 -71t83 -27q82 0 102 41z" />
    <glyph glyph-name="uniFEE4" unicode="&#x645;" horiz-adv-x="606" arabic-form="medial" 
d="M623 120v-110l-17 -10q-53 0 -85 14t-49 43q-57 -67 -184 -67q-98 0 -155 52q-21 -21 -52.5 -31.5t-80.5 -10.5l-17 10v110l17 10q30 0 48 2.5t29 9.5q-7 27 -7 61q0 73 31 129.5t88.5 87.5t132.5 31q53 0 102.5 -13.5t84.5 -33.5v-207q0 -32 10 -46.5t28.5 -17.5
t58.5 -3zM399 303q-38 18 -89 18q-62 0 -93.5 -28t-31.5 -75q0 -44 28 -71t83 -27q82 0 102 41z" />
    <glyph glyph-name="uniFEE6" unicode="&#x646;" horiz-adv-x="730" arabic-form="final" 
d="M747 120v-110l-17 -10q-63 0 -98 21q-10 -107 -82.5 -172.5t-219.5 -65.5q-161 0 -228 84t-67 216q0 57 11.5 116t26.5 92h110q-11 -34 -22 -87t-11 -111q0 -85 41 -132.5t148 -47.5q104 0 144 36t40 105v373h110v-230q0 -32 10 -46.5t28.5 -17.5t58.5 -3zM281 519h110
v-110h-110v110z" />
    <glyph glyph-name="uniFEE7" unicode="&#x646;" horiz-adv-x="284" arabic-form="initial" 
d="M-17 120l17 10q44 0 67.5 4.5t35 18t11.5 41.5v233h110v-233q0 -101 -51 -147.5t-173 -46.5l-17 10v110zM115 628h110v-110h-110v110z" />
    <glyph glyph-name="uniFEE8" unicode="&#x646;" horiz-adv-x="338" arabic-form="medial" 
d="M355 120v-110l-17 -10q-62 0 -99 15.5t-54 48.5q-24 -33 -69 -48.5t-116 -15.5l-17 10v110l17 10q44 0 67.5 4.5t35 18t11.5 41.5v233h110v-230q0 -32 11.5 -46.5t33.5 -17.5t69 -3zM116 628h110v-110h-110v110z" />
    <glyph glyph-name="uniFEEA" unicode="&#x647;" horiz-adv-x="573" arabic-form="final" 
d="M590 126v-122l-17 -4q-82 0 -131.5 27t-67.5 95q-16 -38 -49.5 -60t-95.5 -22q-98 0 -146 60t-48 150q0 73 32 128.5t90 86.5t135 31q35 0 71 -12v43h110l-1 -308q0 -36 9 -55t30.5 -26.5t61.5 -7.5zM363 206v7v146q-35 7 -73 7q-69 0 -104.5 -27.5t-35.5 -73.5
q0 -42 27 -68.5t79 -26.5q76 0 107 36z" />
    <glyph glyph-name="uniFEEB" unicode="&#x647;" horiz-adv-x="738" arabic-form="initial" 
d="M448 488.5q109 -40.5 169.5 -100t60.5 -151.5q0 -115 -61.5 -176t-220.5 -61q-91 0 -166 29q-38 -17 -97 -23t-133 -6l-17 5v120l17 5h78q-38 48 -38 112q0 73 39.5 126t105.5 74l-70 18l32 117q192 -48 301 -88.5zM528.5 154q34.5 22 34.5 76q0 46 -31 77.5t-109 62.5
v-240q71 2 105.5 24zM181 326q-31 -27 -31 -74q0 -62 38 -88t125 -32v213q-20 8 -50 8q-51 0 -82 -27z" />
    <glyph glyph-name="uniFEEC" unicode="&#x647;" horiz-adv-x="585" arabic-form="medial" 
d="M602 126v-122l-17 -4h-61q10 -18 10 -39q0 -86 -55 -140t-172 -54q-116 0 -178 58t-66 175h-63l-17 4v122l17 4h63v273q107 48 221 48q66 0 113.5 -26.5t72 -73t24.5 -106.5q0 -74 -36 -115h127zM173 304v-174h76q73 0 101.5 22.5t28.5 69.5q0 43 -26 71t-77 28
q-64 0 -103 -17zM394 -85.5q25 17.5 25 42.5q0 63 -103 63l-145 -1q1 -69 33.5 -95.5t109.5 -26.5q55 0 80 17.5z" />
    <glyph glyph-name="uniFEEE" unicode="&#x648;" horiz-adv-x="567" arabic-form="final" 
d="M584 120v-110l-17 -10h-98v-28q0 -94 -45.5 -141.5t-150.5 -47.5h-207v130h210q46 0 64.5 13t18.5 48v26h-105q-130 0 -177 55.5t-47 149.5q0 73 31 128.5t88.5 86.5t132.5 31q53 0 102.5 -13.5t84.5 -33.5v-274h98zM359 130v173q-38 18 -89 18q-62 0 -93.5 -27.5
t-31.5 -73.5q0 -90 116 -90h98z" />
    <glyph glyph-name="uniFEF0" unicode="&#x649;" horiz-adv-x="763" arabic-form="final" 
d="M780 120v-110l-17 -10h-37v-19q0 -223 -336 -223q-143 0 -221 39.5t-106 107.5t-28 167q0 59 10 119.5t23 92.5h110q-9 -32 -18.5 -86.5t-9.5 -112.5q0 -79 22.5 -121t75.5 -59t152 -17q89 0 135 10.5t61 28t15 43.5v30h-163v130h315z" />
    <glyph glyph-name="uniFEF2" unicode="&#x64a;" horiz-adv-x="763" arabic-form="final" 
d="M780 120v-110l-17 -10h-37v-19q0 -223 -336 -223q-143 0 -221 39.5t-106 107.5t-28 167q0 59 10 119.5t23 92.5h110q-9 -32 -18.5 -86.5t-9.5 -112.5q0 -79 22.5 -121t75.5 -59t152 -17q89 0 135 10.5t61 28t15 43.5v30h-163v130h315zM270 -327h105v-110h-105v110z
M421 -327h105v-110h-105v110z" />
    <glyph glyph-name="uniFEF3" unicode="&#x64a;" horiz-adv-x="284" arabic-form="initial" 
d="M-17 120l17 10q44 0 67.5 4.5t35 18t11.5 41.5v233h110v-233q0 -101 -51 -147.5t-173 -46.5l-17 10v110zM25 -106h105v-110h-105v110zM176 -106h105v-110h-105v110z" />
    <glyph glyph-name="uniFEF4" unicode="&#x64a;" horiz-adv-x="338" arabic-form="medial" 
d="M355 120v-110l-17 -10q-62 0 -99 15.5t-54 48.5q-24 -33 -69 -48.5t-116 -15.5l-17 10v110l17 10q44 0 67.5 4.5t35 18t11.5 41.5v233h110v-230q0 -32 11.5 -46.5t33.5 -17.5t69 -3zM50 -106h105v-110h-105v110zM201 -106h105v-110h-105v110z" />
    <glyph glyph-name=".notdef" horiz-adv-x="861" 
d="M59 750h743v-750h-743v750zM706 91v568h-551v-568h551zM426 313l-107 -108l-56 58l106 106l-106 107l56 57l107 -107l106 106l57 -56l-106 -107l106 -106l-57 -57z" />
    <glyph glyph-name=".null" 
 />
    <glyph glyph-name="nonmarkingreturn" horiz-adv-x="333" 
 />
    <glyph glyph-name="space" unicode=" " horiz-adv-x="245" 
 />
    <glyph glyph-name="exclam" unicode="!" horiz-adv-x="264" 
d="M90 237l-30 513h144l-30 -513h-84zM70 0v142h125v-142h-125z" />
    <glyph glyph-name="quotedbl" unicode="&#x22;" horiz-adv-x="418" 
d="M79 454l-18 296h117l-18 -296h-81zM258 454l-18 296h117l-18 -296h-81z" />
    <glyph glyph-name="numbersign" unicode="#" horiz-adv-x="902" 
d="M863 495h-173l-70 -207h189v-77h-215l-72 -211h-85l72 211h-234l-72 -211h-85l72 211h-151v77h177l70 207h-191v77h217l61 178h85l-61 -178h234l61 178h85l-61 -178h147v-77zM535 288l70 207h-234l-70 -207h234z" />
    <glyph glyph-name="dollar" unicode="$" horiz-adv-x="657" 
d="M559 57.5q-68 -62.5 -185 -70.5v-97h-66v97q-125 9 -197.5 81t-75.5 191h138q2 -74 48.5 -115.5t125.5 -41.5q66 0 107 30t41 79q0 39 -17 62.5t-55 36.5t-105 19q-131 11 -195 64t-64 151q0 96 67 155.5t180 64.5v96h66v-98q109 -12 171.5 -74.5t67.5 -166.5h-137
q-5 62 -43 95.5t-105 33.5q-62 0 -98.5 -26.5t-36.5 -71.5q0 -37 17 -59t55.5 -34.5t104.5 -17.5q133 -11 196 -64t63 -156q0 -101 -68 -163.5z" />
    <glyph glyph-name="percent" unicode="%" horiz-adv-x="716" 
d="M68 520.5q-42 40.5 -42 101.5q0 40 19 72.5t53 51t76 18.5q43 0 77 -18.5t53 -51t19 -72.5q0 -61 -42 -101.5t-107 -40.5q-64 0 -106 40.5zM559 750h98l-496 -750h-98zM228 570q21 21 21 52t-21 51.5t-54 20.5q-32 0 -53 -20.5t-21 -51.5t21 -52t53 -21q33 0 54 21z
M435 25.5q-42 40.5 -42 101.5q0 40 19 72.5t53 51t76 18.5q43 0 77 -18.5t53 -51t19 -72.5q0 -61 -42 -101.5t-107 -40.5q-64 0 -106 40.5zM595 75q21 21 21 52t-21 51.5t-54 20.5q-32 0 -53 -20.5t-21 -51.5t21 -52t53 -21q33 0 54 21z" />
    <glyph glyph-name="ampersand" unicode="&#x26;" horiz-adv-x="736" 
d="M621 286q-18 -74 -53 -134l119 -152h-144l-50 62q-89 -77 -222 -77q-71 0 -124.5 23.5t-82.5 67t-29 100.5q0 66 39.5 117.5t140.5 117.5l-16 20q-38 47 -52.5 81t-14.5 74q0 50 25.5 91t70 64t99.5 23q53 0 96 -23t67 -64t24 -91q-1 -52 -29.5 -95t-105.5 -99l113 -143
q27 60 39 142h200v-105h-110zM277.5 622q-17.5 -17 -17.5 -43q0 -35 32 -76l23 -29q37 26 53 49.5t16 52.5t-16.5 46t-44.5 17t-45.5 -17zM422 152l-139 174q-70 -48 -94 -76t-24 -60q0 -42 30 -64.5t86 -22.5q81 0 141 49z" />
    <glyph glyph-name="quotesingle" unicode="'" horiz-adv-x="241" 
d="M79 454l-18 296h119l-18 -296h-83z" />
    <glyph glyph-name="parenleft" unicode="(" horiz-adv-x="303" 
d="M97.5 44.5q-49.5 121.5 -49.5 267.5q0 148 49 268.5t115 194.5h104q-66 -76 -115 -199t-49 -264q0 -140 49.5 -263.5t114.5 -197.5h-104q-65 72 -114.5 193.5z" />
    <glyph glyph-name="parenright" unicode=")" horiz-adv-x="303" 
d="M101.5 48.5q49.5 123.5 49.5 263.5q0 141 -49 264t-115 199h104q66 -75 115 -195.5t49 -267.5q0 -146 -49.5 -267t-114.5 -194h-104q65 74 114.5 197.5z" />
    <glyph glyph-name="asterisk" unicode="*" horiz-adv-x="323" 
d="M303 668l-98 -51l97 -51l-26 -44l-93 58l4 -110h-54l7 110l-93 -58l-27 46l102 49l-99 52l24 44l93 -60l-4 108h54l-6 -107l95 56z" />
    <glyph glyph-name="plus" unicode="+" horiz-adv-x="610" 
d="M506 405v-88h-157v-157h-87v157h-158v88h158v157h87v-157h157z" />
    <glyph glyph-name="comma" unicode="," horiz-adv-x="276" 
d="M21 -151l76 296h131l-114 -296h-93z" />
    <glyph glyph-name="hyphen" unicode="-" horiz-adv-x="450" 
d="M67 228v87h315v-87h-315z" />
    <glyph glyph-name="period" unicode="." horiz-adv-x="234" 
d="M58 0v145h118v-145h-118z" />
    <glyph glyph-name="slash" unicode="/" horiz-adv-x="400" 
d="M45 0l259 750h68l-260 -750h-67z" />
    <glyph glyph-name="zero" unicode="0" horiz-adv-x="610" 
d="M533 113.5q-32 -60.5 -91.5 -94.5t-137.5 -34q-77 0 -136 34t-91.5 94.5t-32.5 137.5v248q0 75 32.5 135.5t91.5 95t136 34.5q78 0 137.5 -34.5t91.5 -95t32 -135.5v-248q0 -77 -32 -137.5zM204 141.5q36 -39.5 100 -39.5q66 0 101.5 39.5t35.5 106.5v253q0 67 -36 106.5
t-101 39.5q-63 0 -99.5 -40t-36.5 -106v-253q0 -67 36 -106.5z" />
    <glyph glyph-name="one" unicode="1" horiz-adv-x="371" 
d="M198 750h106v-750h-125v621l-154 -58v117z" />
    <glyph glyph-name="two" unicode="2" horiz-adv-x="538" 
d="M513 115v-115h-483v103l283 312q34 37 47.5 66.5t13.5 59.5q0 46 -27.5 76t-80.5 30t-82.5 -32.5t-29.5 -79.5v-13h-124v13q0 64 29 116t83.5 82.5t128.5 30.5q73 0 125.5 -29.5t80 -79.5t27.5 -111q0 -55 -22.5 -102.5t-78.5 -109.5l-196 -217h306z" />
    <glyph glyph-name="three" unicode="3" horiz-adv-x="578" 
d="M512.5 336.5q30.5 -51.5 30.5 -112.5q0 -68 -33.5 -122.5t-92 -85.5t-131.5 -31q-72 0 -130.5 31t-92 85.5t-33.5 121.5q0 16 3 29h123q-2 -20 -2 -22q0 -58 37 -95t95 -37q59 0 96 36.5t37 95.5q0 55 -37.5 92t-93.5 37h-56v105h56q43 0 71 27t28 69q0 43 -28.5 70
t-72.5 27q-43 0 -71.5 -27.5t-28.5 -69.5q0 -9 1 -12h-116q-2 8 -2 20q0 55 28.5 99.5t78 70.5t110.5 26q62 0 111.5 -25.5t78 -70.5t28.5 -101q0 -44 -19.5 -83t-55.5 -66q53 -30 83.5 -81.5z" />
    <glyph glyph-name="four" unicode="4" horiz-adv-x="600" 
d="M590 303v-110h-101v-193h-124v193h-345v90l345 467h124v-447h101zM171 303h194v263z" />
    <glyph glyph-name="five" unicode="5" horiz-adv-x="583" 
d="M164 15.5q-58 30.5 -91 84t-33 119.5q0 16 3 31h121q-2 -13 -2 -24q0 -56 37 -92.5t95 -36.5q62 0 99.5 38.5t37.5 103.5q0 60 -38.5 98t-98.5 38q-31 0 -62.5 -11t-52.5 -29h-127l78 415h384v-115h-294l-36 -193q20 19 56.5 31.5t72.5 12.5q70 0 124.5 -31.5t85 -89
t30.5 -132.5q0 -73 -32.5 -129.5t-91 -87.5t-135.5 -31q-72 0 -130 30.5z" />
    <glyph glyph-name="six" unicode="6" horiz-adv-x="576" 
d="M429.5 434q57.5 -32 89.5 -86t32 -119q0 -69 -33.5 -125t-93 -87.5t-134.5 -31.5q-73 0 -132.5 31.5t-93.5 86.5t-34 123t39 130l241 394h151l-178 -285q5 1 15 1q74 0 131.5 -32zM388 135.5q39 36.5 39 93.5q0 56 -38.5 93.5t-98.5 37.5q-58 0 -97 -37.5t-39 -93.5
q0 -57 39 -93.5t97 -36.5q59 0 98 36.5z" />
    <glyph glyph-name="seven" unicode="7" horiz-adv-x="532" 
d="M25 750h487v-99l-281 -651h-138l284 635h-352v115z" />
    <glyph glyph-name="eight" unicode="8" horiz-adv-x="583" 
d="M517.5 336.5q30.5 -51.5 30.5 -112.5q0 -67 -33 -121.5t-91.5 -86t-132.5 -31.5q-73 0 -131.5 31.5t-91.5 86.5t-33 121q0 60 30.5 112t82.5 83q-35 26 -54.5 64.5t-19.5 83.5q0 55 28 100t78 71t111 26q62 0 112 -26t78 -71t28 -100q0 -45 -19.5 -83t-55.5 -65
q53 -31 83.5 -82.5zM219.5 629.5q-28.5 -27.5 -28.5 -69.5t28.5 -69.5t71.5 -27.5q44 0 72.5 27.5t28.5 69.5t-28 69.5t-73 27.5q-43 0 -71.5 -27.5zM386.5 135.5q37.5 37.5 37.5 94.5q0 55 -37.5 92.5t-95.5 37.5q-57 0 -94.5 -37.5t-37.5 -92.5q0 -57 37 -94.5t95 -37.5
t95.5 37.5z" />
    <glyph glyph-name="nine" unicode="9" horiz-adv-x="576" 
d="M424 733q59 -31 93 -86t34 -123t-39 -130l-241 -394h-149l178 285q-5 -1 -17 -1q-74 0 -131.5 32t-89.5 86t-32 119q0 69 33.5 124.5t93 87t134.5 31.5q74 0 133 -31zM388 427.5q39 37.5 39 93.5t-39 92.5t-97 36.5q-60 0 -98.5 -36t-38.5 -93q0 -56 38.5 -93.5
t98.5 -37.5q58 0 97 37.5z" />
    <glyph glyph-name="colon" unicode=":" horiz-adv-x="262" 
d="M73 368v145h117v-145h-117zM73 0v145h117v-145h-117z" />
    <glyph glyph-name="semicolon" unicode=";" horiz-adv-x="293" 
d="M102 368v145h117v-145h-117zM24 -151l77 296h127l-114 -296h-90z" />
    <glyph glyph-name="less" unicode="&#x3c;" horiz-adv-x="609" 
d="M523 576v-89l-317 -119l317 -120v-92l-437 169v83z" />
    <glyph glyph-name="equal" unicode="=" horiz-adv-x="610" 
d="M104 491h402v-84h-402v84zM104 312h402v-84h-402v84z" />
    <glyph glyph-name="greater" unicode="&#x3e;" horiz-adv-x="609" 
d="M86 576l437 -168v-83l-437 -169v92l317 120l-317 119v89z" />
    <glyph glyph-name="question" unicode="?" horiz-adv-x="569" 
d="M418 734q53 -30 80.5 -77.5t27.5 -99.5q0 -45 -15.5 -80t-40.5 -61t-66 -60l-73 -61v-58h-125v103l131 105q28 24 43 48t15 55q0 38 -27.5 68.5t-78.5 30.5q-53 0 -83 -32.5t-30 -79.5v-13h-124v13q0 64 29 116t84 82.5t128 30.5q72 0 125 -30zM206 0v142h125v-142h-125z
" />
    <glyph glyph-name="at" unicode="@" horiz-adv-x="1069" 
d="M780.5 679.5q114.5 -58.5 181 -164t66.5 -241.5q0 -145 -60 -217t-156 -72q-60 0 -101 25.5t-59 70.5q-26 -47 -73 -71.5t-110 -24.5q-80 0 -130 44.5t-50 116.5q0 65 38.5 107.5t105.5 50.5l207 26v26q0 47 -45 47h-260v110h265q79 0 121 -37t42 -105v-221q0 -36 19 -56
t52 -20q50 0 80.5 48t30.5 152q0 116 -55 204t-150 136t-213 48q-112 0 -204 -52t-145.5 -144.5t-53.5 -210.5q0 -115 49 -204.5t136.5 -139.5t200.5 -50q61 0 112 17v-79q-58 -14 -112 -14q-135 0 -242 61t-167 168t-60 241q0 137 65 247.5t176 173t245 62.5
q139 0 253.5 -58.5zM585 107q39 24 55 62v65l-158 -22q-33 -5 -50.5 -21.5t-17.5 -44.5q0 -30 22.5 -46.5t62.5 -16.5q47 0 86 24z" />
    <glyph glyph-name="A" unicode="A" horiz-adv-x="701" 
d="M536 0l-57 191h-257l-58 -191h-137l236 750h176l235 -750h-138zM255 301h191l-94 313h-3z" />
    <glyph glyph-name="B" unicode="B" horiz-adv-x="630" 
d="M571 344q32 -47 32 -112q0 -70 -32 -122.5t-92 -81t-140 -28.5h-272v750h289q103 0 162 -50.5t59 -137.5q0 -50 -25.5 -89t-70.5 -60q58 -22 90 -69zM424 616q-28 24 -81 24h-149v-185h148q51 0 80.5 25t29.5 67q0 45 -28 69zM436.5 143q38.5 33 38.5 89q0 55 -37 84.5
t-106 29.5h-138v-236h137q67 0 105.5 33z" />
    <glyph glyph-name="C" unicode="C" horiz-adv-x="803" 
d="M644 63q-94 -78 -234 -78q-108 0 -192 50t-131 138.5t-47 201.5t47 201.5t131 138t192 49.5q138 0 232 -76t123 -210h-136q-28 80 -81 120.5t-138 40.5q-71 0 -124 -33t-81.5 -93t-28.5 -139t28.5 -138.5t81.5 -92.5t124 -33q172 0 221 169h134q-27 -138 -121 -216z" />
    <glyph glyph-name="D" unicode="D" horiz-adv-x="725" 
d="M509 703q86 -47 131 -131.5t45 -195.5t-45.5 -196.5t-130.5 -132.5t-202 -47h-240v750h239q117 0 203 -47zM490 191.5q61 70.5 61 184.5q0 113 -61.5 184t-185.5 71h-107v-510h108q124 0 185 70.5z" />
    <glyph glyph-name="E" unicode="E" horiz-adv-x="588" 
d="M200 110h351v-110h-484v750h471v-110h-338v-186h294v-110h-294v-234z" />
    <glyph glyph-name="F" unicode="F" horiz-adv-x="598" 
d="M565 640h-365v-186h319v-110h-319v-344h-133v750h498v-110z" />
    <glyph glyph-name="G" unicode="G" horiz-adv-x="805" 
d="M771 0h-110v112q-41 -61 -105.5 -94t-147.5 -33q-106 0 -190 51t-131 140t-47 199q0 112 47 200.5t131.5 138.5t193.5 50q131 0 225.5 -65.5t127.5 -180.5h-141q-24 58 -77.5 91.5t-132.5 33.5q-72 0 -126 -33.5t-83.5 -94.5t-29.5 -141t29.5 -141t83.5 -94.5t127 -33.5
q90 0 150 49t78 133h-190v110h318v-397z" />
    <glyph glyph-name="H" unicode="H" horiz-adv-x="699" 
d="M499 750h133v-750h-133v344h-299v-344h-133v750h133v-296h299v296z" />
    <glyph glyph-name="I" unicode="I" horiz-adv-x="265" 
d="M67 750h131v-750h-131v750z" />
    <glyph glyph-name="J" unicode="J" horiz-adv-x="435" 
d="M219 110q23 0 33 10t10 31v489h-152v110h285v-588q0 -78 -42 -120t-122 -42h-196v110h184z" />
    <glyph glyph-name="K" unicode="K" horiz-adv-x="700" 
d="M536 0l-247 344h-89v-344h-133v750h133v-296h88l234 296h157l-274 -347l290 -403h-159z" />
    <glyph glyph-name="L" unicode="L" horiz-adv-x="571" 
d="M200 110h335v-110h-468v750h133v-640z" />
    <glyph glyph-name="M" unicode="M" horiz-adv-x="925" 
d="M67 0v750h202l192 -555h3l193 555h201v-750h-133v568h-3l-206 -564h-107l-206 564h-3v-568h-133z" />
    <glyph glyph-name="N" unicode="N" horiz-adv-x="728" 
d="M67 0v750h138l327 -535h3v535h126v-750h-138l-327 535h-3v-535h-126z" />
    <glyph glyph-name="O" unicode="O" horiz-adv-x="830" 
d="M220.5 35q-85.5 50 -133 139t-47.5 201t47.5 200.5t133 138.5t194.5 50t194.5 -50t133 -138.5t47.5 -200.5t-47.5 -201t-133 -139t-194.5 -50t-194.5 50zM541 143q54 33 83.5 93t29.5 138q0 79 -29.5 139t-83.5 93t-126 33t-126 -33t-83.5 -93t-29.5 -139
q0 -78 29.5 -138t83.5 -93t126 -33t126 33z" />
    <glyph glyph-name="P" unicode="P" horiz-adv-x="614" 
d="M535.5 693.5q59.5 -56.5 59.5 -149.5q0 -61 -26.5 -108.5t-76.5 -73.5t-118 -26h-174v-336h-133v750h306q103 0 162.5 -56.5zM438.5 473.5q23.5 27.5 23.5 70.5q0 41 -23 68.5t-70 27.5h-169v-194h166q49 0 72.5 27.5z" />
    <glyph glyph-name="Q" unicode="Q" horiz-adv-x="830" 
d="M764 222q-26 -71 -75 -123l96 -99h-138l-36 36q-87 -51 -196 -51t-194.5 50t-133 139t-47.5 201t47.5 200.5t133 138.5t194.5 50t194.5 -50t133 -138.5t47.5 -200.5q0 -82 -26 -153zM205.5 236q29.5 -60 83.5 -93t126 -33q55 0 101 20l-161 163h145l97 -100q57 71 57 181
q0 79 -29.5 139t-83.5 93t-126 33t-126 -33t-83.5 -93t-29.5 -139q0 -78 29.5 -138z" />
    <glyph glyph-name="R" unicode="R" horiz-adv-x="625" 
d="M557 418.5q-38 -51.5 -106 -71.5l142 -347h-141l-135 336h-117v-336h-133v750h298q71 0 123 -26.5t79.5 -74t27.5 -108.5q0 -71 -38 -122.5zM200 446h154q53 0 78 27.5t25 69.5t-24.5 69.5t-76.5 27.5h-156v-194z" />
    <glyph glyph-name="S" unicode="S" horiz-adv-x="657" 
d="M120 58.5q-82 72.5 -85 200.5h138q2 -74 48.5 -115.5t125.5 -41.5q66 0 107 30t41 79q0 39 -17 62.5t-55 36.5t-105 19q-131 11 -195 64t-64 151q0 66 33 116t93 77t139 27q130 0 205.5 -63.5t81.5 -179.5h-137q-5 62 -43 95.5t-105 33.5q-62 0 -98.5 -26.5t-36.5 -71.5
q0 -37 17 -59t55.5 -34.5t104.5 -17.5q133 -11 196 -64t63 -156q0 -71 -34.5 -124.5t-99 -82t-150.5 -28.5q-141 0 -223 72.5z" />
    <glyph glyph-name="T" unicode="T" horiz-adv-x="635" 
d="M251 0v640h-221v110h575v-110h-221v-640h-133z" />
    <glyph glyph-name="U" unicode="U" horiz-adv-x="742" 
d="M648.5 135.5q-38.5 -72.5 -110 -111.5t-167.5 -39q-95 0 -166.5 39t-110.5 111.5t-39 170.5v444h133v-453q0 -87 48.5 -139t134.5 -52t134.5 52t48.5 139v453h133v-444q0 -98 -38.5 -170.5z" />
    <glyph glyph-name="V" unicode="V" horiz-adv-x="692" 
d="M258 0l-231 750h140l178 -613h3l177 613h140l-230 -750h-177z" />
    <glyph glyph-name="W" unicode="W" horiz-adv-x="1074" 
d="M911 750h136l-210 -750h-162l-138 511l-138 -511h-161l-211 750h135l155 -580h3l151 546h132l151 -546h3z" />
    <glyph glyph-name="X" unicode="X" horiz-adv-x="641" 
d="M636 0h-155l-160 282l-161 -282h-155l239 395l-225 355h155l147 -252l146 252h155l-225 -355z" />
    <glyph glyph-name="Y" unicode="Y" horiz-adv-x="654" 
d="M631 750l-238 -514v-236h-133v238l-237 512h138l164 -378h3l165 378h138z" />
    <glyph glyph-name="Z" unicode="Z" horiz-adv-x="662" 
d="M33 0v102l430 535v3h-414v110h570v-112l-421 -525v-3h430v-110h-595z" />
    <glyph glyph-name="bracketleft" unicode="[" horiz-adv-x="285" 
d="M251 646h-72v-742h72v-104h-197v950h197v-104z" />
    <glyph glyph-name="backslash" unicode="\" horiz-adv-x="400" 
d="M287 0l-259 750h67l260 -750h-68z" />
    <glyph glyph-name="bracketright" unicode="]" horiz-adv-x="285" 
d="M34 750h197v-950h-197v104h72v742h-72v104z" />
    <glyph glyph-name="asciicircum" unicode="^" horiz-adv-x="523" 
d="M473 228h-110l-103 270l-103 -270h-107l161 400h101z" />
    <glyph glyph-name="underscore" unicode="_" horiz-adv-x="548" 
d="M73 0h402v-87h-402v87z" />
    <glyph glyph-name="grave" unicode="`" horiz-adv-x="333" 
d="M50 754h128l105 -142h-108z" />
    <glyph glyph-name="a" unicode="a" horiz-adv-x="584" 
d="M472 476q42 -37 42 -105v-371h-123v63q-27 -38 -70.5 -58t-100.5 -20q-80 0 -130 44.5t-50 116.5q0 65 38.5 107.5t105.5 50.5l207 26v26q0 47 -45 47h-260v110h265q79 0 121 -37zM336 107q39 24 55 62v65l-158 -22q-33 -5 -50.5 -21.5t-17.5 -44.5q0 -30 22.5 -46.5
t62.5 -16.5q47 0 86 24z" />
    <glyph glyph-name="b" unicode="b" horiz-adv-x="647" 
d="M480 492.5q55 -34.5 86 -96t31 -139.5q0 -79 -31 -141t-86 -96.5t-124 -34.5q-103 0 -160 72v-57h-122v750h122v-294q28 35 68.5 53t91.5 18q69 0 124 -34.5zM433 141.5q37 42.5 37 115.5q0 72 -37 114t-98 42q-49 0 -84 -24t-55 -67v-131q21 -43 56 -67.5t83 -24.5
q61 0 98 42.5z" />
    <glyph glyph-name="c" unicode="c" horiz-adv-x="614" 
d="M483.5 36q-66.5 -51 -162.5 -51q-80 0 -141.5 35t-95.5 97t-34 140t34 139.5t95.5 96t141.5 34.5q96 0 162 -51.5t87 -146.5h-124q-36 86 -125 86q-67 0 -105.5 -43t-38.5 -115q0 -73 38.5 -116t105.5 -43q46 0 76 20.5t48 61.5h125q-20 -93 -86.5 -144z" />
    <glyph glyph-name="d" unicode="d" horiz-adv-x="647" 
d="M573 750v-750h-122v57q-57 -72 -160 -72q-69 0 -124 34.5t-86 96.5t-31 141q0 78 31 139.5t86 96t124 34.5q51 0 91.5 -18t68.5 -53v294h122zM395 123.5q35 24.5 56 67.5v131q-20 43 -55 67t-84 24q-61 0 -98 -42t-37 -114q0 -73 37 -115.5t98 -42.5q48 0 83 24.5z" />
    <glyph glyph-name="e" unicode="e" horiz-adv-x="626" 
d="M578 225h-401q8 -64 44.5 -97.5t100.5 -33.5q42 0 73 15t49 37h131q-14 -44 -52 -81t-91.5 -58.5t-111.5 -21.5q-79 0 -140.5 34.5t-95.5 97t-34 143.5q0 76 34.5 137t95.5 95.5t137 34.5q78 0 137.5 -32.5t92.5 -93t33 -142.5q0 -23 -2 -34zM229 393.5
q-34 -24.5 -47 -71.5h264q-22 96 -130 96q-53 0 -87 -24.5z" />
    <glyph glyph-name="f" unicode="f" horiz-adv-x="425" 
d="M34 403v110h92v96q0 66 40 103.5t120 37.5h159v-110h-148q-46 0 -46 -46v-81h149v-110h-149v-403h-125v403h-92z" />
    <glyph glyph-name="g" unicode="g" horiz-adv-x="643" 
d="M573 513v-528q0 -87 -49.5 -136t-147.5 -49h-219v108h215q38 0 58.5 21.5t20.5 64.5v77q-58 -70 -160 -70q-69 0 -124 33.5t-86 94t-31 136.5t31 135.5t86 93t124 33.5q103 0 160 -69v55h122zM395 136q35 24 56 65v127q-20 41 -55 64.5t-84 23.5q-61 0 -98 -40.5
t-37 -110.5q0 -71 37 -112t98 -41q48 0 83 24z" />
    <glyph glyph-name="h" unicode="h" horiz-adv-x="638" 
d="M517.5 472.5q51.5 -54.5 51.5 -144.5v-328h-125v297q0 53 -26 84.5t-79 31.5q-42 0 -82 -25t-58 -63v-325h-125v750h125v-301q32 38 77.5 58t100.5 20q89 0 140.5 -54.5z" />
    <glyph glyph-name="i" unicode="i" horiz-adv-x="329" 
d="M130 608v142h125v-142h-125zM130 403h-105v110h230v-513h-125v403z" />
    <glyph glyph-name="j" unicode="j" horiz-adv-x="334" 
d="M135 608v142h125v-142h-125zM93 -90q42 0 42 45v448h-107v110h232v-572q0 -66 -39.5 -103.5t-116.5 -37.5h-159v110h148z" />
    <glyph glyph-name="k" unicode="k" horiz-adv-x="568" 
d="M404 0l-148 218h-57v-218h-125v750h125v-431h56l142 194h144l-181 -239l191 -274h-147z" />
    <glyph glyph-name="l" unicode="l" horiz-adv-x="319" 
d="M109.5 37q-37.5 37 -37.5 103v500h-86v110h211v-598q0 -42 39 -42h54v-110h-68q-75 0 -112.5 37z" />
    <glyph glyph-name="m" unicode="m" horiz-adv-x="884" 
d="M773 480q42 -47 42 -124v-356h-118v316q0 44 -22 70.5t-65 26.5q-29 0 -57.5 -16.5t-46.5 -42.5v-354h-118v316q0 44 -21.5 70.5t-65.5 26.5q-32 0 -62.5 -19.5t-47.5 -49.5v-344h-117v513h117v-56q29 33 70.5 51.5t87.5 18.5q49 0 85 -22t55 -62q30 39 74.5 61.5
t95.5 22.5q72 0 114 -47z" />
    <glyph glyph-name="n" unicode="n" horiz-adv-x="638" 
d="M517.5 472.5q51.5 -54.5 51.5 -144.5v-328h-125v297q0 53 -26 84.5t-79 31.5q-42 0 -82 -25t-58 -63v-325h-125v513h125v-64q32 38 77.5 58t100.5 20q89 0 140.5 -54.5z" />
    <glyph glyph-name="o" unicode="o" horiz-adv-x="644" 
d="M180.5 20q-61.5 35 -96 97t-34.5 140t34.5 139.5t96 96t141.5 34.5t142 -34.5t96 -96t34 -139.5t-34 -140t-96 -97t-142 -35t-141.5 35zM428 140.5q39 43.5 39 116.5q0 72 -39 115t-106 43q-68 0 -106.5 -43t-38.5 -115q0 -73 38.5 -116.5t106.5 -43.5q67 0 106 43.5z
" />
    <glyph glyph-name="p" unicode="p" horiz-adv-x="647" 
d="M480 492.5q55 -34.5 86 -96t31 -139.5t-31 -140t-86 -97t-124 -35q-102 0 -160 72v-257h-122v713h122v-57q28 35 68.5 53t91.5 18q69 0 124 -34.5zM433 141.5q37 42.5 37 115.5q0 72 -37 114t-98 42q-49 0 -84 -24t-55 -67v-131q21 -42 56 -67t83 -25q61 0 98 42.5z" />
    <glyph glyph-name="q" unicode="q" horiz-adv-x="647" 
d="M573 513v-713h-122v257q-57 -72 -160 -72q-69 0 -124 34.5t-86 96.5t-31 141q0 78 31 139.5t86 96t124 34.5q51 0 91.5 -18t68.5 -53v57h122zM395 123.5q35 24.5 56 67.5v131q-20 42 -55.5 66.5t-83.5 24.5q-61 0 -98 -42t-37 -114q0 -73 37 -115.5t98 -42.5
q48 0 83 24.5z" />
    <glyph glyph-name="r" unicode="r" horiz-adv-x="422" 
d="M388 513v-110h-63q-46 0 -79 -17t-51 -44v-342h-125v513h125v-75q55 75 142 75h51z" />
    <glyph glyph-name="s" unicode="s" horiz-adv-x="534" 
d="M111 32.5q-62 47.5 -70 126.5h128q8 -33 36 -50.5t73 -17.5q48 0 75.5 16.5t27.5 45.5q0 21 -8 33t-32 19t-71 9q-118 5 -166.5 42t-48.5 109q0 76 57.5 119t159.5 43q97 0 154 -41t69 -112h-125q-22 49 -99 49q-44 0 -69 -14t-25 -39q0 -18 8 -28.5t31 -16t69 -7.5
q82 -3 130 -21.5t68.5 -52.5t20.5 -86q0 -81 -59.5 -127t-164.5 -46q-107 0 -169 47.5z" />
    <glyph glyph-name="t" unicode="t" horiz-adv-x="416" 
d="M139 37.5q-40 37.5 -40 103.5v262h-93v110h93v169h125v-169h164v-110h-164v-246q0 -47 45 -47h119v-110h-129q-80 0 -120 37.5z" />
    <glyph glyph-name="u" unicode="u" horiz-adv-x="627" 
d="M553 513v-513h-125v62q-31 -37 -75.5 -57t-97.5 -20q-86 0 -136 54.5t-50 145.5v328h125v-298q0 -53 25 -84.5t74 -31.5q40 0 79 25t56 63v326h125z" />
    <glyph glyph-name="v" unicode="v" horiz-adv-x="519" 
d="M179 0l-157 513h126l110 -401h3l109 401h127l-157 -513h-161z" />
    <glyph glyph-name="w" unicode="w" horiz-adv-x="791" 
d="M645 513h124l-126 -513h-163l-85 316l-85 -316h-162l-126 513h123l87 -390h3l105 368h111l104 -368h3z" />
    <glyph glyph-name="x" unicode="x" horiz-adv-x="544" 
d="M525 0h-136l-121 177l-113 -177h-136l179 261l-172 252h137l105 -166l106 166h137l-174 -251z" />
    <glyph glyph-name="y" unicode="y" horiz-adv-x="528" 
d="M506 513l-206 -589q-22 -65 -56.5 -94.5t-99.5 -29.5h-99v110h89q25 0 38 10.5t22 34.5l16 45l-188 513h127l117 -357h3l112 357h125z" />
    <glyph glyph-name="z" unicode="z" horiz-adv-x="534" 
d="M41 0v92l291 308v3h-279v110h433v-104l-275 -296v-3h285v-110h-455z" />
    <glyph glyph-name="braceleft" unicode="{" horiz-adv-x="330" 
d="M129 -167.5q-46 32.5 -46 105.5q0 44 11 114q10 74 10 109q0 32 -17 51.5t-47 19.5h-11v89h11q30 0 47 18.5t17 49.5q0 35 -10 107q-11 68 -11 112q0 75 46 108.5t119 33.5h52l1 -88q-42 0 -71.5 -18t-29.5 -62q0 -43 9 -104q8 -62 8 -93q0 -53 -21 -79t-56 -29v-2
q35 -2 56 -28.5t21 -81.5q0 -31 -8 -95q-1 -7 -5 -41t-4 -66q0 -41 29.5 -57.5t71.5 -16.5l-1 -89h-52q-73 0 -119 32.5z" />
    <glyph glyph-name="bar" unicode="|" horiz-adv-x="382" 
d="M141 750h99v-950h-99v950z" />
    <glyph glyph-name="braceright" unicode="}" horiz-adv-x="330" 
d="M29 -111q42 0 71.5 16.5t29.5 57.5q0 32 -4 66t-5 41q-8 64 -8 95q0 55 21 81.5t56 28.5v2q-35 3 -56 29t-21 79q0 31 8 93q9 61 9 104q0 44 -29.5 62t-71.5 18l1 88h52q73 0 119 -33.5t46 -108.5q0 -44 -11 -112q-10 -72 -10 -107q0 -31 16.5 -49.5t47.5 -18.5h11v-89
h-11q-31 0 -47.5 -19.5t-16.5 -51.5q0 -35 10 -109q11 -70 11 -114q0 -73 -46 -105.5t-119 -32.5h-52z" />
    <glyph glyph-name="asciitilde" unicode="~" horiz-adv-x="496" 
d="M416.5 312q-29.5 -35 -86.5 -35q-27 0 -48 10.5t-48 29.5q-21 15 -32 21t-24 6q-38 0 -38 -53h-90q0 73 28.5 110t88.5 37q26 0 45.5 -10t46.5 -29q22 -16 34 -22.5t26 -6.5q38 0 38 54h89q0 -77 -29.5 -112z" />
    <glyph glyph-name="exclamdown" unicode="&#xa1;" horiz-adv-x="264" 
d="M70 370v143h125v-143h-125zM60 -200l30 476h84l30 -476h-144z" />
    <glyph glyph-name="cent" unicode="&#xa2;" horiz-adv-x="614" 
d="M397 118.5q30 20.5 48 61.5h125q-19 -85 -75.5 -135t-139.5 -58v-102h-66v102q-71 7 -125.5 43t-84 95t-29.5 132q0 72 29.5 131t84 95t125.5 42v102h66v-102q83 -8 139.5 -59t75.5 -137h-124q-36 86 -125 86q-67 0 -105.5 -43t-38.5 -115q0 -73 38.5 -116t105.5 -43
q46 0 76 20.5z" />
    <glyph glyph-name="sterling" unicode="&#xa3;" horiz-adv-x="472" 
d="M439 112v-112h-427v112h53v219h-53v104h53v89q0 111 58.5 168.5t167.5 57.5h107v-113h-82q-118 0 -118 -128v-74h135v-104h-135v-219h241z" />
    <glyph glyph-name="currency" unicode="&#xa4;" horiz-adv-x="593" 
d="M471 65l-61 61q-52 -36 -114 -36q-61 0 -114 36l-60 -60l-57 56l61 61q-35 52 -35 112q0 61 37 113l-61 61l57 57l60 -60q53 35 113 35t112 -35l61 61l57 -57l-61 -61q36 -51 36 -113q0 -63 -34 -113l60 -61zM383 209q38 38 38 89q0 52 -36 86q-38 35 -84 35
q-53 0 -91 -37q-18 -18 -27.5 -41.5t-9.5 -47.5q0 -49 36 -85t86 -36q51 0 88 37z" />
    <glyph glyph-name="yen" unicode="&#xa5;" horiz-adv-x="654" 
d="M631 750l-210 -453h132v-60h-160v-58h160v-60h-160v-119h-133v119h-160v60h160v58h-160v60h133l-210 453h138l164 -378h3l165 378h138z" />
    <glyph glyph-name="brokenbar" unicode="&#xa6;" horiz-adv-x="382" 
d="M141 750h99l-6 -402h-86zM148 202h86l6 -402h-99z" />
    <glyph glyph-name="section" unicode="&#xa7;" horiz-adv-x="552" 
d="M506 -42q0 -81 -59.5 -127t-164.5 -46q-107 0 -169 47.5t-70 126.5h128q8 -33 36 -50.5t73 -17.5q48 0 75.5 16.5t27.5 47.5q0 19 -8 30.5t-32 18.5t-71 10q-110 8 -155 46t-45 107q0 55 33 94q-24 18 -35 43.5t-13 60.5q0 76 57.5 119t159.5 43q97 0 154 -41t69 -112
h-125q-22 49 -99 49q-44 0 -69 -14t-25 -39q0 -18 8 -27.5t30.5 -15t69.5 -9.5q111 -9 157.5 -48.5t46.5 -111.5q0 -54 -27 -93q42 -34 42 -107zM212.5 137q18.5 -13 74.5 -19q37 -3 65 -9q16 14 16 43q0 25 -19.5 41t-76.5 21q-36 4 -53 7q-10 -5 -17.5 -17t-7.5 -30
q0 -24 18.5 -37z" />
    <glyph glyph-name="dieresis" unicode="&#xa8;" horiz-adv-x="435" 
d="M50 750h108v-142h-108v142zM278 750h107v-142h-107v142z" />
    <glyph glyph-name="copyright" unicode="&#xa9;" horiz-adv-x="891" 
d="M782 178q-52 -89 -141 -141t-196 -52q-106 0 -195 52t-141 141t-52 196q0 105 52 195t141 142.5t195 52.5q107 0 196 -52.5t141 -142t52 -195.5q0 -107 -52 -196zM194.5 223q38.5 -68 104.5 -107t146 -39t146.5 39t105 107t38.5 151q0 82 -38.5 150t-105 108t-146.5 40
t-146 -40t-104.5 -108t-38.5 -150q0 -83 38.5 -151zM588.5 197.5q-58.5 -49.5 -139.5 -49.5q-63 0 -114 29t-80.5 80.5t-29.5 116.5t29.5 116.5t80.5 80.5t114 29q80 0 139 -48t76 -124h-90q-14 42 -46.5 63.5t-77.5 21.5q-59 0 -96.5 -40t-37.5 -99q0 -58 37.5 -98.5
t96.5 -40.5q45 0 78 23t46 66h90q-17 -77 -75.5 -126.5z" />
    <glyph glyph-name="ordfeminine" unicode="&#xaa;" horiz-adv-x="335" 
d="M144 480q-35 0 -64 18.5t-46.5 51t-17.5 72.5t17.5 72.5t46.5 51t64 18.5q50 0 83 -39v32h75v-270h-75v34q-33 -41 -83 -41zM110.5 570.5q19.5 -20.5 47.5 -20.5q22 0 41 12t28 31v58q-9 19 -28 31t-41 12q-28 0 -47.5 -20.5t-19.5 -51.5t19.5 -51.5zM48 340v69h247v-69
h-247z" />
    <glyph glyph-name="guillemotleft" unicode="&#xab;" horiz-adv-x="548" 
d="M226 244v7l168 200h130l-170 -203l170 -204h-130zM24 244v7l168 200h130l-170 -203l170 -204h-130z" />
    <glyph glyph-name="registered" unicode="&#xae;" horiz-adv-x="656" 
d="M464.5 727.5q62.5 -36.5 98.5 -98.5t36 -135t-36 -135.5t-98.5 -99.5t-136.5 -37t-136.5 37t-98.5 99.5t-36 135.5t36 135t98.5 98.5t136.5 36.5t136.5 -36.5zM427.5 320.5q44.5 26.5 70.5 72.5t26 101q0 54 -26 100t-71 73t-99 27t-98.5 -27t-70.5 -73t-26 -100
q0 -55 26 -100.5t70.5 -72.5t98.5 -27q55 0 99.5 26.5zM424 495.5q-11 -19.5 -32 -30.5l44 -96h-56l-36 85h-2h-48v-85h-53v254h101q44 0 68.5 -24t24.5 -60q0 -24 -11 -43.5zM294 500h44q23 0 34.5 10.5t11.5 28.5q0 39 -45 39h-45v-78z" />
    <glyph glyph-name="macron" unicode="&#xaf;" horiz-adv-x="467" 
d="M50 707h367v-95h-367v95z" />
    <glyph glyph-name="degree" unicode="&#xb0;" horiz-adv-x="315" 
d="M94 513q-31 15 -51.5 45t-20.5 73q0 44 20.5 74t51.5 44.5t63 14.5t63.5 -14.5t52 -44.5t20.5 -74q0 -43 -20.5 -73t-52 -45t-63.5 -15t-63 15zM206 580q20 19 20 51t-20 51t-49 19q-28 0 -48 -19t-20 -51t20 -51t48 -19q29 0 49 19z" />
    <glyph glyph-name="plusminus" unicode="&#xb1;" horiz-adv-x="610" 
d="M347 504h145v-79h-145v-145h-83v145h-146v79h146v150h83v-150zM118 151v80h374v-80h-374z" />
    <glyph glyph-name="two.sups" unicode="&#xb2;" horiz-adv-x="266" 
d="M245 523v-74h-217v45l120 133q11 13 11 29q0 13 -7 20.5t-20 7.5t-20.5 -7t-7.5 -20v-3h-75v3q0 45 26.5 72t76.5 27t78 -26t28 -68q0 -34 -30 -68l-62 -71h99z" />
    <glyph glyph-name="three.sups" unicode="&#xb3;" horiz-adv-x="270" 
d="M241 579q10 -19 10 -40q0 -41 -31.5 -68.5t-83.5 -27.5q-50 0 -81 26t-31 65q0 9 1 14h82v-6q0 -12 8.5 -18.5t21.5 -6.5t21.5 7t8.5 21t-8.5 22.5t-22.5 8.5h-9v63h9q12 0 19.5 7t7.5 19t-7 19t-19 7t-19 -7t-7 -19v-6h-75v14q0 37 27 60t73 23t74 -24.5t28 -63.5
q0 -34 -25 -57q18 -13 28 -32z" />
    <glyph glyph-name="acute" unicode="&#xb4;" horiz-adv-x="333" 
d="M155 754h128l-126 -142h-107z" />
    <glyph glyph-name="paragraph" unicode="&#xb6;" horiz-adv-x="735" 
d="M671 682h-92v-882h-91v882h-80v-882h-91v490h-19q-74 0 -132 28t-90.5 79t-32.5 119q0 107 66.5 170.5t202.5 63.5h359v-68z" />
    <glyph glyph-name="periodcentered" unicode="&#xb7;" horiz-adv-x="234" 
d="M58 223v145h118v-145h-118z" />
    <glyph glyph-name="cedilla" unicode="&#xb8;" horiz-adv-x="271" 
d="M84 -114q41 0 41 38v97h96v-110q0 -55 -29 -83t-85 -28h-57v86h34z" />
    <glyph glyph-name="one.sups" unicode="&#xb9;" horiz-adv-x="207" 
d="M105 750h72v-301h-83v214l-73 -38v79z" />
    <glyph glyph-name="ordmasculine" unicode="&#xba;" horiz-adv-x="343" 
d="M63 520.5q-42 40.5 -42 101.5q0 40 19 72.5t53 51t76 18.5q43 0 77 -18.5t53 -51t19 -72.5q0 -61 -42 -101.5t-107 -40.5q-64 0 -106 40.5zM223 570q21 21 21 52t-21 51.5t-54 20.5q-32 0 -53 -20.5t-21 -51.5t21 -52t53 -21q33 0 54 21zM47 409h243v-69h-243v69z" />
    <glyph glyph-name="guillemotright" unicode="&#xbb;" horiz-adv-x="548" 
d="M226 44l170 204l-170 203h130l168 -200v-7l-168 -200h-130zM24 44l170 204l-170 203h130l168 -200v-7l-168 -200h-130z" />
    <glyph glyph-name="onequarter" unicode="&#xbc;" horiz-adv-x="574" 
d="M138 750h72v-301h-83v214l-73 -38v79zM500 750h76l-491 -750h-76zM556 136v-63h-33v-73h-87v73h-131v59l131 169h87v-165h33zM377 136h59v75z" />
    <glyph glyph-name="onehalf" unicode="&#xbd;" horiz-adv-x="591" 
d="M138 750h72v-301h-83v214l-73 -38v79zM500 750h76l-491 -750h-76zM570 74v-74h-217v45l120 133q11 13 11 29q0 13 -7 20.5t-20 7.5t-20.5 -7t-7.5 -20v-3h-75v3q0 45 26.5 72t76.5 27t78 -26t28 -68q0 -34 -30 -68l-62 -71h99z" />
    <glyph glyph-name="threequarters" unicode="&#xbe;" horiz-adv-x="604" 
d="M241 579q10 -19 10 -40q0 -41 -31.5 -68.5t-83.5 -27.5q-50 0 -81 26t-31 65q0 9 1 14h82v-6q0 -12 8.5 -18.5t21.5 -6.5t21.5 7t8.5 21t-8.5 22.5t-22.5 8.5h-9v63h9q12 0 19.5 7t7.5 19t-7 19t-19 7t-19 -7t-7 -19v-6h-75v14q0 37 27 60t73 23t74 -24.5t28 -63.5
q0 -34 -25 -57q18 -13 28 -32zM530 750h76l-491 -750h-76zM586 136v-63h-33v-73h-87v73h-131v59l131 169h87v-165h33zM407 136h59v75z" />
    <glyph glyph-name="questiondown" unicode="&#xbf;" horiz-adv-x="569" 
d="M363 513v-126h-125v126h125zM517 27v-13q0 -63 -29 -115.5t-84 -83t-128 -30.5q-72 0 -125 30.5t-80.5 78.5t-27.5 100q0 45 15.5 79.5t40.5 60t66 57.5l73 55v46h125v-93l-131 -96q-28 -21 -43 -44.5t-15 -55.5q0 -39 28 -70t78 -31q53 0 83 33t30 79v13h124z" />
    <glyph glyph-name="Agrave" unicode="&#xc0;" horiz-adv-x="701" 
d="M536 0l-57 191h-257l-58 -191h-137l236 750h176l235 -750h-138zM255 301h191l-94 313h-3zM156 871v62l309 -42v-62z" />
    <glyph glyph-name="Aacute" unicode="&#xc1;" horiz-adv-x="701" 
d="M536 0l-57 191h-257l-58 -191h-137l236 750h176l235 -750h-138zM255 301h191l-94 313h-3zM234 891l309 42v-62l-309 -42v62z" />
    <glyph glyph-name="Acircumflex" unicode="&#xc2;" horiz-adv-x="701" 
d="M536 0l-57 191h-257l-58 -191h-137l236 750h176l235 -750h-138zM255 301h191l-94 313h-3zM485 897v-60l-132 39l-136 -39v60l134 41h3z" />
    <glyph glyph-name="Atilde" unicode="&#xc3;" horiz-adv-x="701" 
d="M536 0l-57 191h-257l-58 -191h-137l236 750h176l235 -750h-138zM255 301h191l-94 313h-3zM192 908h318v-60h-318v60z" />
    <glyph glyph-name="Adieresis" unicode="&#xc4;" horiz-adv-x="701" 
d="M536 0l-57 191h-257l-58 -191h-137l236 750h176l235 -750h-138zM255 301h191l-94 313h-3zM162 908h145v-60h-145v60zM394 908h145v-60h-145v60z" />
    <glyph glyph-name="Aring" unicode="&#xc5;" horiz-adv-x="701" 
d="M536 0l-57 191h-257l-58 -191h-137l236 750h176l235 -750h-138zM255 301h191l-94 313h-3zM277.5 842q-25.5 16 -25.5 45q0 30 26 46t72 16t72.5 -16t26.5 -46q0 -29 -26.5 -45t-72.5 -16q-47 0 -72.5 16zM405 887q0 13 -14.5 18.5t-40.5 5.5q-54 0 -54 -24q0 -23 54 -23
q55 0 55 23z" />
    <glyph glyph-name="AE" unicode="&#xc6;" horiz-adv-x="931" 
d="M583 110h311v-110h-444v191h-202l-84 -191h-137l341 750h513v-110h-298v-186h254v-110h-254v-234zM297 301h153v339h-3z" />
    <glyph glyph-name="Ccedilla" unicode="&#xc7;" horiz-adv-x="803" 
d="M631 279h134q-23 -119 -97.5 -194t-186.5 -94v-80q0 -55 -29 -83t-85 -28h-57v86h34q41 0 41 38v62q-101 6 -179.5 57t-122 137.5t-43.5 194.5q0 113 47 201.5t131 138t192 49.5q138 0 232 -76t123 -210h-136q-28 80 -81 120.5t-138 40.5q-71 0 -124 -33t-81.5 -93
t-28.5 -139t28.5 -138.5t81.5 -92.5t124 -33q172 0 221 169z" />
    <glyph glyph-name="Egrave" unicode="&#xc8;" horiz-adv-x="588" 
d="M200 110h351v-110h-484v750h471v-110h-338v-186h294v-110h-294v-234zM139 871v62l309 -42v-62z" />
    <glyph glyph-name="Eacute" unicode="&#xc9;" horiz-adv-x="588" 
d="M200 110h351v-110h-484v750h471v-110h-338v-186h294v-110h-294v-234zM164 891l309 42v-62l-309 -42v62z" />
    <glyph glyph-name="Ecircumflex" unicode="&#xca;" horiz-adv-x="588" 
d="M200 110h351v-110h-484v750h471v-110h-338v-186h294v-110h-294v-234zM447 897v-60l-132 39l-136 -39v60l134 41h3z" />
    <glyph glyph-name="Edieresis" unicode="&#xcb;" horiz-adv-x="588" 
d="M200 110h351v-110h-484v750h471v-110h-338v-186h294v-110h-294v-234zM105 908h145v-60h-145v60zM337 908h145v-60h-145v60z" />
    <glyph glyph-name="Igrave" unicode="&#xcc;" horiz-adv-x="265" 
d="M9 835v59l225 -41v-59zM67 750h131v-750h-131v750z" />
    <glyph glyph-name="Iacute" unicode="&#xcd;" horiz-adv-x="265" 
d="M36 853l220 42v-60l-220 -41v59zM67 750h131v-750h-131v750z" />
    <glyph glyph-name="Icircumflex" unicode="&#xce;" horiz-adv-x="265" 
d="M67 750h131v-750h-131v750zM267 897v-60l-132 39l-136 -39v60l134 41h3z" />
    <glyph glyph-name="Idieresis" unicode="&#xcf;" horiz-adv-x="265" 
d="M-13 870h108v-57h-108v57zM170 870h108v-57h-108v57zM67 750h131v-750h-131v750z" />
    <glyph glyph-name="Eth" unicode="&#xd0;" horiz-adv-x="725" 
d="M509 703q86 -47 131 -131.5t45 -195.5t-45.5 -196.5t-130.5 -132.5t-202 -47h-240v354h-63v59h63v337h239q117 0 203 -47zM490 191.5q61 70.5 61 184.5q0 113 -61.5 184t-185.5 71h-107v-218h151v-59h-151v-233h108q124 0 185 70.5z" />
    <glyph glyph-name="Ntilde" unicode="&#xd1;" horiz-adv-x="728" 
d="M67 0v750h138l327 -535h3v535h126v-750h-138l-327 535h-3v-535h-126zM205 908h318v-60h-318v60z" />
    <glyph glyph-name="Ograve" unicode="&#xd2;" horiz-adv-x="830" 
d="M220.5 35q-85.5 50 -133 139t-47.5 201t47.5 200.5t133 138.5t194.5 50t194.5 -50t133 -138.5t47.5 -200.5t-47.5 -201t-133 -139t-194.5 -50t-194.5 50zM541 143q54 33 83.5 93t29.5 138q0 79 -29.5 139t-83.5 93t-126 33t-126 -33t-83.5 -93t-29.5 -139
q0 -78 29.5 -138t83.5 -93t126 -33t126 33zM260 871v62l309 -42v-62z" />
    <glyph glyph-name="Oacute" unicode="&#xd3;" horiz-adv-x="830" 
d="M220.5 35q-85.5 50 -133 139t-47.5 201t47.5 200.5t133 138.5t194.5 50t194.5 -50t133 -138.5t47.5 -200.5t-47.5 -201t-133 -139t-194.5 -50t-194.5 50zM541 143q54 33 83.5 93t29.5 138q0 79 -29.5 139t-83.5 93t-126 33t-126 -33t-83.5 -93t-29.5 -139
q0 -78 29.5 -138t83.5 -93t126 -33t126 33zM260 891l309 42v-62l-309 -42v62z" />
    <glyph glyph-name="Ocircumflex" unicode="&#xd4;" horiz-adv-x="830" 
d="M220.5 35q-85.5 50 -133 139t-47.5 201t47.5 200.5t133 138.5t194.5 50t194.5 -50t133 -138.5t47.5 -200.5t-47.5 -201t-133 -139t-194.5 -50t-194.5 50zM541 143q54 33 83.5 93t29.5 138q0 79 -29.5 139t-83.5 93t-126 33t-126 -33t-83.5 -93t-29.5 -139
q0 -78 29.5 -138t83.5 -93t126 -33t126 33zM549 897v-60l-132 39l-136 -39v60l134 41h3z" />
    <glyph glyph-name="Otilde" unicode="&#xd5;" horiz-adv-x="830" 
d="M220.5 35q-85.5 50 -133 139t-47.5 201t47.5 200.5t133 138.5t194.5 50t194.5 -50t133 -138.5t47.5 -200.5t-47.5 -201t-133 -139t-194.5 -50t-194.5 50zM541 143q54 33 83.5 93t29.5 138q0 79 -29.5 139t-83.5 93t-126 33t-126 -33t-83.5 -93t-29.5 -139
q0 -78 29.5 -138t83.5 -93t126 -33t126 33zM256 908h318v-60h-318v60z" />
    <glyph glyph-name="Odieresis" unicode="&#xd6;" horiz-adv-x="830" 
d="M220.5 35q-85.5 50 -133 139t-47.5 201t47.5 200.5t133 138.5t194.5 50t194.5 -50t133 -138.5t47.5 -200.5t-47.5 -201t-133 -139t-194.5 -50t-194.5 50zM541 143q54 33 83.5 93t29.5 138q0 79 -29.5 139t-83.5 93t-126 33t-126 -33t-83.5 -93t-29.5 -139
q0 -78 29.5 -138t83.5 -93t126 -33t126 33zM226 908h145v-60h-145v60zM458 908h145v-60h-145v60z" />
    <glyph glyph-name="multiply" unicode="&#xd7;" horiz-adv-x="609" 
d="M478 473l-111 -111l111 -112l-62 -61l-111 111l-112 -112l-61 62l112 112l-112 111l61 62l112 -112l111 111z" />
    <glyph glyph-name="Oslash" unicode="&#xd8;" horiz-adv-x="830" 
d="M699 639q44 -52 67.5 -119t23.5 -145q0 -112 -47.5 -201t-133 -139t-194.5 -50q-135 0 -234 77l-55 -62h-95l99 111q-43 52 -66.5 119t-23.5 145q0 112 47.5 200.5t133 138.5t194.5 50q67 0 126.5 -19.5t106.5 -56.5l56 62h95zM220 210l342 382q-61 47 -147 47
q-72 0 -126 -33t-83.5 -93t-29.5 -139q0 -95 44 -164zM610 539l-342 -381q60 -48 147 -48q72 0 126 33t83.5 93t29.5 138q0 96 -44 165z" />
    <glyph glyph-name="Ugrave" unicode="&#xd9;" horiz-adv-x="742" 
d="M648.5 135.5q-38.5 -72.5 -110 -111.5t-167.5 -39q-95 0 -166.5 39t-110.5 111.5t-39 170.5v444h133v-453q0 -87 48.5 -139t134.5 -52t134.5 52t48.5 139v453h133v-444q0 -98 -38.5 -170.5zM192 871v62l309 -42v-62z" />
    <glyph glyph-name="Uacute" unicode="&#xda;" horiz-adv-x="742" 
d="M648.5 135.5q-38.5 -72.5 -110 -111.5t-167.5 -39q-95 0 -166.5 39t-110.5 111.5t-39 170.5v444h133v-453q0 -87 48.5 -139t134.5 -52t134.5 52t48.5 139v453h133v-444q0 -98 -38.5 -170.5zM234 891l309 42v-62l-309 -42v62z" />
    <glyph glyph-name="Ucircumflex" unicode="&#xdb;" horiz-adv-x="742" 
d="M648.5 135.5q-38.5 -72.5 -110 -111.5t-167.5 -39q-95 0 -166.5 39t-110.5 111.5t-39 170.5v444h133v-453q0 -87 48.5 -139t134.5 -52t134.5 52t48.5 139v453h133v-444q0 -98 -38.5 -170.5zM505 897v-60l-132 39l-136 -39v60l134 41h3z" />
    <glyph glyph-name="Udieresis" unicode="&#xdc;" horiz-adv-x="742" 
d="M648.5 135.5q-38.5 -72.5 -110 -111.5t-167.5 -39q-95 0 -166.5 39t-110.5 111.5t-39 170.5v444h133v-453q0 -87 48.5 -139t134.5 -52t134.5 52t48.5 139v453h133v-444q0 -98 -38.5 -170.5zM182 908h145v-60h-145v60zM414 908h145v-60h-145v60z" />
    <glyph glyph-name="Yacute" unicode="&#xdd;" horiz-adv-x="654" 
d="M631 750l-238 -514v-236h-133v238l-237 512h138l164 -378h3l165 378h138zM201 891l309 42v-62l-309 -42v62z" />
    <glyph glyph-name="Thorn" unicode="&#xde;" horiz-adv-x="649" 
d="M497.5 596q61.5 -31 94 -86.5t32.5 -128.5t-32.5 -129.5t-93.5 -87.5t-145 -31h-153v-133h-133v750h133v-123h152q84 0 145.5 -31zM451 282q37 39 37 99q0 58 -36.5 97t-111.5 39h-140v-274h138q76 0 113 39z" />
    <glyph glyph-name="germandbls" unicode="&#xdf;" horiz-adv-x="711" 
d="M649.5 341.5q36.5 -53.5 36.5 -122.5q0 -110 -64 -172t-178 -62q-94 0 -153.5 49.5t-67.5 128.5h138q9 -32 33 -50t56 -18q46 0 72 32.5t26 91.5q0 60 -33.5 98t-113.5 38h-117v111h99q66 0 92.5 26.5t26.5 66.5t-29 66.5t-88 26.5h-64q-65 0 -100 -38.5t-35 -103.5v-568
q0 -67 -40.5 -104.5t-121.5 -37.5h-63v100h55q45 0 45 46v562q0 116 66.5 186t190.5 70h75q69 0 121.5 -25.5t81 -69.5t28.5 -98q0 -49 -21.5 -88.5t-61.5 -62.5q72 -25 108.5 -78.5z" />
    <glyph glyph-name="agrave" unicode="&#xe0;" horiz-adv-x="584" 
d="M472 476q42 -37 42 -105v-371h-123v63q-27 -38 -70.5 -58t-100.5 -20q-80 0 -130 44.5t-50 116.5q0 65 38.5 107.5t105.5 50.5l207 26v26q0 47 -45 47h-260v110h265q79 0 121 -37zM336 107q39 24 55 62v65l-158 -22q-33 -5 -50.5 -21.5t-17.5 -44.5q0 -30 22.5 -46.5
t62.5 -16.5q47 0 86 24zM115 754h128l105 -142h-108z" />
    <glyph glyph-name="aacute" unicode="&#xe1;" horiz-adv-x="584" 
d="M472 476q42 -37 42 -105v-371h-123v63q-27 -38 -70.5 -58t-100.5 -20q-80 0 -130 44.5t-50 116.5q0 65 38.5 107.5t105.5 50.5l207 26v26q0 47 -45 47h-260v110h265q79 0 121 -37zM336 107q39 24 55 62v65l-158 -22q-33 -5 -50.5 -21.5t-17.5 -44.5q0 -30 22.5 -46.5
t62.5 -16.5q47 0 86 24zM330 754h128l-126 -142h-107z" />
    <glyph glyph-name="acircumflex" unicode="&#xe2;" horiz-adv-x="584" 
d="M472 476q42 -37 42 -105v-371h-123v63q-27 -38 -70.5 -58t-100.5 -20q-80 0 -130 44.5t-50 116.5q0 65 38.5 107.5t105.5 50.5l207 26v26q0 47 -45 47h-260v110h265q79 0 121 -37zM336 107q39 24 55 62v65l-158 -22q-33 -5 -50.5 -21.5t-17.5 -44.5q0 -30 22.5 -46.5
t62.5 -16.5q47 0 86 24zM453 612h-113l-51 60l-52 -60h-107l115 142h93z" />
    <glyph glyph-name="atilde" unicode="&#xe3;" horiz-adv-x="584" 
d="M472 476q42 -37 42 -105v-371h-123v63q-27 -38 -70.5 -58t-100.5 -20q-80 0 -130 44.5t-50 116.5q0 65 38.5 107.5t105.5 50.5l207 26v26q0 47 -45 47h-260v110h265q79 0 121 -37zM336 107q39 24 55 62v65l-158 -22q-33 -5 -50.5 -21.5t-17.5 -44.5q0 -30 22.5 -46.5
t62.5 -16.5q47 0 86 24zM108 707h367v-95h-367v95z" />
    <glyph glyph-name="adieresis" unicode="&#xe4;" horiz-adv-x="584" 
d="M472 476q42 -37 42 -105v-371h-123v63q-27 -38 -70.5 -58t-100.5 -20q-80 0 -130 44.5t-50 116.5q0 65 38.5 107.5t105.5 50.5l207 26v26q0 47 -45 47h-260v110h265q79 0 121 -37zM336 107q39 24 55 62v65l-158 -22q-33 -5 -50.5 -21.5t-17.5 -44.5q0 -30 22.5 -46.5
t62.5 -16.5q47 0 86 24zM124 750h108v-142h-108v142zM352 750h107v-142h-107v142z" />
    <glyph glyph-name="aring" unicode="&#xe5;" horiz-adv-x="584" 
d="M472 476q42 -37 42 -105v-371h-123v63q-27 -38 -70.5 -58t-100.5 -20q-80 0 -130 44.5t-50 116.5q0 65 38.5 107.5t105.5 50.5l207 26v26q0 47 -45 47h-260v110h265q79 0 121 -37zM336 107q39 24 55 62v65l-158 -22q-33 -5 -50.5 -21.5t-17.5 -44.5q0 -30 22.5 -46.5
t62.5 -16.5q47 0 86 24zM224 623.5q-28 27.5 -28 67.5q0 39 28 67t68 28q39 0 67 -28t28 -67q0 -40 -28 -67.5t-67 -27.5q-40 0 -68 27.5zM318.5 665q11.5 11 11.5 26t-11.5 25.5t-26.5 10.5q-16 0 -27 -10t-11 -26t11 -26.5t27 -10.5q15 0 26.5 11z" />
    <glyph glyph-name="ae" unicode="&#xe6;" horiz-adv-x="965" 
d="M917 225h-401q8 -64 44.5 -97.5t100.5 -33.5q42 0 73 15t49 37h131q-14 -44 -52 -81t-91.5 -58.5t-111.5 -21.5q-65 0 -118 28t-86 79q-78 -107 -232 -107q-82 0 -132.5 44.5t-50.5 116.5q0 65 38.5 107.5t105.5 50.5l207 26v26q0 47 -45 47h-260v110h265q95 0 137 -54
q33 33 76 50.5t92 17.5q78 0 137.5 -32.5t92.5 -93t33 -142.5q0 -23 -2 -34zM568 393.5q-34 -24.5 -47 -71.5h264q-22 96 -130 96q-53 0 -87 -24.5zM336 107q39 24 55 62v65l-158 -22q-33 -5 -50.5 -21.5t-17.5 -44.5q0 -30 22.5 -46.5t62.5 -16.5q47 0 86 24z" />
    <glyph glyph-name="ccedilla" unicode="&#xe7;" horiz-adv-x="614" 
d="M397 118.5q30 20.5 48 61.5h125q-17 -79 -67.5 -127.5t-125.5 -62.5v-79q0 -55 -29 -83t-85 -28h-57v86h34q41 0 41 38v63q-69 9 -121.5 45.5t-81 94.5t-28.5 130q0 78 34 139.5t95.5 96t141.5 34.5q96 0 162 -51.5t87 -146.5h-124q-36 86 -125 86q-67 0 -105.5 -43
t-38.5 -115q0 -73 38.5 -116t105.5 -43q46 0 76 20.5z" />
    <glyph glyph-name="egrave" unicode="&#xe8;" horiz-adv-x="626" 
d="M578 225h-401q8 -64 44.5 -97.5t100.5 -33.5q42 0 73 15t49 37h131q-14 -44 -52 -81t-91.5 -58.5t-111.5 -21.5q-79 0 -140.5 34.5t-95.5 97t-34 143.5q0 76 34.5 137t95.5 95.5t137 34.5q78 0 137.5 -32.5t92.5 -93t33 -142.5q0 -23 -2 -34zM229 393.5
q-34 -24.5 -47 -71.5h264q-22 96 -130 96q-53 0 -87 -24.5zM140 754h128l105 -142h-108z" />
    <glyph glyph-name="eacute" unicode="&#xe9;" horiz-adv-x="626" 
d="M578 225h-401q8 -64 44.5 -97.5t100.5 -33.5q42 0 73 15t49 37h131q-14 -44 -52 -81t-91.5 -58.5t-111.5 -21.5q-79 0 -140.5 34.5t-95.5 97t-34 143.5q0 76 34.5 137t95.5 95.5t137 34.5q78 0 137.5 -32.5t92.5 -93t33 -142.5q0 -23 -2 -34zM229 393.5
q-34 -24.5 -47 -71.5h264q-22 96 -130 96q-53 0 -87 -24.5zM355 754h128l-126 -142h-107z" />
    <glyph glyph-name="ecircumflex" unicode="&#xea;" horiz-adv-x="626" 
d="M578 225h-401q8 -64 44.5 -97.5t100.5 -33.5q42 0 73 15t49 37h131q-14 -44 -52 -81t-91.5 -58.5t-111.5 -21.5q-79 0 -140.5 34.5t-95.5 97t-34 143.5q0 76 34.5 137t95.5 95.5t137 34.5q78 0 137.5 -32.5t92.5 -93t33 -142.5q0 -23 -2 -34zM229 393.5
q-34 -24.5 -47 -71.5h264q-22 96 -130 96q-53 0 -87 -24.5zM478 612h-113l-51 60l-52 -60h-107l115 142h93z" />
    <glyph glyph-name="edieresis" unicode="&#xeb;" horiz-adv-x="626" 
d="M578 225h-401q8 -64 44.5 -97.5t100.5 -33.5q42 0 73 15t49 37h131q-14 -44 -52 -81t-91.5 -58.5t-111.5 -21.5q-79 0 -140.5 34.5t-95.5 97t-34 143.5q0 76 34.5 137t95.5 95.5t137 34.5q78 0 137.5 -32.5t92.5 -93t33 -142.5q0 -23 -2 -34zM229 393.5
q-34 -24.5 -47 -71.5h264q-22 96 -130 96q-53 0 -87 -24.5zM149 750h108v-142h-108v142zM377 750h107v-142h-107v142z" />
    <glyph glyph-name="igrave" unicode="&#xec;" horiz-adv-x="329" 
d="M130 403h-105v110h230v-513h-125v403zM-45 754h128l105 -142h-108z" />
    <glyph glyph-name="iacute" unicode="&#xed;" horiz-adv-x="329" 
d="M130 403h-105v110h230v-513h-125v403zM170 754h128l-126 -142h-107z" />
    <glyph glyph-name="icircumflex" unicode="&#xee;" horiz-adv-x="329" 
d="M130 403h-105v110h230v-513h-125v403zM293 612h-113l-51 60l-52 -60h-107l115 142h93z" />
    <glyph glyph-name="idieresis" unicode="&#xef;" horiz-adv-x="329" 
d="M6 750h98v-142h-98v142zM161 750h98v-142h-98v142zM130 403h-105v110h230v-513h-125v403z" />
    <glyph glyph-name="eth" unicode="&#xf0;" horiz-adv-x="635" 
d="M550 454q44 -93 44 -196q0 -78 -34 -140.5t-96 -97.5t-142 -35t-141.5 35t-96 97t-34.5 140t34.5 139.5t96 96t141.5 34.5q50 0 92 -20q-39 51 -84 94l-171 -36v67l110 23q-70 57 -142 95h162q45 -27 93 -71l139 30v-67l-84 -18q69 -77 113 -170zM428 140.5
q39 43.5 39 116.5q0 72 -39 115t-106 43q-68 0 -106.5 -43t-38.5 -115q0 -73 38.5 -116.5t106.5 -43.5q67 0 106 43.5z" />
    <glyph glyph-name="ntilde" unicode="&#xf1;" horiz-adv-x="638" 
d="M517.5 472.5q51.5 -54.5 51.5 -144.5v-328h-125v297q0 53 -26 84.5t-79 31.5q-42 0 -82 -25t-58 -63v-325h-125v513h125v-64q32 38 77.5 58t100.5 20q89 0 140.5 -54.5zM144 707h367v-95h-367v95z" />
    <glyph glyph-name="ograve" unicode="&#xf2;" horiz-adv-x="644" 
d="M180.5 20q-61.5 35 -96 97t-34.5 140t34.5 139.5t96 96t141.5 34.5t142 -34.5t96 -96t34 -139.5t-34 -140t-96 -97t-142 -35t-141.5 35zM428 140.5q39 43.5 39 116.5q0 72 -39 115t-106 43q-68 0 -106.5 -43t-38.5 -115q0 -73 38.5 -116.5t106.5 -43.5q67 0 106 43.5z
M145 754h128l105 -142h-108z" />
    <glyph glyph-name="oacute" unicode="&#xf3;" horiz-adv-x="644" 
d="M180.5 20q-61.5 35 -96 97t-34.5 140t34.5 139.5t96 96t141.5 34.5t142 -34.5t96 -96t34 -139.5t-34 -140t-96 -97t-142 -35t-141.5 35zM428 140.5q39 43.5 39 116.5q0 72 -39 115t-106 43q-68 0 -106.5 -43t-38.5 -115q0 -73 38.5 -116.5t106.5 -43.5q67 0 106 43.5z
M360 754h128l-126 -142h-107z" />
    <glyph glyph-name="ocircumflex" unicode="&#xf4;" horiz-adv-x="644" 
d="M180.5 20q-61.5 35 -96 97t-34.5 140t34.5 139.5t96 96t141.5 34.5t142 -34.5t96 -96t34 -139.5t-34 -140t-96 -97t-142 -35t-141.5 35zM428 140.5q39 43.5 39 116.5q0 72 -39 115t-106 43q-68 0 -106.5 -43t-38.5 -115q0 -73 38.5 -116.5t106.5 -43.5q67 0 106 43.5z
M483 612h-113l-51 60l-52 -60h-107l115 142h93z" />
    <glyph glyph-name="otilde" unicode="&#xf5;" horiz-adv-x="644" 
d="M180.5 20q-61.5 35 -96 97t-34.5 140t34.5 139.5t96 96t141.5 34.5t142 -34.5t96 -96t34 -139.5t-34 -140t-96 -97t-142 -35t-141.5 35zM428 140.5q39 43.5 39 116.5q0 72 -39 115t-106 43q-68 0 -106.5 -43t-38.5 -115q0 -73 38.5 -116.5t106.5 -43.5q67 0 106 43.5z
M138 707h367v-95h-367v95z" />
    <glyph glyph-name="odieresis" unicode="&#xf6;" horiz-adv-x="644" 
d="M180.5 20q-61.5 35 -96 97t-34.5 140t34.5 139.5t96 96t141.5 34.5t142 -34.5t96 -96t34 -139.5t-34 -140t-96 -97t-142 -35t-141.5 35zM428 140.5q39 43.5 39 116.5q0 72 -39 115t-106 43q-68 0 -106.5 -43t-38.5 -115q0 -73 38.5 -116.5t106.5 -43.5q67 0 106 43.5z
M154 750h108v-142h-108v142zM382 750h107v-142h-107v142z" />
    <glyph glyph-name="divide" unicode="&#xf7;" horiz-adv-x="610" 
d="M247 473v145h117v-145h-117zM104 402h402v-82h-402v82zM247 104v145h117v-145h-117z" />
    <glyph glyph-name="oslash" unicode="&#xf8;" horiz-adv-x="644" 
d="M530 439q31 -36 47.5 -82t16.5 -100q0 -78 -34 -140t-96 -97t-142 -35q-99 0 -169 53l-36 -38h-73l70 74q-31 35 -47.5 82t-16.5 101q0 78 34.5 139.5t96 96t141.5 34.5q98 0 169 -52l35 38h74zM198 164l211 225q-35 26 -87 26q-68 0 -106.5 -43t-38.5 -115q0 -54 21 -93
zM445 348l-211 -224q37 -27 88 -27q67 0 106 43.5t39 116.5q0 52 -22 91z" />
    <glyph glyph-name="ugrave" unicode="&#xf9;" horiz-adv-x="627" 
d="M553 513v-513h-125v62q-31 -37 -75.5 -57t-97.5 -20q-86 0 -136 54.5t-50 145.5v328h125v-298q0 -53 25 -84.5t74 -31.5q40 0 79 25t56 63v326h125zM133 754h128l105 -142h-108z" />
    <glyph glyph-name="uacute" unicode="&#xfa;" horiz-adv-x="627" 
d="M553 513v-513h-125v62q-31 -37 -75.5 -57t-97.5 -20q-86 0 -136 54.5t-50 145.5v328h125v-298q0 -53 25 -84.5t74 -31.5q40 0 79 25t56 63v326h125zM348 754h128l-126 -142h-107z" />
    <glyph glyph-name="ucircumflex" unicode="&#xfb;" horiz-adv-x="627" 
d="M553 513v-513h-125v62q-31 -37 -75.5 -57t-97.5 -20q-86 0 -136 54.5t-50 145.5v328h125v-298q0 -53 25 -84.5t74 -31.5q40 0 79 25t56 63v326h125zM471 612h-113l-51 60l-52 -60h-107l115 142h93z" />
    <glyph glyph-name="udieresis" unicode="&#xfc;" horiz-adv-x="627" 
d="M553 513v-513h-125v62q-31 -37 -75.5 -57t-97.5 -20q-86 0 -136 54.5t-50 145.5v328h125v-298q0 -53 25 -84.5t74 -31.5q40 0 79 25t56 63v326h125zM142 750h108v-142h-108v142zM370 750h107v-142h-107v142z" />
    <glyph glyph-name="yacute" unicode="&#xfd;" horiz-adv-x="528" 
d="M506 513l-206 -589q-22 -65 -56.5 -94.5t-99.5 -29.5h-99v110h89q25 0 38 10.5t22 34.5l16 45l-188 513h127l117 -357h3l112 357h125zM302 754h128l-126 -142h-107z" />
    <glyph glyph-name="thorn" unicode="&#xfe;" horiz-adv-x="647" 
d="M480 492.5q55 -34.5 86 -96t31 -139.5t-31 -140t-86 -97t-124 -35q-102 0 -160 72v-257h-122v950h122v-294q28 35 68.5 53t91.5 18q69 0 124 -34.5zM433 141.5q37 42.5 37 115.5q0 72 -37 114t-98 42q-49 0 -84 -24t-55 -67v-131q21 -42 56 -67t83 -25q61 0 98 42.5z" />
    <glyph glyph-name="ydieresis" unicode="&#xff;" horiz-adv-x="528" 
d="M506 513l-206 -589q-22 -65 -56.5 -94.5t-99.5 -29.5h-99v110h89q25 0 38 10.5t22 34.5l16 45l-188 513h127l117 -357h3l112 357h125zM96 750h108v-142h-108v142zM324 750h107v-142h-107v142z" />
    <glyph glyph-name="Amacron" unicode="&#x100;" horiz-adv-x="701" 
d="M536 0l-57 191h-257l-58 -191h-137l236 750h176l235 -750h-138zM255 301h191l-94 313h-3zM192 908h318v-60h-318v60z" />
    <glyph glyph-name="amacron" unicode="&#x101;" horiz-adv-x="584" 
d="M472 476q42 -37 42 -105v-371h-123v63q-27 -38 -70.5 -58t-100.5 -20q-80 0 -130 44.5t-50 116.5q0 65 38.5 107.5t105.5 50.5l207 26v26q0 47 -45 47h-260v110h265q79 0 121 -37zM336 107q39 24 55 62v65l-158 -22q-33 -5 -50.5 -21.5t-17.5 -44.5q0 -30 22.5 -46.5
t62.5 -16.5q47 0 86 24zM108 707h367v-95h-367v95z" />
    <glyph glyph-name="Abreve" unicode="&#x102;" horiz-adv-x="701" 
d="M536 0l-57 191h-257l-58 -191h-137l236 750h176l235 -750h-138zM255 301h191l-94 313h-3zM234.5 863.5q-17.5 18.5 -17.5 51.5v25h54v-14q0 -13 5.5 -18.5t18.5 -5.5h111q13 0 19 5.5t6 18.5v14h54v-25q0 -33 -19 -51.5t-53 -18.5h-125q-36 0 -53.5 18.5z" />
    <glyph glyph-name="abreve" unicode="&#x103;" horiz-adv-x="584" 
d="M472 476q42 -37 42 -105v-371h-123v63q-27 -38 -70.5 -58t-100.5 -20q-80 0 -130 44.5t-50 116.5q0 65 38.5 107.5t105.5 50.5l207 26v26q0 47 -45 47h-260v110h265q79 0 121 -37zM336 107q39 24 55 62v65l-158 -22q-33 -5 -50.5 -21.5t-17.5 -44.5q0 -30 22.5 -46.5
t62.5 -16.5q47 0 86 24zM159 628q-30 27 -30 76v34h98v-23q0 -37 38 -37h52q19 0 29 9.5t10 27.5v23h98v-34q0 -49 -31 -76t-90 -27h-85q-59 0 -89 27z" />
    <glyph glyph-name="Aogonek" unicode="&#x104;" horiz-adv-x="701" 
d="M551 -141q13 0 28 2.5t24 6.5v-69q-11 -6 -33 -10t-44 -4q-45 0 -71 19.5t-26 54.5q0 69 111 127l-61 205h-257l-58 -191h-137l236 750h176l235 -750q-73 -23 -119.5 -55t-46.5 -59t43 -27zM255 301h191l-94 313h-3z" />
    <glyph glyph-name="aogonek" unicode="&#x105;" horiz-adv-x="584" 
d="M390 -99q0 -22 35 -22q23 0 38 5v-82q-12 -5 -32.5 -9t-40.5 -4q-47 0 -72.5 20t-25.5 56q0 39 32.5 74t82.5 61h-16v63q-27 -38 -70.5 -58t-100.5 -20q-80 0 -130 44.5t-50 116.5q0 65 38.5 107.5t105.5 50.5l207 26v26q0 47 -45 47h-260v110h265q79 0 121 -37t42 -105
v-371q-124 -60 -124 -99zM336 107q39 24 55 62v65l-158 -22q-33 -5 -50.5 -21.5t-17.5 -44.5q0 -30 22.5 -46.5t62.5 -16.5q47 0 86 24z" />
    <glyph glyph-name="Cacute" unicode="&#x106;" horiz-adv-x="803" 
d="M644 63q-94 -78 -234 -78q-108 0 -192 50t-131 138.5t-47 201.5t47 201.5t131 138t192 49.5q138 0 232 -76t123 -210h-136q-28 80 -81 120.5t-138 40.5q-71 0 -124 -33t-81.5 -93t-28.5 -139t28.5 -138.5t81.5 -92.5t124 -33q172 0 221 169h134q-27 -138 -121 -216z
M255 891l309 42v-62l-309 -42v62z" />
    <glyph glyph-name="cacute" unicode="&#x107;" horiz-adv-x="614" 
d="M483.5 36q-66.5 -51 -162.5 -51q-80 0 -141.5 35t-95.5 97t-34 140t34 139.5t95.5 96t141.5 34.5q96 0 162 -51.5t87 -146.5h-124q-36 86 -125 86q-67 0 -105.5 -43t-38.5 -115q0 -73 38.5 -116t105.5 -43q46 0 76 20.5t48 61.5h125q-20 -93 -86.5 -144zM359 754h128
l-126 -142h-107z" />
    <glyph glyph-name="Ccircumflex" unicode="&#x108;" horiz-adv-x="803" 
d="M644 63q-94 -78 -234 -78q-108 0 -192 50t-131 138.5t-47 201.5t47 201.5t131 138t192 49.5q138 0 232 -76t123 -210h-136q-28 80 -81 120.5t-138 40.5q-71 0 -124 -33t-81.5 -93t-28.5 -139t28.5 -138.5t81.5 -92.5t124 -33q172 0 221 169h134q-27 -138 -121 -216z
M544 897v-60l-132 39l-136 -39v60l134 41h3z" />
    <glyph glyph-name="ccircumflex" unicode="&#x109;" horiz-adv-x="614" 
d="M483.5 36q-66.5 -51 -162.5 -51q-80 0 -141.5 35t-95.5 97t-34 140t34 139.5t95.5 96t141.5 34.5q96 0 162 -51.5t87 -146.5h-124q-36 86 -125 86q-67 0 -105.5 -43t-38.5 -115q0 -73 38.5 -116t105.5 -43q46 0 76 20.5t48 61.5h125q-20 -93 -86.5 -144zM482 612h-113
l-51 60l-52 -60h-107l115 142h93z" />
    <glyph glyph-name="Cdotaccent" unicode="&#x10a;" horiz-adv-x="803" 
d="M644 63q-94 -78 -234 -78q-108 0 -192 50t-131 138.5t-47 201.5t47 201.5t131 138t192 49.5q138 0 232 -76t123 -210h-136q-28 80 -81 120.5t-138 40.5q-71 0 -124 -33t-81.5 -93t-28.5 -139t28.5 -138.5t81.5 -92.5t124 -33q172 0 221 169h134q-27 -138 -121 -216z
M330 908h160v-60h-160v60z" />
    <glyph glyph-name="cdotaccent" unicode="&#x10b;" horiz-adv-x="614" 
d="M483.5 36q-66.5 -51 -162.5 -51q-80 0 -141.5 35t-95.5 97t-34 140t34 139.5t95.5 96t141.5 34.5q96 0 162 -51.5t87 -146.5h-124q-36 86 -125 86q-67 0 -105.5 -43t-38.5 -115q0 -73 38.5 -116t105.5 -43q46 0 76 20.5t48 61.5h125q-20 -93 -86.5 -144zM267 750h108
v-142h-108v142z" />
    <glyph glyph-name="Ccaron" unicode="&#x10c;" horiz-adv-x="803" 
d="M644 63q-94 -78 -234 -78q-108 0 -192 50t-131 138.5t-47 201.5t47 201.5t131 138t192 49.5q138 0 232 -76t123 -210h-136q-28 80 -81 120.5t-138 40.5q-71 0 -124 -33t-81.5 -93t-28.5 -139t28.5 -138.5t81.5 -92.5t124 -33q172 0 221 169h134q-27 -138 -121 -216z
M412 898l132 39v-61l-131 -41h-3l-134 41v61z" />
    <glyph glyph-name="ccaron" unicode="&#x10d;" horiz-adv-x="614" 
d="M483.5 36q-66.5 -51 -162.5 -51q-80 0 -141.5 35t-95.5 97t-34 140t34 139.5t95.5 96t141.5 34.5q96 0 162 -51.5t87 -146.5h-124q-36 86 -125 86q-67 0 -105.5 -43t-38.5 -115q0 -73 38.5 -116t105.5 -43q46 0 76 20.5t48 61.5h125q-20 -93 -86.5 -144zM369 754h113
l-115 -142h-93l-115 142h107l52 -60z" />
    <glyph glyph-name="Dcaron" unicode="&#x10e;" horiz-adv-x="725" 
d="M509 703q86 -47 131 -131.5t45 -195.5t-45.5 -196.5t-130.5 -132.5t-202 -47h-240v750h239q117 0 203 -47zM490 191.5q61 70.5 61 184.5q0 113 -61.5 184t-185.5 71h-107v-510h108q124 0 185 70.5zM297 898l132 39v-61l-131 -41h-3l-134 41v61z" />
    <glyph glyph-name="dcaron" unicode="&#x10f;" horiz-adv-x="781" 
d="M451 750h122v-750h-122v57q-57 -72 -160 -72q-69 0 -124 34.5t-86 96.5t-31 141q0 78 31 139.5t86 96t124 34.5q51 0 91.5 -18t68.5 -53v294zM650 750h131l-78 -187h-94zM395 123.5q35 24.5 56 67.5v131q-20 43 -55 67t-84 24q-61 0 -98 -42t-37 -114q0 -73 37 -115.5
t98 -42.5q48 0 83 24.5z" />
    <glyph glyph-name="Dcroat" unicode="&#x110;" horiz-adv-x="725" 
d="M509 703q86 -47 131 -131.5t45 -195.5t-45.5 -196.5t-130.5 -132.5t-202 -47h-240v354h-63v59h63v337h239q117 0 203 -47zM490 191.5q61 70.5 61 184.5q0 113 -61.5 184t-185.5 71h-107v-218h151v-59h-151v-233h108q124 0 185 70.5z" />
    <glyph glyph-name="dcroat" unicode="&#x111;" horiz-adv-x="647" 
d="M630 589h-57v-589h-122v57q-57 -72 -160 -72q-69 0 -124 34.5t-86 96.5t-31 141q0 78 31 139.5t86 96t124 34.5q51 0 91.5 -18t68.5 -53v133h-154v76h154v85h122v-85h57v-76zM395 123.5q35 24.5 56 67.5v131q-20 43 -55 67t-84 24q-61 0 -98 -42t-37 -114
q0 -73 37 -115.5t98 -42.5q48 0 83 24.5z" />
    <glyph glyph-name="Emacron" unicode="&#x112;" horiz-adv-x="588" 
d="M200 110h351v-110h-484v750h471v-110h-338v-186h294v-110h-294v-234zM135 908h318v-60h-318v60z" />
    <glyph glyph-name="emacron" unicode="&#x113;" horiz-adv-x="626" 
d="M578 225h-401q8 -64 44.5 -97.5t100.5 -33.5q42 0 73 15t49 37h131q-14 -44 -52 -81t-91.5 -58.5t-111.5 -21.5q-79 0 -140.5 34.5t-95.5 97t-34 143.5q0 76 34.5 137t95.5 95.5t137 34.5q78 0 137.5 -32.5t92.5 -93t33 -142.5q0 -23 -2 -34zM229 393.5
q-34 -24.5 -47 -71.5h264q-22 96 -130 96q-53 0 -87 -24.5zM133 707h367v-95h-367v95z" />
    <glyph glyph-name="Ebreve" unicode="&#x114;" horiz-adv-x="588" 
d="M200 110h351v-110h-484v750h471v-110h-338v-186h294v-110h-294v-234zM177.5 863.5q-17.5 18.5 -17.5 51.5v25h54v-14q0 -13 5.5 -18.5t18.5 -5.5h111q13 0 19 5.5t6 18.5v14h54v-25q0 -33 -19 -51.5t-53 -18.5h-125q-36 0 -53.5 18.5z" />
    <glyph glyph-name="ebreve" unicode="&#x115;" horiz-adv-x="626" 
d="M578 225h-401q8 -64 44.5 -97.5t100.5 -33.5q42 0 73 15t49 37h131q-14 -44 -52 -81t-91.5 -58.5t-111.5 -21.5q-79 0 -140.5 34.5t-95.5 97t-34 143.5q0 76 34.5 137t95.5 95.5t137 34.5q78 0 137.5 -32.5t92.5 -93t33 -142.5q0 -23 -2 -34zM229 393.5
q-34 -24.5 -47 -71.5h264q-22 96 -130 96q-53 0 -87 -24.5zM184 628q-30 27 -30 76v34h98v-23q0 -37 38 -37h52q19 0 29 9.5t10 27.5v23h98v-34q0 -49 -31 -76t-90 -27h-85q-59 0 -89 27z" />
    <glyph glyph-name="Edotaccent" unicode="&#x116;" horiz-adv-x="588" 
d="M200 110h351v-110h-484v750h471v-110h-338v-186h294v-110h-294v-234zM214 908h160v-60h-160v60z" />
    <glyph glyph-name="edotaccent" unicode="&#x117;" horiz-adv-x="626" 
d="M578 225h-401q8 -64 44.5 -97.5t100.5 -33.5q42 0 73 15t49 37h131q-14 -44 -52 -81t-91.5 -58.5t-111.5 -21.5q-79 0 -140.5 34.5t-95.5 97t-34 143.5q0 76 34.5 137t95.5 95.5t137 34.5q78 0 137.5 -32.5t92.5 -93t33 -142.5q0 -23 -2 -34zM229 393.5
q-34 -24.5 -47 -71.5h264q-22 96 -130 96q-53 0 -87 -24.5zM263 750h108v-142h-108v142z" />
    <glyph glyph-name="Eogonek" unicode="&#x118;" horiz-adv-x="588" 
d="M427 -99q0 -22 35 -22q23 0 38 5v-82q-12 -5 -32.5 -9t-40.5 -4q-47 0 -72.5 20t-25.5 56q0 39 32.5 74t82.5 61h-377v750h471v-110h-338v-186h294v-110h-294v-234h351v-110q-124 -60 -124 -99z" />
    <glyph glyph-name="eogonek" unicode="&#x119;" horiz-adv-x="626" 
d="M578 225h-401q8 -64 44.5 -97.5t100.5 -33.5q42 0 73 15t49 37h131q-16 -49 -60 -88t-103 -58q-56 -27 -89.5 -53t-33.5 -46q0 -22 35 -22q23 0 38 5v-82q-12 -5 -32.5 -9t-40.5 -4q-47 0 -72.5 20t-25.5 56q0 34 25.5 65.5t66.5 56.5q-69 8 -122 44.5t-82 95.5t-29 133
q0 76 34.5 137t95.5 95.5t137 34.5q78 0 137.5 -32.5t92.5 -93t33 -142.5q0 -23 -2 -34zM229 393.5q-34 -24.5 -47 -71.5h264q-22 96 -130 96q-53 0 -87 -24.5z" />
    <glyph glyph-name="Ecaron" unicode="&#x11a;" horiz-adv-x="588" 
d="M200 110h351v-110h-484v750h471v-110h-338v-186h294v-110h-294v-234zM313 898l132 39v-61l-131 -41h-3l-134 41v61z" />
    <glyph glyph-name="ecaron" unicode="&#x11b;" horiz-adv-x="626" 
d="M578 225h-401q8 -64 44.5 -97.5t100.5 -33.5q42 0 73 15t49 37h131q-14 -44 -52 -81t-91.5 -58.5t-111.5 -21.5q-79 0 -140.5 34.5t-95.5 97t-34 143.5q0 76 34.5 137t95.5 95.5t137 34.5q78 0 137.5 -32.5t92.5 -93t33 -142.5q0 -23 -2 -34zM229 393.5
q-34 -24.5 -47 -71.5h264q-22 96 -130 96q-53 0 -87 -24.5zM365 754h113l-115 -142h-93l-115 142h107l52 -60z" />
    <glyph glyph-name="Gcircumflex" unicode="&#x11c;" horiz-adv-x="805" 
d="M771 0h-110v112q-41 -61 -105.5 -94t-147.5 -33q-106 0 -190 51t-131 140t-47 199q0 112 47 200.5t131.5 138.5t193.5 50q131 0 225.5 -65.5t127.5 -180.5h-141q-24 58 -77.5 91.5t-132.5 33.5q-72 0 -126 -33.5t-83.5 -94.5t-29.5 -141t29.5 -141t83.5 -94.5t127 -33.5
q90 0 150 49t78 133h-190v110h318v-397zM537 897v-60l-132 39l-136 -39v60l134 41h3z" />
    <glyph glyph-name="gcircumflex" unicode="&#x11d;" horiz-adv-x="643" 
d="M573 513v-528q0 -87 -49.5 -136t-147.5 -49h-219v108h215q38 0 58.5 21.5t20.5 64.5v77q-58 -70 -160 -70q-69 0 -124 33.5t-86 94t-31 136.5t31 135.5t86 93t124 33.5q103 0 160 -69v55h122zM395 136q35 24 56 65v127q-20 41 -55 64.5t-84 23.5q-61 0 -98 -40.5
t-37 -110.5q0 -71 37 -112t98 -41q48 0 83 24zM500 612h-113l-51 60l-52 -60h-107l115 142h93z" />
    <glyph glyph-name="Gbreve" unicode="&#x11e;" horiz-adv-x="805" 
d="M771 0h-110v112q-41 -61 -105.5 -94t-147.5 -33q-106 0 -190 51t-131 140t-47 199q0 112 47 200.5t131.5 138.5t193.5 50q131 0 225.5 -65.5t127.5 -180.5h-141q-24 58 -77.5 91.5t-132.5 33.5q-72 0 -126 -33.5t-83.5 -94.5t-29.5 -141t29.5 -141t83.5 -94.5t127 -33.5
q90 0 150 49t78 133h-190v110h318v-397zM286.5 863.5q-17.5 18.5 -17.5 51.5v25h54v-14q0 -13 5.5 -18.5t18.5 -5.5h111q13 0 19 5.5t6 18.5v14h54v-25q0 -33 -19 -51.5t-53 -18.5h-125q-36 0 -53.5 18.5z" />
    <glyph glyph-name="gbreve" unicode="&#x11f;" horiz-adv-x="643" 
d="M573 513v-528q0 -87 -49.5 -136t-147.5 -49h-219v108h215q38 0 58.5 21.5t20.5 64.5v77q-58 -70 -160 -70q-69 0 -124 33.5t-86 94t-31 136.5t31 135.5t86 93t124 33.5q103 0 160 -69v55h122zM395 136q35 24 56 65v127q-20 41 -55 64.5t-84 23.5q-61 0 -98 -40.5
t-37 -110.5q0 -71 37 -112t98 -41q48 0 83 24zM206 628q-30 27 -30 76v34h98v-23q0 -37 38 -37h52q19 0 29 9.5t10 27.5v23h98v-34q0 -49 -31 -76t-90 -27h-85q-59 0 -89 27z" />
    <glyph glyph-name="Gdotaccent" unicode="&#x120;" horiz-adv-x="805" 
d="M771 0h-110v112q-41 -61 -105.5 -94t-147.5 -33q-106 0 -190 51t-131 140t-47 199q0 112 47 200.5t131.5 138.5t193.5 50q131 0 225.5 -65.5t127.5 -180.5h-141q-24 58 -77.5 91.5t-132.5 33.5q-72 0 -126 -33.5t-83.5 -94.5t-29.5 -141t29.5 -141t83.5 -94.5t127 -33.5
q90 0 150 49t78 133h-190v110h318v-397zM323 908h160v-60h-160v60z" />
    <glyph glyph-name="gdotaccent" unicode="&#x121;" horiz-adv-x="643" 
d="M573 513v-528q0 -87 -49.5 -136t-147.5 -49h-219v108h215q38 0 58.5 21.5t20.5 64.5v77q-58 -70 -160 -70q-69 0 -124 33.5t-86 94t-31 136.5t31 135.5t86 93t124 33.5q103 0 160 -69v55h122zM395 136q35 24 56 65v127q-20 41 -55 64.5t-84 23.5q-61 0 -98 -40.5
t-37 -110.5q0 -71 37 -112t98 -41q48 0 83 24zM285 750h108v-142h-108v142z" />
    <glyph glyph-name="uni0122" unicode="&#x122;" horiz-adv-x="805" 
d="M771 0h-110v112q-41 -61 -105.5 -94t-147.5 -33q-106 0 -190 51t-131 140t-47 199q0 112 47 200.5t131.5 138.5t193.5 50q131 0 225.5 -65.5t127.5 -180.5h-141q-24 58 -77.5 91.5t-132.5 33.5q-72 0 -126 -33.5t-83.5 -94.5t-29.5 -141t29.5 -141t83.5 -94.5t127 -33.5
q90 0 150 49t78 133h-190v110h318v-397zM367 -68h111l-70 -130h-80z" />
    <glyph glyph-name="uni0123" unicode="&#x123;" horiz-adv-x="643" 
d="M573 513v-528q0 -87 -49.5 -136t-147.5 -49h-219v108h215q38 0 58.5 21.5t20.5 64.5v77q-58 -70 -160 -70q-69 0 -124 33.5t-86 94t-31 136.5t31 135.5t86 93t124 33.5q103 0 160 -69v55h122zM395 136q35 24 56 65v127q-20 41 -55 64.5t-84 23.5q-61 0 -98 -40.5
t-37 -110.5q0 -71 37 -112t98 -41q48 0 83 24zM339 750h96l-41 -138h-129z" />
    <glyph glyph-name="Hcircumflex" unicode="&#x124;" horiz-adv-x="699" 
d="M499 750h133v-750h-133v344h-299v-344h-133v750h133v-296h299v296zM484 897v-60l-132 39l-136 -39v60l134 41h3z" />
    <glyph glyph-name="hcircumflex" unicode="&#x125;" horiz-adv-x="638" 
d="M517.5 472.5q51.5 -54.5 51.5 -144.5v-328h-125v297q0 53 -26 84.5t-79 31.5q-42 0 -82 -25t-58 -63v-325h-125v750h125v-301q32 38 77.5 58t100.5 20q89 0 140.5 -54.5zM271 857v-60l-132 39l-136 -39v60l134 41h3z" />
    <glyph glyph-name="Hbar" unicode="&#x126;" horiz-adv-x="699" 
d="M688 630v-68h-56v-562h-133v344h-299v-344h-133v562h-56v68h56v120h133v-120h299v120h133v-120h56zM499 454v108h-299v-108h299z" />
    <glyph glyph-name="hbar" unicode="&#x127;" horiz-adv-x="638" 
d="M517.5 472.5q51.5 -54.5 51.5 -144.5v-328h-125v297q0 53 -26 84.5t-79 31.5q-42 0 -82 -25t-58 -63v-325h-125v589h-70v76h70v85h125v-85h138v-76h-138v-140q32 38 77.5 58t100.5 20q89 0 140.5 -54.5z" />
    <glyph glyph-name="Itilde" unicode="&#x128;" horiz-adv-x="265" 
d="M67 750h131v-750h-131v750zM-26 908h318v-60h-318v60z" />
    <glyph glyph-name="itilde" unicode="&#x129;" horiz-adv-x="329" 
d="M130 403h-105v110h230v-513h-125v403zM-30 707h367v-95h-367v95z" />
    <glyph glyph-name="Imacron" unicode="&#x12a;" horiz-adv-x="265" 
d="M-13 870h291v-57h-291v57zM67 750h131v-750h-131v750z" />
    <glyph glyph-name="imacron" unicode="&#x12b;" horiz-adv-x="329" 
d="M-1 711h268v-87h-268v87zM130 403h-105v110h230v-513h-125v403z" />
    <glyph glyph-name="Ibreve" unicode="&#x12c;" horiz-adv-x="265" 
d="M67 750h131v-750h-131v750zM16.5 863.5q-17.5 18.5 -17.5 51.5v25h54v-14q0 -13 5.5 -18.5t18.5 -5.5h111q13 0 19 5.5t6 18.5v14h54v-25q0 -33 -19 -51.5t-53 -18.5h-125q-36 0 -53.5 18.5z" />
    <glyph glyph-name="ibreve" unicode="&#x12d;" horiz-adv-x="329" 
d="M130 403h-105v110h230v-513h-125v403zM-1 628q-30 27 -30 76v34h98v-23q0 -37 38 -37h52q19 0 29 9.5t10 27.5v23h98v-34q0 -49 -31 -76t-90 -27h-85q-59 0 -89 27z" />
    <glyph glyph-name="Iogonek" unicode="&#x12e;" horiz-adv-x="265" 
d="M73 -111q0 -25 39 -25q21 0 36 5v-71q-26 -13 -69 -13q-42 0 -66 19t-24 53q0 59 78 116v777h131v-750q-125 -66 -125 -111z" />
    <glyph glyph-name="iogonek" unicode="&#x12f;" horiz-adv-x="329" 
d="M130 750h125v-142h-125v142zM25 513h230v-513q-124 -60 -124 -99q0 -22 35 -22q23 0 38 5v-82q-12 -5 -32.5 -9t-40.5 -4q-47 0 -72.5 20t-25.5 56q0 35 27 67.5t70 57.5v413h-105v110z" />
    <glyph glyph-name="Idotaccent" unicode="&#x130;" horiz-adv-x="265" 
d="M36 870h193v-57h-193v57zM67 750h131v-750h-131v750z" />
    <glyph glyph-name="dotlessi" unicode="&#x131;" horiz-adv-x="329" 
d="M130 403h-105v110h230v-513h-125v403z" />
    <glyph glyph-name="IJ" unicode="&#x132;" horiz-adv-x="700" 
d="M67 750h131v-750h-131v750zM484 110q23 0 33 10t10 31v489h-152v110h285v-588q0 -78 -42 -120t-122 -42h-196v110h184z" />
    <glyph glyph-name="ij" unicode="&#x133;" horiz-adv-x="663" 
d="M130 608v142h125v-142h-125zM130 403h-105v110h230v-513h-125v403zM464 608v142h125v-142h-125zM422 -90q42 0 42 45v448h-107v110h232v-572q0 -66 -39.5 -103.5t-116.5 -37.5h-159v110h148z" />
    <glyph glyph-name="Jcircumflex" unicode="&#x134;" horiz-adv-x="435" 
d="M219 110q23 0 33 10t10 31v489h-152v110h285v-588q0 -78 -42 -120t-122 -42h-196v110h184zM386 897v-60l-132 39l-136 -39v60l134 41h3z" />
    <glyph glyph-name="jcircumflex" unicode="&#x135;" horiz-adv-x="334" 
d="M93 -90q42 0 42 45v448h-107v110h232v-572q0 -66 -39.5 -103.5t-116.5 -37.5h-159v110h148zM300 612h-113l-51 60l-52 -60h-107l115 142h93z" />
    <glyph glyph-name="uni0136" unicode="&#x136;" horiz-adv-x="700" 
d="M536 0l-247 344h-89v-344h-133v750h133v-296h88l234 296h157l-274 -347l290 -403h-159zM310 -68h111l-70 -130h-80z" />
    <glyph glyph-name="uni0137" unicode="&#x137;" horiz-adv-x="568" 
d="M404 0l-148 218h-57v-218h-125v750h125v-431h56l142 194h144l-181 -239l191 -274h-147zM249 -68h111l-70 -130h-80z" />
    <glyph glyph-name="Lacute" unicode="&#x139;" horiz-adv-x="571" 
d="M370 895v-59l-276 -42v59zM200 110h335v-110h-468v750h133v-640z" />
    <glyph glyph-name="lacute" unicode="&#x13a;" horiz-adv-x="319" 
d="M65 864l187 45v-80l-187 -35v70zM109.5 37q-37.5 37 -37.5 103v500h-86v110h211v-598q0 -42 39 -42h54v-110h-68q-75 0 -112.5 37z" />
    <glyph glyph-name="uni013B" unicode="&#x13b;" horiz-adv-x="571" 
d="M200 110h335v-110h-468v750h133v-640zM258 -68h111l-70 -130h-80z" />
    <glyph glyph-name="uni013C" unicode="&#x13c;" horiz-adv-x="319" 
d="M109.5 37q-37.5 37 -37.5 103v500h-86v110h211v-598q0 -42 39 -42h54v-110h-68q-75 0 -112.5 37zM151 -68h111l-70 -130h-80z" />
    <glyph glyph-name="Lcaron" unicode="&#x13d;" horiz-adv-x="571" 
d="M200 110h335v-110h-468v750h133v-640zM475 750l-83 -193h-92l48 193h127z" />
    <glyph glyph-name="lcaron" unicode="&#x13e;" horiz-adv-x="408" 
d="M109.5 37q-37.5 37 -37.5 103v500h-86v110h211v-598q0 -42 39 -42h54v-110h-68q-75 0 -112.5 37zM236 563l41 187h131l-78 -187h-94z" />
    <glyph glyph-name="Ldot" unicode="&#x13f;" horiz-adv-x="571" 
d="M200 110h335v-110h-468v750h133v-640zM455 467v-145h-106v145h106z" />
    <glyph glyph-name="ldot" unicode="&#x140;" horiz-adv-x="372" 
d="M109.5 37q-37.5 37 -37.5 103v500h-86v110h211v-598q0 -42 39 -42h54v-110h-68q-75 0 -112.5 37zM263 254v148h109v-148h-109z" />
    <glyph glyph-name="Lslash" unicode="&#x141;" horiz-adv-x="571" 
d="M200 110h335v-110h-468v303l-62 -19v105l62 19v342h133v-300l126 39v-106l-126 -39v-234z" />
    <glyph glyph-name="lslash" unicode="&#x142;" horiz-adv-x="319" 
d="M290 110v-110h-68q-75 0 -112.5 37t-37.5 103v158l-52 -22v110l52 22v232h-86v110h211v-289l57 24v-110l-57 -24v-199q0 -42 39 -42h54z" />
    <glyph glyph-name="Nacute" unicode="&#x143;" horiz-adv-x="728" 
d="M67 0v750h138l327 -535h3v535h126v-750h-138l-327 535h-3v-535h-126zM209 891l309 42v-62l-309 -42v62z" />
    <glyph glyph-name="nacute" unicode="&#x144;" horiz-adv-x="638" 
d="M517.5 472.5q51.5 -54.5 51.5 -144.5v-328h-125v297q0 53 -26 84.5t-79 31.5q-42 0 -82 -25t-58 -63v-325h-125v513h125v-64q32 38 77.5 58t100.5 20q89 0 140.5 -54.5zM351 754h128l-126 -142h-107z" />
    <glyph glyph-name="uni0145" unicode="&#x145;" horiz-adv-x="728" 
d="M67 0v750h138l327 -535h3v535h126v-750h-138l-327 535h-3v-535h-126zM328 -68h111l-70 -130h-80z" />
    <glyph glyph-name="uni0146" unicode="&#x146;" horiz-adv-x="638" 
d="M517.5 472.5q51.5 -54.5 51.5 -144.5v-328h-125v297q0 53 -26 84.5t-79 31.5q-42 0 -82 -25t-58 -63v-325h-125v513h125v-64q32 38 77.5 58t100.5 20q89 0 140.5 -54.5zM282 -68h111l-70 -130h-80z" />
    <glyph glyph-name="Ncaron" unicode="&#x147;" horiz-adv-x="728" 
d="M67 0v750h138l327 -535h3v535h126v-750h-138l-327 535h-3v-535h-126zM366 898l132 39v-61l-131 -41h-3l-134 41v61z" />
    <glyph glyph-name="ncaron" unicode="&#x148;" horiz-adv-x="638" 
d="M517.5 472.5q51.5 -54.5 51.5 -144.5v-328h-125v297q0 53 -26 84.5t-79 31.5q-42 0 -82 -25t-58 -63v-325h-125v513h125v-64q32 38 77.5 58t100.5 20q89 0 140.5 -54.5zM376 754h113l-115 -142h-93l-115 142h107l52 -60z" />
    <glyph glyph-name="Eng" unicode="&#x14a;" horiz-adv-x="701" 
d="M661 750v-788q0 -78 -42 -120t-122 -42h-156v110h144q23 0 33 10t10 31v40l-332 544h-3v-535h-126v750h138l327 -535h3v535h126z" />
    <glyph glyph-name="eng" unicode="&#x14b;" horiz-adv-x="643" 
d="M517.5 472.5q51.5 -54.5 51.5 -144.5v-387q0 -66 -39.5 -103.5t-116.5 -37.5h-129v110h118q42 0 42 45v342q0 53 -26 84.5t-79 31.5q-42 0 -82 -25t-58 -63v-325h-125v513h125v-64q32 38 77.5 58t100.5 20q89 0 140.5 -54.5z" />
    <glyph glyph-name="Omacron" unicode="&#x14c;" horiz-adv-x="830" 
d="M220.5 35q-85.5 50 -133 139t-47.5 201t47.5 200.5t133 138.5t194.5 50t194.5 -50t133 -138.5t47.5 -200.5t-47.5 -201t-133 -139t-194.5 -50t-194.5 50zM541 143q54 33 83.5 93t29.5 138q0 79 -29.5 139t-83.5 93t-126 33t-126 -33t-83.5 -93t-29.5 -139
q0 -78 29.5 -138t83.5 -93t126 -33t126 33zM256 908h318v-60h-318v60z" />
    <glyph glyph-name="omacron" unicode="&#x14d;" horiz-adv-x="644" 
d="M180.5 20q-61.5 35 -96 97t-34.5 140t34.5 139.5t96 96t141.5 34.5t142 -34.5t96 -96t34 -139.5t-34 -140t-96 -97t-142 -35t-141.5 35zM428 140.5q39 43.5 39 116.5q0 72 -39 115t-106 43q-68 0 -106.5 -43t-38.5 -115q0 -73 38.5 -116.5t106.5 -43.5q67 0 106 43.5z
M138 707h367v-95h-367v95z" />
    <glyph glyph-name="Obreve" unicode="&#x14e;" horiz-adv-x="830" 
d="M220.5 35q-85.5 50 -133 139t-47.5 201t47.5 200.5t133 138.5t194.5 50t194.5 -50t133 -138.5t47.5 -200.5t-47.5 -201t-133 -139t-194.5 -50t-194.5 50zM541 143q54 33 83.5 93t29.5 138q0 79 -29.5 139t-83.5 93t-126 33t-126 -33t-83.5 -93t-29.5 -139
q0 -78 29.5 -138t83.5 -93t126 -33t126 33zM298.5 863.5q-17.5 18.5 -17.5 51.5v25h54v-14q0 -13 5.5 -18.5t18.5 -5.5h111q13 0 19 5.5t6 18.5v14h54v-25q0 -33 -19 -51.5t-53 -18.5h-125q-36 0 -53.5 18.5z" />
    <glyph glyph-name="obreve" unicode="&#x14f;" horiz-adv-x="644" 
d="M180.5 20q-61.5 35 -96 97t-34.5 140t34.5 139.5t96 96t141.5 34.5t142 -34.5t96 -96t34 -139.5t-34 -140t-96 -97t-142 -35t-141.5 35zM428 140.5q39 43.5 39 116.5q0 72 -39 115t-106 43q-68 0 -106.5 -43t-38.5 -115q0 -73 38.5 -116.5t106.5 -43.5q67 0 106 43.5z
M189 628q-30 27 -30 76v34h98v-23q0 -37 38 -37h52q19 0 29 9.5t10 27.5v23h98v-34q0 -49 -31 -76t-90 -27h-85q-59 0 -89 27z" />
    <glyph glyph-name="Ohungarumlaut" unicode="&#x150;" horiz-adv-x="830" 
d="M220.5 35q-85.5 50 -133 139t-47.5 201t47.5 200.5t133 138.5t194.5 50t194.5 -50t133 -138.5t47.5 -200.5t-47.5 -201t-133 -139t-194.5 -50t-194.5 50zM541 143q54 33 83.5 93t29.5 138q0 79 -29.5 139t-83.5 93t-126 33t-126 -33t-83.5 -93t-29.5 -139
q0 -78 29.5 -138t83.5 -93t126 -33t126 33zM382 915h102l-129 -67h-101zM572 915h103l-130 -67h-100z" />
    <glyph glyph-name="ohungarumlaut" unicode="&#x151;" horiz-adv-x="644" 
d="M180.5 20q-61.5 35 -96 97t-34.5 140t34.5 139.5t96 96t141.5 34.5t142 -34.5t96 -96t34 -139.5t-34 -140t-96 -97t-142 -35t-141.5 35zM428 140.5q39 43.5 39 116.5q0 72 -39 115t-106 43q-68 0 -106.5 -43t-38.5 -115q0 -73 38.5 -116.5t106.5 -43.5q67 0 106 43.5z
M289 754h105l-91 -142h-102zM436 754h106l-95 -142h-101z" />
    <glyph glyph-name="OE" unicode="&#x152;" horiz-adv-x="1250" 
d="M1213 110v-110h-484v153q-49 -79 -130.5 -123.5t-183.5 -44.5q-109 0 -194.5 50t-133 139t-47.5 201t47.5 200.5t133 138.5t194.5 50q103 0 184 -44.5t130 -123.5v154h471v-110h-338v-186h294v-110h-294v-234h351zM541 143q54 33 83.5 93t29.5 138q0 79 -29.5 139
t-83.5 93t-126 33t-126 -33t-83.5 -93t-29.5 -139q0 -78 29.5 -138t83.5 -93t126 -33t126 33z" />
    <glyph glyph-name="oe" unicode="&#x153;" horiz-adv-x="1052" 
d="M1004 225h-401q8 -64 44.5 -97.5t100.5 -33.5q42 0 73 15t49 37h131q-14 -44 -52 -81t-91.5 -58.5t-111.5 -21.5q-68 0 -122.5 27.5t-88.5 77.5q-35 -50 -90 -77.5t-123 -27.5q-80 0 -141.5 35t-96 97t-34.5 140t34.5 139.5t96 96t141.5 34.5q69 0 124 -27.5t89 -77.5
q35 50 89 77.5t119 27.5q78 0 137.5 -32.5t92.5 -93t33 -142.5q0 -23 -2 -34zM655 393.5q-34 -24.5 -47 -71.5h264q-22 96 -130 96q-53 0 -87 -24.5zM428 140.5q39 43.5 39 116.5q0 72 -39 115t-106 43q-68 0 -106.5 -43t-38.5 -115q0 -73 38.5 -116.5t106.5 -43.5
q67 0 106 43.5z" />
    <glyph glyph-name="Racute" unicode="&#x154;" horiz-adv-x="625" 
d="M557 418.5q-38 -51.5 -106 -71.5l142 -347h-141l-135 336h-117v-336h-133v750h298q71 0 123 -26.5t79.5 -74t27.5 -108.5q0 -71 -38 -122.5zM200 446h154q53 0 78 27.5t25 69.5t-24.5 69.5t-76.5 27.5h-156v-194zM158 891l309 42v-62l-309 -42v62z" />
    <glyph glyph-name="racute" unicode="&#x155;" horiz-adv-x="422" 
d="M388 513v-110h-63q-46 0 -79 -17t-51 -44v-342h-125v513h125v-75q55 75 142 75h51zM267 754h128l-126 -142h-107z" />
    <glyph glyph-name="uni0156" unicode="&#x156;" horiz-adv-x="625" 
d="M557 418.5q-38 -51.5 -106 -71.5l142 -347h-141l-135 336h-117v-336h-133v750h298q71 0 123 -26.5t79.5 -74t27.5 -108.5q0 -71 -38 -122.5zM200 446h154q53 0 78 27.5t25 69.5t-24.5 69.5t-76.5 27.5h-156v-194zM274 -68h111l-70 -130h-80z" />
    <glyph glyph-name="uni0157" unicode="&#x157;" horiz-adv-x="422" 
d="M388 513v-110h-63q-46 0 -79 -17t-51 -44v-342h-125v513h125v-75q55 75 142 75h51zM78 -68h111l-70 -130h-80z" />
    <glyph glyph-name="Rcaron" unicode="&#x158;" horiz-adv-x="625" 
d="M557 418.5q-38 -51.5 -106 -71.5l142 -347h-141l-135 336h-117v-336h-133v750h298q71 0 123 -26.5t79.5 -74t27.5 -108.5q0 -71 -38 -122.5zM200 446h154q53 0 78 27.5t25 69.5t-24.5 69.5t-76.5 27.5h-156v-194zM315 898l132 39v-61l-131 -41h-3l-134 41v61z" />
    <glyph glyph-name="rcaron" unicode="&#x159;" horiz-adv-x="422" 
d="M388 513v-110h-63q-46 0 -79 -17t-51 -44v-342h-125v513h125v-75q55 75 142 75h51zM277 754h113l-115 -142h-93l-115 142h107l52 -60z" />
    <glyph glyph-name="Sacute" unicode="&#x15a;" horiz-adv-x="657" 
d="M120 58.5q-82 72.5 -85 200.5h138q2 -74 48.5 -115.5t125.5 -41.5q66 0 107 30t41 79q0 39 -17 62.5t-55 36.5t-105 19q-131 11 -195 64t-64 151q0 66 33 116t93 77t139 27q130 0 205.5 -63.5t81.5 -179.5h-137q-5 62 -43 95.5t-105 33.5q-62 0 -98.5 -26.5t-36.5 -71.5
q0 -37 17 -59t55.5 -34.5t104.5 -17.5q133 -11 196 -64t63 -156q0 -71 -34.5 -124.5t-99 -82t-150.5 -28.5q-141 0 -223 72.5zM186 891l309 42v-62l-309 -42v62z" />
    <glyph glyph-name="sacute" unicode="&#x15b;" horiz-adv-x="534" 
d="M111 32.5q-62 47.5 -70 126.5h128q8 -33 36 -50.5t73 -17.5q48 0 75.5 16.5t27.5 45.5q0 21 -8 33t-32 19t-71 9q-118 5 -166.5 42t-48.5 109q0 76 57.5 119t159.5 43q97 0 154 -41t69 -112h-125q-22 49 -99 49q-44 0 -69 -14t-25 -39q0 -18 8 -28.5t31 -16t69 -7.5
q82 -3 130 -21.5t68.5 -52.5t20.5 -86q0 -81 -59.5 -127t-164.5 -46q-107 0 -169 47.5zM310 754h128l-126 -142h-107z" />
    <glyph glyph-name="Scircumflex" unicode="&#x15c;" horiz-adv-x="657" 
d="M120 58.5q-82 72.5 -85 200.5h138q2 -74 48.5 -115.5t125.5 -41.5q66 0 107 30t41 79q0 39 -17 62.5t-55 36.5t-105 19q-131 11 -195 64t-64 151q0 66 33 116t93 77t139 27q130 0 205.5 -63.5t81.5 -179.5h-137q-5 62 -43 95.5t-105 33.5q-62 0 -98.5 -26.5t-36.5 -71.5
q0 -37 17 -59t55.5 -34.5t104.5 -17.5q133 -11 196 -64t63 -156q0 -71 -34.5 -124.5t-99 -82t-150.5 -28.5q-141 0 -223 72.5zM463 897v-60l-132 39l-136 -39v60l134 41h3z" />
    <glyph glyph-name="scircumflex" unicode="&#x15d;" horiz-adv-x="534" 
d="M111 32.5q-62 47.5 -70 126.5h128q8 -33 36 -50.5t73 -17.5q48 0 75.5 16.5t27.5 45.5q0 21 -8 33t-32 19t-71 9q-118 5 -166.5 42t-48.5 109q0 76 57.5 119t159.5 43q97 0 154 -41t69 -112h-125q-22 49 -99 49q-44 0 -69 -14t-25 -39q0 -18 8 -28.5t31 -16t69 -7.5
q82 -3 130 -21.5t68.5 -52.5t20.5 -86q0 -81 -59.5 -127t-164.5 -46q-107 0 -169 47.5zM433 612h-113l-51 60l-52 -60h-107l115 142h93z" />
    <glyph glyph-name="Scedilla" unicode="&#x15e;" horiz-adv-x="657" 
d="M565 62.5q-62 -61.5 -170 -73.5v-78q0 -55 -29 -83t-85 -28h-57v86h34q41 0 41 38v64q-122 11 -191.5 82.5t-72.5 188.5h138q2 -74 48.5 -115.5t125.5 -41.5q66 0 107 30t41 79q0 39 -17 62.5t-55 36.5t-105 19q-131 11 -195 64t-64 151q0 66 33 116t93 77t139 27
q130 0 205.5 -63.5t81.5 -179.5h-137q-5 62 -43 95.5t-105 33.5q-62 0 -98.5 -26.5t-36.5 -71.5q0 -37 17 -59t55.5 -34.5t104.5 -17.5q133 -11 196 -64t63 -156q0 -97 -62 -158.5z" />
    <glyph glyph-name="scedilla" unicode="&#x15f;" horiz-adv-x="534" 
d="M463 48.5q-41 -43.5 -116 -57.5v-80q0 -55 -29 -83t-85 -28h-57v86h34q41 0 41 38v62q-94 7 -148.5 53t-61.5 120h128q8 -33 36 -50.5t73 -17.5q48 0 75.5 16.5t27.5 45.5q0 21 -8 33t-32 19t-71 9q-118 5 -166.5 42t-48.5 109q0 76 57.5 119t159.5 43q97 0 154 -41
t69 -112h-125q-22 49 -99 49q-44 0 -69 -14t-25 -39q0 -18 8 -28.5t31 -16t69 -7.5q82 -3 130 -21.5t68.5 -52.5t20.5 -86q0 -66 -41 -109.5z" />
    <glyph glyph-name="Scaron" unicode="&#x160;" horiz-adv-x="657" 
d="M120 58.5q-82 72.5 -85 200.5h138q2 -74 48.5 -115.5t125.5 -41.5q66 0 107 30t41 79q0 39 -17 62.5t-55 36.5t-105 19q-131 11 -195 64t-64 151q0 66 33 116t93 77t139 27q130 0 205.5 -63.5t81.5 -179.5h-137q-5 62 -43 95.5t-105 33.5q-62 0 -98.5 -26.5t-36.5 -71.5
q0 -37 17 -59t55.5 -34.5t104.5 -17.5q133 -11 196 -64t63 -156q0 -71 -34.5 -124.5t-99 -82t-150.5 -28.5q-141 0 -223 72.5zM331 898l132 39v-61l-131 -41h-3l-134 41v61z" />
    <glyph glyph-name="scaron" unicode="&#x161;" horiz-adv-x="534" 
d="M111 32.5q-62 47.5 -70 126.5h128q8 -33 36 -50.5t73 -17.5q48 0 75.5 16.5t27.5 45.5q0 21 -8 33t-32 19t-71 9q-118 5 -166.5 42t-48.5 109q0 76 57.5 119t159.5 43q97 0 154 -41t69 -112h-125q-22 49 -99 49q-44 0 -69 -14t-25 -39q0 -18 8 -28.5t31 -16t69 -7.5
q82 -3 130 -21.5t68.5 -52.5t20.5 -86q0 -81 -59.5 -127t-164.5 -46q-107 0 -169 47.5zM320 754h113l-115 -142h-93l-115 142h107l52 -60z" />
    <glyph glyph-name="uni0162" unicode="&#x162;" horiz-adv-x="635" 
d="M605 750v-110h-221v-640h-21v-89q0 -55 -29 -83t-85 -28h-57v86h34q41 0 41 38v76h-16v640h-221v110h575z" />
    <glyph glyph-name="uni0163" unicode="&#x163;" horiz-adv-x="416" 
d="M224 403v-246q0 -47 45 -47h119v-110h-82v-89q0 -55 -29 -83t-85 -28h-57v86h34q41 0 41 38v80q-55 11 -83 47t-28 90v262h-93v110h93v169h125v-169h164v-110h-164z" />
    <glyph glyph-name="Tcaron" unicode="&#x164;" horiz-adv-x="635" 
d="M251 0v640h-221v110h575v-110h-221v-640h-133zM319 898l132 39v-61l-131 -41h-3l-134 41v61z" />
    <glyph glyph-name="tcaron" unicode="&#x165;" horiz-adv-x="457" 
d="M289 587l37 163h131l-75 -163h-93zM139 37.5q-40 37.5 -40 103.5v262h-93v110h93v169h125v-169h164v-110h-164v-246q0 -47 45 -47h119v-110h-129q-80 0 -120 37.5z" />
    <glyph glyph-name="Tbar" unicode="&#x166;" horiz-adv-x="635" 
d="M605 640h-221v-215h95v-70h-95v-355h-133v355h-95v70h95v215h-221v110h575v-110z" />
    <glyph glyph-name="tbar" unicode="&#x167;" horiz-adv-x="416" 
d="M224 403v-109h82v-76h-82v-61q0 -47 45 -47h119v-110h-129q-80 0 -120 37.5t-40 103.5v77h-67v76h67v109h-93v110h93v169h125v-169h164v-110h-164z" />
    <glyph glyph-name="Utilde" unicode="&#x168;" horiz-adv-x="742" 
d="M648.5 135.5q-38.5 -72.5 -110 -111.5t-167.5 -39q-95 0 -166.5 39t-110.5 111.5t-39 170.5v444h133v-453q0 -87 48.5 -139t134.5 -52t134.5 52t48.5 139v453h133v-444q0 -98 -38.5 -170.5zM212 908h318v-60h-318v60z" />
    <glyph glyph-name="utilde" unicode="&#x169;" horiz-adv-x="627" 
d="M553 513v-513h-125v62q-31 -37 -75.5 -57t-97.5 -20q-86 0 -136 54.5t-50 145.5v328h125v-298q0 -53 25 -84.5t74 -31.5q40 0 79 25t56 63v326h125zM126 707h367v-95h-367v95z" />
    <glyph glyph-name="Umacron" unicode="&#x16a;" horiz-adv-x="742" 
d="M648.5 135.5q-38.5 -72.5 -110 -111.5t-167.5 -39q-95 0 -166.5 39t-110.5 111.5t-39 170.5v444h133v-453q0 -87 48.5 -139t134.5 -52t134.5 52t48.5 139v453h133v-444q0 -98 -38.5 -170.5zM212 908h318v-60h-318v60z" />
    <glyph glyph-name="umacron" unicode="&#x16b;" horiz-adv-x="627" 
d="M553 513v-513h-125v62q-31 -37 -75.5 -57t-97.5 -20q-86 0 -136 54.5t-50 145.5v328h125v-298q0 -53 25 -84.5t74 -31.5q40 0 79 25t56 63v326h125zM126 707h367v-95h-367v95z" />
    <glyph glyph-name="Ubreve" unicode="&#x16c;" horiz-adv-x="742" 
d="M648.5 135.5q-38.5 -72.5 -110 -111.5t-167.5 -39q-95 0 -166.5 39t-110.5 111.5t-39 170.5v444h133v-453q0 -87 48.5 -139t134.5 -52t134.5 52t48.5 139v453h133v-444q0 -98 -38.5 -170.5zM254.5 863.5q-17.5 18.5 -17.5 51.5v25h54v-14q0 -13 5.5 -18.5t18.5 -5.5h111
q13 0 19 5.5t6 18.5v14h54v-25q0 -33 -19 -51.5t-53 -18.5h-125q-36 0 -53.5 18.5z" />
    <glyph glyph-name="ubreve" unicode="&#x16d;" horiz-adv-x="627" 
d="M553 513v-513h-125v62q-31 -37 -75.5 -57t-97.5 -20q-86 0 -136 54.5t-50 145.5v328h125v-298q0 -53 25 -84.5t74 -31.5q40 0 79 25t56 63v326h125zM177 628q-30 27 -30 76v34h98v-23q0 -37 38 -37h52q19 0 29 9.5t10 27.5v23h98v-34q0 -49 -31 -76t-90 -27h-85
q-59 0 -89 27z" />
    <glyph glyph-name="Uring" unicode="&#x16e;" horiz-adv-x="742" 
d="M648.5 135.5q-38.5 -72.5 -110 -111.5t-167.5 -39q-95 0 -166.5 39t-110.5 111.5t-39 170.5v444h133v-453q0 -87 48.5 -139t134.5 -52t134.5 52t48.5 139v453h133v-444q0 -98 -38.5 -170.5zM297.5 842q-25.5 16 -25.5 45q0 30 26 46t72 16t72.5 -16t26.5 -46
q0 -29 -26.5 -45t-72.5 -16q-47 0 -72.5 16zM425 887q0 13 -14.5 18.5t-40.5 5.5q-54 0 -54 -24q0 -23 54 -23q55 0 55 23z" />
    <glyph glyph-name="uring" unicode="&#x16f;" horiz-adv-x="627" 
d="M553 513v-513h-125v62q-31 -37 -75.5 -57t-97.5 -20q-86 0 -136 54.5t-50 145.5v328h125v-298q0 -53 25 -84.5t74 -31.5q40 0 79 25t56 63v326h125zM242 623.5q-28 27.5 -28 67.5q0 39 28 67t68 28q39 0 67 -28t28 -67q0 -40 -28 -67.5t-67 -27.5q-40 0 -68 27.5z
M336.5 665q11.5 11 11.5 26t-11.5 25.5t-26.5 10.5q-16 0 -27 -10t-11 -26t11 -26.5t27 -10.5q15 0 26.5 11z" />
    <glyph glyph-name="Uhungarumlaut" unicode="&#x170;" horiz-adv-x="742" 
d="M648.5 135.5q-38.5 -72.5 -110 -111.5t-167.5 -39q-95 0 -166.5 39t-110.5 111.5t-39 170.5v444h133v-453q0 -87 48.5 -139t134.5 -52t134.5 52t48.5 139v453h133v-444q0 -98 -38.5 -170.5zM338 915h102l-129 -67h-101zM528 915h103l-130 -67h-100z" />
    <glyph glyph-name="uhungarumlaut" unicode="&#x171;" horiz-adv-x="627" 
d="M553 513v-513h-125v62q-31 -37 -75.5 -57t-97.5 -20q-86 0 -136 54.5t-50 145.5v328h125v-298q0 -53 25 -84.5t74 -31.5q40 0 79 25t56 63v326h125zM277 754h105l-91 -142h-102zM424 754h106l-95 -142h-101z" />
    <glyph glyph-name="Uogonek" unicode="&#x172;" horiz-adv-x="742" 
d="M687 750v-444q0 -133 -69 -216.5t-190 -100.5q-42 -27 -64.5 -53t-22.5 -47q0 -25 39 -25q21 0 36 5v-71q-24 -13 -68 -13q-42 0 -66 19t-24 53q0 35 23.5 68.5t61.5 60.5q-88 5 -153 45.5t-100 111t-35 163.5v444h133v-453q0 -87 48.5 -139t134.5 -52t134.5 52t48.5 139
v453h133z" />
    <glyph glyph-name="uogonek" unicode="&#x173;" horiz-adv-x="627" 
d="M429 -99q0 -22 35 -22q23 0 38 5v-82q-12 -5 -32.5 -9t-40.5 -4q-47 0 -72.5 20t-25.5 56q0 39 32.5 74t82.5 61h-18v62q-31 -37 -75.5 -57t-97.5 -20q-86 0 -136 54.5t-50 145.5v328h125v-298q0 -53 25 -84.5t74 -31.5q40 0 79 25t56 63v326h125v-513q-124 -60 -124 -99
z" />
    <glyph glyph-name="Wcircumflex" unicode="&#x174;" horiz-adv-x="1074" 
d="M911 750h136l-210 -750h-162l-138 511l-138 -511h-161l-211 750h135l155 -580h3l151 546h132l151 -546h3zM671 897v-60l-132 39l-136 -39v60l134 41h3z" />
    <glyph glyph-name="wcircumflex" unicode="&#x175;" horiz-adv-x="791" 
d="M645 513h124l-126 -513h-163l-85 316l-85 -316h-162l-126 513h123l87 -390h3l105 368h111l104 -368h3zM557 612h-113l-51 60l-52 -60h-107l115 142h93z" />
    <glyph glyph-name="Ycircumflex" unicode="&#x176;" horiz-adv-x="654" 
d="M631 750l-238 -514v-236h-133v238l-237 512h138l164 -378h3l165 378h138zM461 897v-60l-132 39l-136 -39v60l134 41h3z" />
    <glyph glyph-name="ycircumflex" unicode="&#x177;" horiz-adv-x="528" 
d="M506 513l-206 -589q-22 -65 -56.5 -94.5t-99.5 -29.5h-99v110h89q25 0 38 10.5t22 34.5l16 45l-188 513h127l117 -357h3l112 357h125zM425 612h-113l-51 60l-52 -60h-107l115 142h93z" />
    <glyph glyph-name="Ydieresis" unicode="&#x178;" horiz-adv-x="654" 
d="M631 750l-238 -514v-236h-133v238l-237 512h138l164 -378h3l165 378h138zM138 908h145v-60h-145v60zM370 908h145v-60h-145v60z" />
    <glyph glyph-name="Zacute" unicode="&#x179;" horiz-adv-x="662" 
d="M33 0v102l430 535v3h-414v110h570v-112l-421 -525v-3h430v-110h-595zM209 891l309 42v-62l-309 -42v62z" />
    <glyph glyph-name="zacute" unicode="&#x17a;" horiz-adv-x="534" 
d="M41 0v92l291 308v3h-279v110h433v-104l-275 -296v-3h285v-110h-455zM305 754h128l-126 -142h-107z" />
    <glyph glyph-name="Zdotaccent" unicode="&#x17b;" horiz-adv-x="662" 
d="M33 0v102l430 535v3h-414v110h570v-112l-421 -525v-3h430v-110h-595zM251 908h160v-60h-160v60z" />
    <glyph glyph-name="zdotaccent" unicode="&#x17c;" horiz-adv-x="534" 
d="M41 0v92l291 308v3h-279v110h433v-104l-275 -296v-3h285v-110h-455zM213 750h108v-142h-108v142z" />
    <glyph glyph-name="Zcaron" unicode="&#x17d;" horiz-adv-x="662" 
d="M33 0v102l430 535v3h-414v110h570v-112l-421 -525v-3h430v-110h-595zM333 898l132 39v-61l-131 -41h-3l-134 41v61z" />
    <glyph glyph-name="zcaron" unicode="&#x17e;" horiz-adv-x="534" 
d="M41 0v92l291 308v3h-279v110h433v-104l-275 -296v-3h285v-110h-455zM315 754h113l-115 -142h-93l-115 142h107l52 -60z" />
    <glyph glyph-name="florin" unicode="&#x192;" horiz-adv-x="344" 
d="M6 -100h55q21 0 33 11.5t12 34.5v466h-94v101h94v95q0 66 41 104t121 38h63v-100h-54q-46 0 -46 -46v-91h100v-101h-100v-470q0 -67 -40.5 -104.5t-121.5 -37.5h-63v100z" />
    <glyph glyph-name="Aringacute" unicode="&#x1fa;" horiz-adv-x="701" 
d="M277.5 842q-25.5 16 -25.5 45q0 26 20 41.5t57 19.5l34 51h71l-49 -53q30 -5 47 -20.5t17 -38.5q0 -29 -26.5 -45t-72.5 -16q-47 0 -72.5 16zM296 887q0 -23 54 -23q55 0 55 23q0 13 -14.5 18.5t-40.5 5.5q-54 0 -54 -24zM536 0l-57 191h-257l-58 -191h-137l236 750h176
l235 -750h-138zM255 301h191l-94 313h-3z" />
    <glyph glyph-name="aringacute" unicode="&#x1fb;" horiz-adv-x="584" 
d="M224 623.5q-28 27.5 -28 67.5q0 31 18.5 56t48.5 35l61 94h128l-100 -112q16 -13 25.5 -32.5t9.5 -40.5q0 -40 -28 -67.5t-67 -27.5q-40 0 -68 27.5zM318.5 665q11.5 11 11.5 26t-11.5 25.5t-26.5 10.5q-16 0 -27 -10t-11 -26t11 -26.5t27 -10.5q15 0 26.5 11zM472 476
q42 -37 42 -105v-371h-123v63q-27 -38 -70.5 -58t-100.5 -20q-80 0 -130 44.5t-50 116.5q0 65 38.5 107.5t105.5 50.5l207 26v26q0 47 -45 47h-260v110h265q79 0 121 -37zM336 107q39 24 55 62v65l-158 -22q-33 -5 -50.5 -21.5t-17.5 -44.5q0 -30 22.5 -46.5t62.5 -16.5
q47 0 86 24z" />
    <glyph glyph-name="AEacute" unicode="&#x1fc;" horiz-adv-x="931" 
d="M583 110h311v-110h-444v191h-202l-84 -191h-137l341 750h513v-110h-298v-186h254v-110h-254v-234zM297 301h153v339h-3zM457 891l309 42v-62l-309 -42v62z" />
    <glyph glyph-name="aeacute" unicode="&#x1fd;" horiz-adv-x="965" 
d="M917 225h-401q8 -64 44.5 -97.5t100.5 -33.5q42 0 73 15t49 37h131q-14 -44 -52 -81t-91.5 -58.5t-111.5 -21.5q-65 0 -118 28t-86 79q-78 -107 -232 -107q-82 0 -132.5 44.5t-50.5 116.5q0 65 38.5 107.5t105.5 50.5l207 26v26q0 47 -45 47h-260v110h265q95 0 137 -54
q33 33 76 50.5t92 17.5q78 0 137.5 -32.5t92.5 -93t33 -142.5q0 -23 -2 -34zM568 393.5q-34 -24.5 -47 -71.5h264q-22 96 -130 96q-53 0 -87 -24.5zM336 107q39 24 55 62v65l-158 -22q-33 -5 -50.5 -21.5t-17.5 -44.5q0 -30 22.5 -46.5t62.5 -16.5q47 0 86 24zM521 754h128
l-126 -142h-107z" />
    <glyph glyph-name="Oslashacute" unicode="&#x1fe;" horiz-adv-x="830" 
d="M699 639q44 -52 67.5 -119t23.5 -145q0 -112 -47.5 -201t-133 -139t-194.5 -50q-135 0 -234 77l-55 -62h-95l99 111q-43 52 -66.5 119t-23.5 145q0 112 47.5 200.5t133 138.5t194.5 50q67 0 126.5 -19.5t106.5 -56.5l56 62h95zM220 210l342 382q-61 47 -147 47
q-72 0 -126 -33t-83.5 -93t-29.5 -139q0 -95 44 -164zM610 539l-342 -381q60 -48 147 -48q72 0 126 33t83.5 93t29.5 138q0 96 -44 165zM260 891l309 42v-62l-309 -42v62z" />
    <glyph glyph-name="oslashacute" unicode="&#x1ff;" horiz-adv-x="644" 
d="M530 439q31 -36 47.5 -82t16.5 -100q0 -78 -34 -140t-96 -97t-142 -35q-99 0 -169 53l-36 -38h-73l70 74q-31 35 -47.5 82t-16.5 101q0 78 34.5 139.5t96 96t141.5 34.5q98 0 169 -52l35 38h74zM198 164l211 225q-35 26 -87 26q-68 0 -106.5 -43t-38.5 -115q0 -54 21 -93
zM445 348l-211 -224q37 -27 88 -27q67 0 106 43.5t39 116.5q0 52 -22 91zM362 754h128l-126 -142h-107z" />
    <glyph glyph-name="uni0218" unicode="&#x218;" horiz-adv-x="657" 
d="M120 58.5q-82 72.5 -85 200.5h138q2 -74 48.5 -115.5t125.5 -41.5q66 0 107 30t41 79q0 39 -17 62.5t-55 36.5t-105 19q-131 11 -195 64t-64 151q0 66 33 116t93 77t139 27q130 0 205.5 -63.5t81.5 -179.5h-137q-5 62 -43 95.5t-105 33.5q-62 0 -98.5 -26.5t-36.5 -71.5
q0 -37 17 -59t55.5 -34.5t104.5 -17.5q133 -11 196 -64t63 -156q0 -71 -34.5 -124.5t-99 -82t-150.5 -28.5q-141 0 -223 72.5zM308 -68h111l-70 -130h-80z" />
    <glyph glyph-name="uni0219" unicode="&#x219;" horiz-adv-x="534" 
d="M111 32.5q-62 47.5 -70 126.5h128q8 -33 36 -50.5t73 -17.5q48 0 75.5 16.5t27.5 45.5q0 21 -8 33t-32 19t-71 9q-118 5 -166.5 42t-48.5 109q0 76 57.5 119t159.5 43q97 0 154 -41t69 -112h-125q-22 49 -99 49q-44 0 -69 -14t-25 -39q0 -18 8 -28.5t31 -16t69 -7.5
q82 -3 130 -21.5t68.5 -52.5t20.5 -86q0 -81 -59.5 -127t-164.5 -46q-107 0 -169 47.5zM250 -68h111l-70 -130h-80z" />
    <glyph glyph-name="uni021A" unicode="&#x21a;" horiz-adv-x="635" 
d="M251 0v640h-221v110h575v-110h-221v-640h-133zM260 -68h111l-70 -130h-80z" />
    <glyph glyph-name="uni021B" unicode="&#x21b;" horiz-adv-x="416" 
d="M139 37.5q-40 37.5 -40 103.5v262h-93v110h93v169h125v-169h164v-110h-164v-246q0 -47 45 -47h119v-110h-129q-80 0 -120 37.5zM229 -68h111l-70 -130h-80z" />
    <glyph glyph-name="circumflex" unicode="&#x2c6;" horiz-adv-x="423" 
d="M373 612h-113l-51 60l-52 -60h-107l115 142h93z" />
    <glyph glyph-name="caron" unicode="&#x2c7;" horiz-adv-x="423" 
d="M260 754h113l-115 -142h-93l-115 142h107l52 -60z" />
    <glyph glyph-name="breve" unicode="&#x2d8;" horiz-adv-x="425" 
d="M80 628q-30 27 -30 76v34h98v-23q0 -37 38 -37h52q19 0 29 9.5t10 27.5v23h98v-34q0 -49 -31 -76t-90 -27h-85q-59 0 -89 27z" />
    <glyph glyph-name="dotaccent" unicode="&#x2d9;" horiz-adv-x="208" 
d="M50 750h108v-142h-108v142z" />
    <glyph glyph-name="ring" unicode="&#x2da;" horiz-adv-x="291" 
d="M78 623.5q-28 27.5 -28 67.5q0 39 28 67t68 28q39 0 67 -28t28 -67q0 -40 -28 -67.5t-67 -27.5q-40 0 -68 27.5zM172.5 665q11.5 11 11.5 26t-11.5 25.5t-26.5 10.5q-16 0 -27 -10t-11 -26t11 -26.5t27 -10.5q15 0 26.5 11z" />
    <glyph glyph-name="ogonek" unicode="&#x2db;" horiz-adv-x="322" 
d="M75.5 -191q-25.5 20 -25.5 56q0 46 45 86.5t107 65.5l70 -17q-124 -60 -124 -99q0 -22 35 -22q23 0 38 5v-82q-12 -5 -32.5 -9t-40.5 -4q-47 0 -72.5 20z" />
    <glyph glyph-name="tilde" unicode="&#x2dc;" horiz-adv-x="413" 
d="M50 707h367v-95h-367v95z" />
    <glyph glyph-name="hungarumlaut" unicode="&#x2dd;" horiz-adv-x="441" 
d="M138 754h105l-91 -142h-102zM285 754h106l-95 -142h-101z" />
    <glyph glyph-name="gravecomb" unicode="&#x300;" 
d="M-233 754h128l105 -142h-108z" />
    <glyph glyph-name="acutecomb" unicode="&#x301;" 
d="M-128 754h128l-126 -142h-107z" />
    <glyph glyph-name="uni0302" unicode="&#x302;" 
d="M0 612h-113l-51 60l-52 -60h-107l115 142h93z" />
    <glyph glyph-name="tildecomb" unicode="&#x303;" 
d="M-367 707h367v-95h-367v95z" />
    <glyph glyph-name="uni0304" unicode="&#x304;" 
d="M-367 707h367v-95h-367v95z" />
    <glyph glyph-name="uni0306" unicode="&#x306;" 
d="M-295 628q-30 27 -30 76v34h98v-23q0 -37 38 -37h52q19 0 29 9.5t10 27.5v23h98v-34q0 -49 -31 -76t-90 -27h-85q-59 0 -89 27z" />
    <glyph glyph-name="uni0307" unicode="&#x307;" 
d="M-108 750h108v-142h-108v142z" />
    <glyph glyph-name="uni0308" unicode="&#x308;" 
d="M-335 750h108v-142h-108v142zM-107 750h107v-142h-107v142z" />
    <glyph glyph-name="uni030A" unicode="&#x30a;" 
d="M-163 623.5q-28 27.5 -28 67.5q0 39 28 67t68 28q39 0 67 -28t28 -67q0 -40 -28 -67.5t-67 -27.5q-40 0 -68 27.5zM-68.5 665q11.5 11 11.5 26t-11.5 25.5t-26.5 10.5q-16 0 -27 -10t-11 -26t11 -26.5t27 -10.5q15 0 26.5 11z" />
    <glyph glyph-name="uni030B" unicode="&#x30b;" 
d="M-253 754h105l-91 -142h-102zM-106 754h106l-95 -142h-101z" />
    <glyph glyph-name="uni030C" unicode="&#x30c;" 
d="M-113 754h113l-115 -142h-93l-115 142h107l52 -60z" />
    <glyph glyph-name="uni0326" unicode="&#x326;" 
d="M-111 -68h111l-70 -130h-80z" />
    <glyph glyph-name="uni0327" unicode="&#x327;" 
d="M-137 -114q41 0 41 38v97h96v-110q0 -55 -29 -83t-85 -28h-57v86h34z" />
    <glyph glyph-name="uni0328" unicode="&#x328;" 
d="M-196.5 -191q-25.5 20 -25.5 56q0 46 45 86.5t107 65.5l70 -17q-124 -60 -124 -99q0 -22 35 -22q23 0 38 5v-82q-12 -5 -32.5 -9t-40.5 -4q-47 0 -72.5 20z" />
    <glyph glyph-name="pi" unicode="&#x3c0;" horiz-adv-x="659" 
d="M533 412v-292q0 -38 40 -38q20 0 29 5v-89q-23 -13 -63 -13q-62 0 -96.5 29.5t-34.5 90.5v307h-167v-412h-125v412h-89v101h604v-101h-98z" />
    <glyph glyph-name="uni060C" unicode="&#x60c;" horiz-adv-x="287" 
d="M161 -14h-131l114 296h93z" />
    <glyph glyph-name="uni060C" horiz-adv-x="287" 
d="M161 -14h-131l114 296h93z" />
    <glyph glyph-name="uni061B" unicode="&#x61b;" horiz-adv-x="274" 
d="M234 569l-77 -296h-127l114 296h90zM156 130v-145h-117v145h117z" />
    <glyph glyph-name="uni061B" horiz-adv-x="274" 
d="M234 569l-77 -296h-127l114 296h90zM156 130v-145h-117v145h117z" />
    <glyph glyph-name="uni061F" unicode="&#x61f;" horiz-adv-x="544" 
d="M391 733.5q55 -30.5 84 -82.5t29 -116v-13h-124v13q0 47 -30 79.5t-83 32.5q-51 0 -78.5 -30.5t-27.5 -68.5q0 -31 15 -55t43 -48l131 -105v-103h-125v58l-73 61q-41 34 -66 60t-40.5 61t-15.5 80q0 52 27.5 99.5t80.5 77.5t125 30q73 0 128 -30.5zM225 0v142h125v-142
h-125z" />
    <glyph glyph-name="uni061F" horiz-adv-x="544" 
d="M391 733.5q55 -30.5 84 -82.5t29 -116v-13h-124v13q0 47 -30 79.5t-83 32.5q-51 0 -78.5 -30.5t-27.5 -68.5q0 -31 15 -55t43 -48l131 -105v-103h-125v58l-73 61q-41 34 -66 60t-40.5 61t-15.5 80q0 52 27.5 99.5t80.5 77.5t125 30q73 0 128 -30.5zM225 0v142h125v-142
h-125z" />
    <glyph glyph-name="uni0621" unicode="&#x621;" horiz-adv-x="504" 
d="M449 125v-125h-419v125h70q-27 38 -27 91q0 87 51.5 137t154.5 50q39 0 74 -6.5t60 -16.5l-22 -115q-62 13 -115 13q-46 0 -69.5 -21.5t-23.5 -54.5q0 -36 18 -56.5t63 -20.5h185z" />
    <glyph glyph-name="uni0621" horiz-adv-x="504" 
d="M449 125v-125h-419v125h70q-27 38 -27 91q0 87 51.5 137t154.5 50q39 0 74 -6.5t60 -16.5l-22 -115q-62 13 -115 13q-46 0 -69.5 -21.5t-23.5 -54.5q0 -36 18 -56.5t63 -20.5h185z" />
    <glyph glyph-name="uni0622" unicode="&#x622;" horiz-adv-x="250" 
d="M70 613h110v-613h-110v613zM228.5 692.5q-20.5 -8.5 -41.5 -8.5q-23 0 -62 15q-12 5 -24 8.5t-21 3.5q-33 0 -65 -21l-20 58q14 11 36 19t44 8q13 0 26 -4t24 -9q30 -14 53 -14q17 0 32 5t33 16l17 -58q-11 -10 -31.5 -18.5z" />
    <glyph glyph-name="uni0622" horiz-adv-x="250" 
d="M70 613h110v-613h-110v613zM228.5 692.5q-20.5 -8.5 -41.5 -8.5q-23 0 -62 15q-12 5 -24 8.5t-21 3.5q-33 0 -65 -21l-20 58q14 11 36 19t44 8q13 0 26 -4t24 -9q30 -14 53 -14q17 0 32 5t33 16l17 -58q-11 -10 -31.5 -18.5z" />
    <glyph glyph-name="uni0623" unicode="&#x623;" horiz-adv-x="250" 
d="M70 613h110v-613h-110v613zM218 753v-65h-187v62h29q-15 17 -15 47q0 41 28.5 63.5t69.5 22.5q35 0 65 -13l-13 -54q-26 5 -52 5q-20 0 -32 -8.5t-12 -25.5t7 -25.5t25 -8.5h87z" />
    <glyph glyph-name="uni0623" horiz-adv-x="250" 
d="M70 613h110v-613h-110v613zM218 753v-65h-187v62h29q-15 17 -15 47q0 41 28.5 63.5t69.5 22.5q35 0 65 -13l-13 -54q-26 5 -52 5q-20 0 -32 -8.5t-12 -25.5t7 -25.5t25 -8.5h87z" />
    <glyph glyph-name="uni0624" unicode="&#x624;" horiz-adv-x="524" 
d="M384.5 437.5q49.5 -13.5 84.5 -33.5v-432q0 -94 -45.5 -141.5t-150.5 -47.5h-207v130h210q46 0 64.5 13t18.5 48v88q-17 -29 -49 -45.5t-86 -16.5q-98 0 -146 59t-48 146q0 73 31 128.5t88.5 86.5t132.5 31q53 0 102.5 -13.5zM359 167v136q-38 18 -89 18
q-62 0 -93.5 -27.5t-31.5 -73.5q0 -40 27 -65t79 -25q77 0 108 37zM362 591v-65h-187v62h29q-15 17 -15 47q0 41 28.5 63.5t69.5 22.5q35 0 65 -13l-13 -54q-26 5 -52 5q-20 0 -32 -8.5t-12 -25.5t7 -25.5t25 -8.5h87z" />
    <glyph glyph-name="uni0624" horiz-adv-x="524" 
d="M384.5 437.5q49.5 -13.5 84.5 -33.5v-432q0 -94 -45.5 -141.5t-150.5 -47.5h-207v130h210q46 0 64.5 13t18.5 48v88q-17 -29 -49 -45.5t-86 -16.5q-98 0 -146 59t-48 146q0 73 31 128.5t88.5 86.5t132.5 31q53 0 102.5 -13.5zM359 167v136q-38 18 -89 18
q-62 0 -93.5 -27.5t-31.5 -73.5q0 -40 27 -65t79 -25q77 0 108 37zM362 591v-65h-187v62h29q-15 17 -15 47q0 41 28.5 63.5t69.5 22.5q35 0 65 -13l-13 -54q-26 5 -52 5q-20 0 -32 -8.5t-12 -25.5t7 -25.5t25 -8.5h87z" />
    <glyph glyph-name="uni0625" unicode="&#x625;" horiz-adv-x="250" 
d="M70 713h110v-613h-110v613zM215 -79v-65h-187v62h29q-15 17 -15 47q0 41 28.5 63.5t69.5 22.5q35 0 65 -13l-13 -54q-26 5 -52 5q-20 0 -32 -8.5t-12 -25.5t7 -25.5t25 -8.5h87z" />
    <glyph glyph-name="uni0625" horiz-adv-x="250" 
d="M70 713h110v-613h-110v613zM215 -79v-65h-187v62h29q-15 17 -15 47q0 41 28.5 63.5t69.5 22.5q35 0 65 -13l-13 -54q-26 5 -52 5q-20 0 -32 -8.5t-12 -25.5t7 -25.5t25 -8.5h87z" />
    <glyph glyph-name="uni0626" unicode="&#x626;" horiz-adv-x="850" 
d="M177 -177.5q-82 39.5 -112 107.5t-30 167q0 59 10 119.5t23 92.5h110q-9 -32 -18.5 -86.5t-9.5 -112.5q0 -79 24 -121t81.5 -59t164.5 -17t163 11t74 29.5t18 45.5q0 31 -10 45.5t-36 18.5l-123 19q-71 11 -108.5 32.5t-53.5 63t-16 115.5q0 99 66.5 156.5t176.5 57.5
q46 0 97.5 -14t85.5 -38l-38 -111q-35 15 -67.5 24t-80.5 9q-65 0 -95 -20t-30 -64q0 -30 8.5 -46.5t29 -25t58.5 -13.5l105 -14q57 -7 89 -29t44.5 -59.5t12.5 -99.5q0 -109 -85.5 -166t-294.5 -57q-151 0 -233 39.5zM210 448v-65h-187v62h29q-15 17 -15 47q0 41 28.5 63.5
t69.5 22.5q35 0 65 -13l-13 -54q-26 5 -52 5q-20 0 -32 -8.5t-12 -25.5t7 -25.5t25 -8.5h87z" />
    <glyph glyph-name="uni0626" horiz-adv-x="850" 
d="M177 -177.5q-82 39.5 -112 107.5t-30 167q0 59 10 119.5t23 92.5h110q-9 -32 -18.5 -86.5t-9.5 -112.5q0 -79 24 -121t81.5 -59t164.5 -17t163 11t74 29.5t18 45.5q0 31 -10 45.5t-36 18.5l-123 19q-71 11 -108.5 32.5t-53.5 63t-16 115.5q0 99 66.5 156.5t176.5 57.5
q46 0 97.5 -14t85.5 -38l-38 -111q-35 15 -67.5 24t-80.5 9q-65 0 -95 -20t-30 -64q0 -30 8.5 -46.5t29 -25t58.5 -13.5l105 -14q57 -7 89 -29t44.5 -59.5t12.5 -99.5q0 -109 -85.5 -166t-294.5 -57q-151 0 -233 39.5zM210 448v-65h-187v62h29q-15 17 -15 47q0 41 28.5 63.5
t69.5 22.5q35 0 65 -13l-13 -54q-26 5 -52 5q-20 0 -32 -8.5t-12 -25.5t7 -25.5t25 -8.5h87z" />
    <glyph glyph-name="uni0627" unicode="&#x627;" horiz-adv-x="250" 
d="M70 713h110v-713h-110v713z" />
    <glyph glyph-name="uni0627" horiz-adv-x="250" 
d="M70 713h110v-713h-110v713z" />
    <glyph glyph-name="uni0628" unicode="&#x628;" horiz-adv-x="909" 
d="M138 31q-59 31 -81 84.5t-22 132.5q0 38 9.5 80.5t22.5 73.5h105q-10 -28 -18.5 -69.5t-8.5 -69.5q0 -75 36.5 -104t124.5 -29h317q55 0 85.5 12.5t30.5 50.5v235h110v-222q0 -103 -56.5 -154.5t-175.5 -51.5h-313q-107 0 -166 31zM385 -104h110v-110h-110v110z" />
    <glyph glyph-name="uni0628" horiz-adv-x="909" 
d="M138 31q-59 31 -81 84.5t-22 132.5q0 38 9.5 80.5t22.5 73.5h105q-10 -28 -18.5 -69.5t-8.5 -69.5q0 -75 36.5 -104t124.5 -29h317q55 0 85.5 12.5t30.5 50.5v235h110v-222q0 -103 -56.5 -154.5t-175.5 -51.5h-313q-107 0 -166 31zM385 -104h110v-110h-110v110z" />
    <glyph glyph-name="uni0629" unicode="&#x629;" horiz-adv-x="533" 
d="M473 515l-1 -306q0 -101 -53.5 -155t-163.5 -54q-111 0 -165.5 60t-54.5 150q0 73 32 128.5t90 86.5t135 31q33 0 71 -9v68h110zM337 146.5q26 16.5 26 46.5v126q-42 7 -83 7q-64 0 -97 -27.5t-33 -73.5q0 -95 107 -95q54 0 80 16.5zM142 693h105v-110h-105v110zM293 693
h105v-110h-105v110z" />
    <glyph glyph-name="uni0629" horiz-adv-x="533" 
d="M473 515l-1 -306q0 -101 -53.5 -155t-163.5 -54q-111 0 -165.5 60t-54.5 150q0 73 32 128.5t90 86.5t135 31q33 0 71 -9v68h110zM337 146.5q26 16.5 26 46.5v126q-42 7 -83 7q-64 0 -97 -27.5t-33 -73.5q0 -95 107 -95q54 0 80 16.5zM142 693h105v-110h-105v110zM293 693
h105v-110h-105v110z" />
    <glyph glyph-name="uni062A" unicode="&#x62a;" horiz-adv-x="909" 
d="M138 31q-59 31 -81 84.5t-22 132.5q0 38 9.5 80.5t22.5 73.5h105q-10 -28 -18.5 -69.5t-8.5 -69.5q0 -75 36.5 -104t124.5 -29h317q55 0 85.5 12.5t30.5 50.5v235h110v-222q0 -103 -56.5 -154.5t-175.5 -51.5h-313q-107 0 -166 31zM315 551h105v-110h-105v110zM466 551
h105v-110h-105v110z" />
    <glyph glyph-name="uni062A" horiz-adv-x="909" 
d="M138 31q-59 31 -81 84.5t-22 132.5q0 38 9.5 80.5t22.5 73.5h105q-10 -28 -18.5 -69.5t-8.5 -69.5q0 -75 36.5 -104t124.5 -29h317q55 0 85.5 12.5t30.5 50.5v235h110v-222q0 -103 -56.5 -154.5t-175.5 -51.5h-313q-107 0 -166 31zM315 551h105v-110h-105v110zM466 551
h105v-110h-105v110z" />
    <glyph glyph-name="uni062B" unicode="&#x62b;" horiz-adv-x="909" 
d="M138 31q-59 31 -81 84.5t-22 132.5q0 38 9.5 80.5t22.5 73.5h105q-10 -28 -18.5 -69.5t-8.5 -69.5q0 -75 36.5 -104t124.5 -29h317q55 0 85.5 12.5t30.5 50.5v235h110v-222q0 -103 -56.5 -154.5t-175.5 -51.5h-313q-107 0 -166 31zM392 698h110v-105h-110v105zM315 550
h105v-110h-105v110zM471 550h105v-110h-105v110z" />
    <glyph glyph-name="uni062B" horiz-adv-x="909" 
d="M138 31q-59 31 -81 84.5t-22 132.5q0 38 9.5 80.5t22.5 73.5h105q-10 -28 -18.5 -69.5t-8.5 -69.5q0 -75 36.5 -104t124.5 -29h317q55 0 85.5 12.5t30.5 50.5v235h110v-222q0 -103 -56.5 -154.5t-175.5 -51.5h-313q-107 0 -166 31zM392 698h110v-105h-110v105zM315 550
h105v-110h-105v110zM471 550h105v-110h-105v110z" />
    <glyph glyph-name="uni062C" unicode="&#x62c;" horiz-adv-x="656" 
d="M85.5 -255q-65.5 64 -65.5 170q0 89 49.5 152t162.5 63h245q24 0 24 28v68q0 95 -148 95q-97 0 -185 -32l-28 111q46 22 98.5 36.5t125.5 14.5q99 0 175.5 -43t76.5 -163v-86q0 -159 -139 -159h-251q-91 0 -91 -79q0 -50 35.5 -80t130.5 -30h209v-130h-220
q-139 0 -204.5 64zM295 -57h99v-99h-99v99z" />
    <glyph glyph-name="uni062C" horiz-adv-x="656" 
d="M85.5 -255q-65.5 64 -65.5 170q0 89 49.5 152t162.5 63h245q24 0 24 28v68q0 95 -148 95q-97 0 -185 -32l-28 111q46 22 98.5 36.5t125.5 14.5q99 0 175.5 -43t76.5 -163v-86q0 -159 -139 -159h-251q-91 0 -91 -79q0 -50 35.5 -80t130.5 -30h209v-130h-220
q-139 0 -204.5 64zM295 -57h99v-99h-99v99z" />
    <glyph glyph-name="uni062D" unicode="&#x62d;" horiz-adv-x="656" 
d="M85.5 -255q-65.5 64 -65.5 170q0 89 49.5 152t162.5 63h245q24 0 24 28v68q0 95 -148 95q-97 0 -185 -32l-28 111q46 22 98.5 36.5t125.5 14.5q99 0 175.5 -43t76.5 -163v-86q0 -159 -139 -159h-251q-91 0 -91 -79q0 -50 35.5 -80t130.5 -30h209v-130h-220
q-139 0 -204.5 64z" />
    <glyph glyph-name="uni062D" horiz-adv-x="656" 
d="M85.5 -255q-65.5 64 -65.5 170q0 89 49.5 152t162.5 63h245q24 0 24 28v68q0 95 -148 95q-97 0 -185 -32l-28 111q46 22 98.5 36.5t125.5 14.5q99 0 175.5 -43t76.5 -163v-86q0 -159 -139 -159h-251q-91 0 -91 -79q0 -50 35.5 -80t130.5 -30h209v-130h-220
q-139 0 -204.5 64z" />
    <glyph glyph-name="uni062E" unicode="&#x62e;" horiz-adv-x="656" 
d="M85.5 -255q-65.5 64 -65.5 170q0 89 49.5 152t162.5 63h245q24 0 24 28v68q0 95 -148 95q-97 0 -185 -32l-28 111q46 22 98.5 36.5t125.5 14.5q99 0 175.5 -43t76.5 -163v-86q0 -159 -139 -159h-251q-91 0 -91 -79q0 -50 35.5 -80t130.5 -30h209v-130h-220
q-139 0 -204.5 64zM299 653h110v-110h-110v110z" />
    <glyph glyph-name="uni062E" horiz-adv-x="656" 
d="M85.5 -255q-65.5 64 -65.5 170q0 89 49.5 152t162.5 63h245q24 0 24 28v68q0 95 -148 95q-97 0 -185 -32l-28 111q46 22 98.5 36.5t125.5 14.5q99 0 175.5 -43t76.5 -163v-86q0 -159 -139 -159h-251q-91 0 -91 -79q0 -50 35.5 -80t130.5 -30h209v-130h-220
q-139 0 -204.5 64zM299 653h110v-110h-110v110z" />
    <glyph glyph-name="uni062F" unicode="&#x62f;" horiz-adv-x="552" 
d="M361.5 409q85.5 -35 116 -82.5t29.5 -112.5l-1 -53q-2 -81 -44.5 -121t-129.5 -40h-292v130h351v73q0 33 -20.5 57t-84 44t-186.5 33l19 124q157 -17 242.5 -52z" />
    <glyph glyph-name="uni062F" horiz-adv-x="552" 
d="M361.5 409q85.5 -35 116 -82.5t29.5 -112.5l-1 -53q-2 -81 -44.5 -121t-129.5 -40h-292v130h351v73q0 33 -20.5 57t-84 44t-186.5 33l19 124q157 -17 242.5 -52z" />
    <glyph glyph-name="uni0630" unicode="&#x630;" horiz-adv-x="552" 
d="M361.5 409q85.5 -35 116 -82.5t29.5 -112.5l-1 -53q-2 -81 -44.5 -121t-129.5 -40h-292v130h351v73q0 33 -20.5 57t-84 44t-186.5 33l19 124q157 -17 242.5 -52zM192 678h110v-110h-110v110z" />
    <glyph glyph-name="uni0630" horiz-adv-x="552" 
d="M361.5 409q85.5 -35 116 -82.5t29.5 -112.5l-1 -53q-2 -81 -44.5 -121t-129.5 -40h-292v130h351v73q0 33 -20.5 57t-84 44t-186.5 33l19 124q157 -17 242.5 -52zM192 678h110v-110h-110v110z" />
    <glyph glyph-name="uni0631" unicode="&#x631;" horiz-adv-x="323" 
d="M87 -87q40 0 55.5 9.5t15.5 35.5v469h110v-465q0 -82 -39.5 -130.5t-137.5 -48.5h-101v130h97z" />
    <glyph glyph-name="uni0631" horiz-adv-x="323" 
d="M87 -87q40 0 55.5 9.5t15.5 35.5v469h110v-465q0 -82 -39.5 -130.5t-137.5 -48.5h-101v130h97z" />
    <glyph glyph-name="uni0632" unicode="&#x632;" horiz-adv-x="323" 
d="M87 -87q40 0 55.5 9.5t15.5 35.5v469h110v-465q0 -82 -39.5 -130.5t-137.5 -48.5h-101v130h97zM158 628h110v-110h-110v110z" />
    <glyph glyph-name="uni0632" horiz-adv-x="323" 
d="M87 -87q40 0 55.5 9.5t15.5 35.5v469h110v-465q0 -82 -39.5 -130.5t-137.5 -48.5h-101v130h97zM158 628h110v-110h-110v110z" />
    <glyph glyph-name="uni0633" unicode="&#x633;" horiz-adv-x="1260" 
d="M1200 425v-255q0 -85 -54 -127.5t-144 -42.5q-99 0 -134 52q-36 -52 -133 -52h-107q-16 -96 -88 -154t-210 -58q-161 0 -228 84t-67 216q0 57 11.5 116t26.5 92h110q-11 -34 -22 -87t-11 -111q0 -85 41 -132.5t148 -47.5q104 0 144 36t40 105v306h110v-235h104
q39 0 56 10t17 32v193h110v-218q30 -17 84 -17q45 0 65.5 9.5t20.5 30.5v255h110z" />
    <glyph glyph-name="uni0633" horiz-adv-x="1260" 
d="M1200 425v-255q0 -85 -54 -127.5t-144 -42.5q-99 0 -134 52q-36 -52 -133 -52h-107q-16 -96 -88 -154t-210 -58q-161 0 -228 84t-67 216q0 57 11.5 116t26.5 92h110q-11 -34 -22 -87t-11 -111q0 -85 41 -132.5t148 -47.5q104 0 144 36t40 105v306h110v-235h104
q39 0 56 10t17 32v193h110v-218q30 -17 84 -17q45 0 65.5 9.5t20.5 30.5v255h110z" />
    <glyph glyph-name="uni0634" unicode="&#x634;" horiz-adv-x="1260" 
d="M1200 425v-255q0 -85 -54 -127.5t-144 -42.5q-99 0 -134 52q-36 -52 -133 -52h-107q-16 -96 -88 -154t-210 -58q-161 0 -228 84t-67 216q0 57 11.5 116t26.5 92h110q-11 -34 -22 -87t-11 -111q0 -85 41 -132.5t148 -47.5q104 0 144 36t40 105v306h110v-235h104
q39 0 56 10t17 32v193h110v-218q30 -17 84 -17q45 0 65.5 9.5t20.5 30.5v255h110zM815 746h110v-105h-110v105zM738 598h105v-110h-105v110zM894 598h105v-110h-105v110z" />
    <glyph glyph-name="uni0634" horiz-adv-x="1260" 
d="M1200 425v-255q0 -85 -54 -127.5t-144 -42.5q-99 0 -134 52q-36 -52 -133 -52h-107q-16 -96 -88 -154t-210 -58q-161 0 -228 84t-67 216q0 57 11.5 116t26.5 92h110q-11 -34 -22 -87t-11 -111q0 -85 41 -132.5t148 -47.5q104 0 144 36t40 105v306h110v-235h104
q39 0 56 10t17 32v193h110v-218q30 -17 84 -17q45 0 65.5 9.5t20.5 30.5v255h110zM815 746h110v-105h-110v105zM738 598h105v-110h-105v110zM894 598h105v-110h-105v110z" />
    <glyph glyph-name="uni0635" unicode="&#x635;" horiz-adv-x="1213" 
d="M1097.5 393.5q55.5 -57.5 55.5 -162.5q0 -119 -63 -175t-184 -56h-278q-16 -96 -88 -154t-210 -58q-161 0 -228 84t-67 216q0 57 11.5 116t26.5 92h110q-11 -34 -22 -87t-11 -111q0 -85 41 -132.5t148 -47.5q104 0 144 36t40 105v358h110v-51l33 12q106 37 169.5 55
t115.5 18q91 0 146.5 -57.5zM1009 149.5q31 19.5 31 73.5q0 50 -29.5 74t-79.5 24q-42 0 -100.5 -15.5t-168.5 -50.5l-29 -9v-116h273q72 0 103 19.5z" />
    <glyph glyph-name="uni0635" horiz-adv-x="1213" 
d="M1097.5 393.5q55.5 -57.5 55.5 -162.5q0 -119 -63 -175t-184 -56h-278q-16 -96 -88 -154t-210 -58q-161 0 -228 84t-67 216q0 57 11.5 116t26.5 92h110q-11 -34 -22 -87t-11 -111q0 -85 41 -132.5t148 -47.5q104 0 144 36t40 105v358h110v-51l33 12q106 37 169.5 55
t115.5 18q91 0 146.5 -57.5zM1009 149.5q31 19.5 31 73.5q0 50 -29.5 74t-79.5 24q-42 0 -100.5 -15.5t-168.5 -50.5l-29 -9v-116h273q72 0 103 19.5z" />
    <glyph glyph-name="uni0636" unicode="&#x636;" horiz-adv-x="1213" 
d="M1097.5 393.5q55.5 -57.5 55.5 -162.5q0 -119 -63 -175t-184 -56h-278q-16 -96 -88 -154t-210 -58q-161 0 -228 84t-67 216q0 57 11.5 116t26.5 92h110q-11 -34 -22 -87t-11 -111q0 -85 41 -132.5t148 -47.5q104 0 144 36t40 105v358h110v-51l33 12q106 37 169.5 55
t115.5 18q91 0 146.5 -57.5zM1009 149.5q31 19.5 31 73.5q0 50 -29.5 74t-79.5 24q-42 0 -100.5 -15.5t-168.5 -50.5l-29 -9v-116h273q72 0 103 19.5zM639 616h110v-110h-110v110z" />
    <glyph glyph-name="uni0636" horiz-adv-x="1213" 
d="M1097.5 393.5q55.5 -57.5 55.5 -162.5q0 -119 -63 -175t-184 -56h-278q-16 -96 -88 -154t-210 -58q-161 0 -228 84t-67 216q0 57 11.5 116t26.5 92h110q-11 -34 -22 -87t-11 -111q0 -85 41 -132.5t148 -47.5q104 0 144 36t40 105v358h110v-51l33 12q106 37 169.5 55
t115.5 18q91 0 146.5 -57.5zM1009 149.5q31 19.5 31 73.5q0 50 -29.5 74t-79.5 24q-42 0 -100.5 -15.5t-168.5 -50.5l-29 -9v-116h273q72 0 103 19.5zM639 616h110v-110h-110v110z" />
    <glyph glyph-name="uni0637" unicode="&#x637;" horiz-adv-x="778" 
d="M661 392q57 -59 57 -166q0 -116 -63 -171t-184 -55h-441v130h88v583h110v-338l23 9q93 34 150.5 50.5t108.5 16.5q94 0 151 -59zM574 148.5q31 18.5 31 69.5q0 52 -29.5 77.5t-79.5 25.5q-37 0 -84.5 -12t-128.5 -38q-10 -3 -55 -17v-124h243q72 0 103 18.5z" />
    <glyph glyph-name="uni0637" horiz-adv-x="778" 
d="M661 392q57 -59 57 -166q0 -116 -63 -171t-184 -55h-441v130h88v583h110v-338l23 9q93 34 150.5 50.5t108.5 16.5q94 0 151 -59zM574 148.5q31 18.5 31 69.5q0 52 -29.5 77.5t-79.5 25.5q-37 0 -84.5 -12t-128.5 -38q-10 -3 -55 -17v-124h243q72 0 103 18.5z" />
    <glyph glyph-name="uni0638" unicode="&#x638;" horiz-adv-x="778" 
d="M661 392q57 -59 57 -166q0 -116 -63 -171t-184 -55h-441v130h88v583h110v-338l23 9q93 34 150.5 50.5t108.5 16.5q94 0 151 -59zM574 148.5q31 18.5 31 69.5q0 52 -29.5 77.5t-79.5 25.5q-37 0 -84.5 -12t-128.5 -38q-10 -3 -55 -17v-124h243q72 0 103 18.5zM421 662h110
v-110h-110v110z" />
    <glyph glyph-name="uni0638" horiz-adv-x="778" 
d="M661 392q57 -59 57 -166q0 -116 -63 -171t-184 -55h-441v130h88v583h110v-338l23 9q93 34 150.5 50.5t108.5 16.5q94 0 151 -59zM574 148.5q31 18.5 31 69.5q0 52 -29.5 77.5t-79.5 25.5q-37 0 -84.5 -12t-128.5 -38q-10 -3 -55 -17v-124h243q72 0 103 18.5zM421 662h110
v-110h-110v110z" />
    <glyph glyph-name="uni0639" unicode="&#x639;" horiz-adv-x="558" 
d="M528 -189v-130h-257q-137 0 -196 58t-59 157q0 67 36 113.5t102 70.5q-46 26 -62.5 62.5t-16.5 88.5q0 110 65 165t168 55q50 0 96.5 -9t71.5 -20l-27 -120q-36 8 -66.5 13.5t-74.5 5.5q-60 0 -89 -23.5t-29 -66.5q0 -53 32 -77t111 -24h172v-130h-180
q-81 0 -123.5 -13.5t-56.5 -33.5t-14 -48q0 -42 32.5 -68t118.5 -26h246z" />
    <glyph glyph-name="uni0639" horiz-adv-x="558" 
d="M528 -189v-130h-257q-137 0 -196 58t-59 157q0 67 36 113.5t102 70.5q-46 26 -62.5 62.5t-16.5 88.5q0 110 65 165t168 55q50 0 96.5 -9t71.5 -20l-27 -120q-36 8 -66.5 13.5t-74.5 5.5q-60 0 -89 -23.5t-29 -66.5q0 -53 32 -77t111 -24h172v-130h-180
q-81 0 -123.5 -13.5t-56.5 -33.5t-14 -48q0 -42 32.5 -68t118.5 -26h246z" />
    <glyph glyph-name="uni063A" unicode="&#x63a;" horiz-adv-x="558" 
d="M528 -189v-130h-257q-137 0 -196 58t-59 157q0 67 36 113.5t102 70.5q-46 26 -62.5 62.5t-16.5 88.5q0 110 65 165t168 55q50 0 96.5 -9t71.5 -20l-27 -120q-36 8 -66.5 13.5t-74.5 5.5q-60 0 -89 -23.5t-29 -66.5q0 -53 32 -77t111 -24h172v-130h-180
q-81 0 -123.5 -13.5t-56.5 -33.5t-14 -48q0 -42 32.5 -68t118.5 -26h246zM253 652h110v-110h-110v110z" />
    <glyph glyph-name="uni063A" horiz-adv-x="558" 
d="M528 -189v-130h-257q-137 0 -196 58t-59 157q0 67 36 113.5t102 70.5q-46 26 -62.5 62.5t-16.5 88.5q0 110 65 165t168 55q50 0 96.5 -9t71.5 -20l-27 -120q-36 8 -66.5 13.5t-74.5 5.5q-60 0 -89 -23.5t-29 -66.5q0 -53 32 -77t111 -24h172v-130h-180
q-81 0 -123.5 -13.5t-56.5 -33.5t-14 -48q0 -42 32.5 -68t118.5 -26h246zM253 652h110v-110h-110v110z" />
    <glyph glyph-name="uni0640" unicode="&#x640;" horiz-adv-x="213" 
d="M213 130l17 -10v-110l-17 -10h-213l-17 10v110l17 10h213z" />
    <glyph glyph-name="uni0640" horiz-adv-x="213" 
d="M213 130l17 -10v-110l-17 -10h-213l-17 10v110l17 10h213z" />
    <glyph glyph-name="uni0641" unicode="&#x641;" horiz-adv-x="970" 
d="M910 209q0 -104 -47.5 -156.5t-157.5 -52.5h-405q-105 0 -163 34.5t-80 94t-22 144.5q0 42 9.5 88t22.5 81h110q-10 -31 -18.5 -76.5t-8.5 -77.5q0 -60 15 -94.5t48 -49t88 -14.5h405q52 0 72.5 15t20.5 55v50q-36 -57 -130 -57q-92 0 -138 54.5t-46 135.5q0 67 30 118
t84.5 79.5t127.5 28.5q52 0 100 -13.5t82 -33.5zM799 353v108q-36 18 -84 18q-57 0 -86 -22t-29 -59q0 -33 24 -54t72 -21q75 0 103 30zM667 809h110v-110h-110v110z" />
    <glyph glyph-name="uni0641" horiz-adv-x="970" 
d="M910 209q0 -104 -47.5 -156.5t-157.5 -52.5h-405q-105 0 -163 34.5t-80 94t-22 144.5q0 42 9.5 88t22.5 81h110q-10 -31 -18.5 -76.5t-8.5 -77.5q0 -60 15 -94.5t48 -49t88 -14.5h405q52 0 72.5 15t20.5 55v50q-36 -57 -130 -57q-92 0 -138 54.5t-46 135.5q0 67 30 118
t84.5 79.5t127.5 28.5q52 0 100 -13.5t82 -33.5zM799 353v108q-36 18 -84 18q-57 0 -86 -22t-29 -59q0 -33 24 -54t72 -21q75 0 103 30zM667 809h110v-110h-110v110z" />
    <glyph glyph-name="uni0642" unicode="&#x642;" horiz-adv-x="812" 
d="M667.5 437.5q49.5 -13.5 84.5 -33.5v-412q0 -109 -59.5 -164t-196.5 -55h-147q-127 0 -195 31.5t-93.5 95t-25.5 171.5q0 52 11.5 103t25.5 81h110q-13 -35 -22.5 -83t-9.5 -94q0 -63 15.5 -100t58.5 -56t125 -19h150q54 0 84.5 8t44.5 27.5t14 55.5v68
q-17 -29 -49 -45.5t-86 -16.5q-98 0 -146 60t-48 150q0 71 31 125.5t88.5 85t132.5 30.5q53 0 102.5 -13.5zM642 167v136q-38 18 -89 18q-62 0 -93.5 -26t-31.5 -70q0 -42 27 -68.5t79 -26.5q77 0 108 37zM437 663h105v-110h-105v110zM588 663h105v-110h-105v110z" />
    <glyph glyph-name="uni0642" horiz-adv-x="812" 
d="M667.5 437.5q49.5 -13.5 84.5 -33.5v-412q0 -109 -59.5 -164t-196.5 -55h-147q-127 0 -195 31.5t-93.5 95t-25.5 171.5q0 52 11.5 103t25.5 81h110q-13 -35 -22.5 -83t-9.5 -94q0 -63 15.5 -100t58.5 -56t125 -19h150q54 0 84.5 8t44.5 27.5t14 55.5v68
q-17 -29 -49 -45.5t-86 -16.5q-98 0 -146 60t-48 150q0 71 31 125.5t88.5 85t132.5 30.5q53 0 102.5 -13.5zM642 167v136q-38 18 -89 18q-62 0 -93.5 -26t-31.5 -70q0 -42 27 -68.5t79 -26.5q77 0 108 37zM437 663h105v-110h-105v110zM588 663h105v-110h-105v110z" />
    <glyph glyph-name="uni0643" unicode="&#x643;" horiz-adv-x="879" 
d="M809 713v-507q0 -103 -56.5 -154.5t-175.5 -51.5h-273q-107 0 -166 31t-81 84.5t-22 132.5q0 38 9.5 80.5t22.5 73.5h105q-10 -28 -18.5 -69.5t-8.5 -69.5q0 -75 36.5 -104t124.5 -29h277q55 0 85.5 12.5t30.5 50.5v520h110zM433 283h-113v80h112q20 0 32.5 4.5
t12.5 12.5q0 16 -29 29t-109 13l-6 102l192 83l12 -76l-114 -46q56 -6 90 -31t34 -72q0 -99 -114 -99z" />
    <glyph glyph-name="uni0643" horiz-adv-x="879" 
d="M809 713v-507q0 -103 -56.5 -154.5t-175.5 -51.5h-273q-107 0 -166 31t-81 84.5t-22 132.5q0 38 9.5 80.5t22.5 73.5h105q-10 -28 -18.5 -69.5t-8.5 -69.5q0 -75 36.5 -104t124.5 -29h277q55 0 85.5 12.5t30.5 50.5v520h110zM433 283h-113v80h112q20 0 32.5 4.5
t12.5 12.5q0 16 -29 29t-109 13l-6 102l192 83l12 -76l-114 -46q56 -6 90 -31t34 -72q0 -99 -114 -99z" />
    <glyph glyph-name="uni0644" unicode="&#x644;" horiz-adv-x="673" 
d="M98.5 -68q-63.5 84 -63.5 216q0 57 11.5 116t26.5 92h110q-11 -34 -22 -87t-11 -111q0 -85 37.5 -132.5t136.5 -47.5q96 0 132.5 36t36.5 105v594h110v-593q0 -120 -68.5 -196t-219.5 -76q-153 0 -216.5 84z" />
    <glyph glyph-name="uni0644" horiz-adv-x="673" 
d="M98.5 -68q-63.5 84 -63.5 216q0 57 11.5 116t26.5 92h110q-11 -34 -22 -87t-11 -111q0 -85 37.5 -132.5t136.5 -47.5q96 0 132.5 36t36.5 105v594h110v-593q0 -120 -68.5 -196t-219.5 -76q-153 0 -216.5 84z" />
    <glyph glyph-name="uni0645" unicode="&#x645;" horiz-adv-x="751" 
d="M601.5 437.5q49.5 -13.5 84.5 -33.5v-238q0 -80 -52 -136t-169 -56q-71 0 -118 26.5t-72 73.5h-47q-37 0 -55 -5.5t-25.5 -20.5t-7.5 -47v-300h-110v304q0 98 50.5 146.5t166.5 52.5q2 73 33.5 129t88 87t130.5 31q53 0 102.5 -13.5zM576 303q-38 18 -89 18
q-62 0 -93.5 -30.5t-31.5 -81.5q0 -47 28 -76t83 -29q42 0 67.5 15t34.5 42z" />
    <glyph glyph-name="uni0645" horiz-adv-x="751" 
d="M601.5 437.5q49.5 -13.5 84.5 -33.5v-238q0 -80 -52 -136t-169 -56q-71 0 -118 26.5t-72 73.5h-47q-37 0 -55 -5.5t-25.5 -20.5t-7.5 -47v-300h-110v304q0 98 50.5 146.5t166.5 52.5q2 73 33.5 129t88 87t130.5 31q53 0 102.5 -13.5zM576 303q-38 18 -89 18
q-62 0 -93.5 -30.5t-31.5 -81.5q0 -47 28 -76t83 -29q42 0 67.5 15t34.5 42z" />
    <glyph glyph-name="uni0646" unicode="&#x646;" horiz-adv-x="693" 
d="M102 -133q-67 84 -67 216q0 57 11.5 116t26.5 92h110q-11 -34 -22 -87t-11 -111q0 -85 41 -132.5t148 -47.5q104 0 144 36t40 105v373h110v-372q0 -120 -72 -196t-231 -76q-161 0 -228 84zM281 519h110v-110h-110v110z" />
    <glyph glyph-name="uni0646" horiz-adv-x="693" 
d="M102 -133q-67 84 -67 216q0 57 11.5 116t26.5 92h110q-11 -34 -22 -87t-11 -111q0 -85 41 -132.5t148 -47.5q104 0 144 36t40 105v373h110v-372q0 -120 -72 -196t-231 -76q-161 0 -228 84zM281 519h110v-110h-110v110z" />
    <glyph glyph-name="uni0647" unicode="&#x647;" horiz-adv-x="533" 
d="M473 515l-1 -306q0 -101 -53.5 -155t-163.5 -54q-111 0 -165.5 60t-54.5 150q0 73 32 128.5t90 86.5t135 31q33 0 71 -9v68h110zM337 146.5q26 16.5 26 46.5v126q-42 7 -83 7q-64 0 -97 -27.5t-33 -73.5q0 -95 107 -95q54 0 80 16.5z" />
    <glyph glyph-name="uni0647" horiz-adv-x="533" 
d="M473 515l-1 -306q0 -101 -53.5 -155t-163.5 -54q-111 0 -165.5 60t-54.5 150q0 73 32 128.5t90 86.5t135 31q33 0 71 -9v68h110zM337 146.5q26 16.5 26 46.5v126q-42 7 -83 7q-64 0 -97 -27.5t-33 -73.5q0 -95 107 -95q54 0 80 16.5z" />
    <glyph glyph-name="uni0648" unicode="&#x648;" horiz-adv-x="524" 
d="M384.5 437.5q49.5 -13.5 84.5 -33.5v-432q0 -94 -45.5 -141.5t-150.5 -47.5h-207v130h210q46 0 64.5 13t18.5 48v88q-17 -29 -49 -45.5t-86 -16.5q-98 0 -146 59t-48 146q0 73 31 128.5t88.5 86.5t132.5 31q53 0 102.5 -13.5zM359 167v136q-38 18 -89 18
q-62 0 -93.5 -27.5t-31.5 -73.5q0 -40 27 -65t79 -25q77 0 108 37z" />
    <glyph glyph-name="uni0648" horiz-adv-x="524" 
d="M384.5 437.5q49.5 -13.5 84.5 -33.5v-432q0 -94 -45.5 -141.5t-150.5 -47.5h-207v130h210q46 0 64.5 13t18.5 48v88q-17 -29 -49 -45.5t-86 -16.5q-98 0 -146 59t-48 146q0 73 31 128.5t88.5 86.5t132.5 31q53 0 102.5 -13.5zM359 167v136q-38 18 -89 18
q-62 0 -93.5 -27.5t-31.5 -73.5q0 -40 27 -65t79 -25q77 0 108 37z" />
    <glyph glyph-name="uni0649" unicode="&#x649;" horiz-adv-x="850" 
d="M177 -177.5q-82 39.5 -112 107.5t-30 167q0 59 10 119.5t23 92.5h110q-9 -32 -18.5 -86.5t-9.5 -112.5q0 -79 24 -121t81.5 -59t164.5 -17t163 11t74 29.5t18 45.5q0 31 -10 45.5t-36 18.5l-123 19q-71 11 -108.5 32.5t-53.5 63t-16 115.5q0 99 66.5 156.5t176.5 57.5
q46 0 97.5 -14t85.5 -38l-38 -111q-35 15 -67.5 24t-80.5 9q-65 0 -95 -20t-30 -64q0 -30 8.5 -46.5t29 -25t58.5 -13.5l105 -14q57 -7 89 -29t44.5 -59.5t12.5 -99.5q0 -109 -85.5 -166t-294.5 -57q-151 0 -233 39.5z" />
    <glyph glyph-name="uni0649" horiz-adv-x="850" 
d="M177 -177.5q-82 39.5 -112 107.5t-30 167q0 59 10 119.5t23 92.5h110q-9 -32 -18.5 -86.5t-9.5 -112.5q0 -79 24 -121t81.5 -59t164.5 -17t163 11t74 29.5t18 45.5q0 31 -10 45.5t-36 18.5l-123 19q-71 11 -108.5 32.5t-53.5 63t-16 115.5q0 99 66.5 156.5t176.5 57.5
q46 0 97.5 -14t85.5 -38l-38 -111q-35 15 -67.5 24t-80.5 9q-65 0 -95 -20t-30 -64q0 -30 8.5 -46.5t29 -25t58.5 -13.5l105 -14q57 -7 89 -29t44.5 -59.5t12.5 -99.5q0 -109 -85.5 -166t-294.5 -57q-151 0 -233 39.5z" />
    <glyph glyph-name="uni064A" unicode="&#x64a;" horiz-adv-x="850" 
d="M177 -177.5q-82 39.5 -112 107.5t-30 167q0 59 10 119.5t23 92.5h110q-9 -32 -18.5 -86.5t-9.5 -112.5q0 -79 24 -121t81.5 -59t164.5 -17t163 11t74 29.5t18 45.5q0 31 -10 45.5t-36 18.5l-123 19q-71 11 -108.5 32.5t-53.5 63t-16 115.5q0 99 66.5 156.5t176.5 57.5
q46 0 97.5 -14t85.5 -38l-38 -111q-35 15 -67.5 24t-80.5 9q-65 0 -95 -20t-30 -64q0 -30 8.5 -46.5t29 -25t58.5 -13.5l105 -14q57 -7 89 -29t44.5 -59.5t12.5 -99.5q0 -109 -85.5 -166t-294.5 -57q-151 0 -233 39.5zM289 -305h105v-110h-105v110zM440 -305h105v-110h-105
v110z" />
    <glyph glyph-name="uni064A" horiz-adv-x="850" 
d="M177 -177.5q-82 39.5 -112 107.5t-30 167q0 59 10 119.5t23 92.5h110q-9 -32 -18.5 -86.5t-9.5 -112.5q0 -79 24 -121t81.5 -59t164.5 -17t163 11t74 29.5t18 45.5q0 31 -10 45.5t-36 18.5l-123 19q-71 11 -108.5 32.5t-53.5 63t-16 115.5q0 99 66.5 156.5t176.5 57.5
q46 0 97.5 -14t85.5 -38l-38 -111q-35 15 -67.5 24t-80.5 9q-65 0 -95 -20t-30 -64q0 -30 8.5 -46.5t29 -25t58.5 -13.5l105 -14q57 -7 89 -29t44.5 -59.5t12.5 -99.5q0 -109 -85.5 -166t-294.5 -57q-151 0 -233 39.5zM289 -305h105v-110h-105v110zM440 -305h105v-110h-105
v110z" />
    <glyph glyph-name="uni064B" unicode="&#x64b;" 
d="M-23 591l250 53l10 -55l-251 -52zM-23 694l250 53l10 -55l-251 -52z" />
    <glyph glyph-name="uni064B" 
d="M-23 591l250 53l10 -55l-251 -52zM-23 694l250 53l10 -55l-251 -52z" />
    <glyph glyph-name="uni064C" unicode="&#x64c;" 
d="M298 597q19 -24 19 -57q0 -30 -20.5 -58t-54.5 -45.5t-72 -17.5q-44 0 -61.5 22t-18.5 61l1 23h-39v65h39q23 1 34 -11t12 -37l1 -33q1 -17 8 -24t29 -7q14 0 27 3q-36 18 -36 59q0 32 21 56.5t58 24.5q34 0 53 -24zM271 534q0 13 -8.5 20.5t-20.5 7.5t-20 -8t-8 -20
q0 -23 39 -31q18 15 18 31z" />
    <glyph glyph-name="uni064C" 
d="M298 597q19 -24 19 -57q0 -30 -20.5 -58t-54.5 -45.5t-72 -17.5q-44 0 -61.5 22t-18.5 61l1 23h-39v65h39q23 1 34 -11t12 -37l1 -33q1 -17 8 -24t29 -7q14 0 27 3q-36 18 -36 59q0 32 21 56.5t58 24.5q34 0 53 -24zM271 534q0 13 -8.5 20.5t-20.5 7.5t-20 -8t-8 -20
q0 -23 39 -31q18 15 18 31z" />
    <glyph glyph-name="uni064D" unicode="&#x64d;" 
d="M8 53l250 53l10 -55l-251 -52zM8 156l250 53l10 -55l-251 -52z" />
    <glyph glyph-name="uni064D" 
d="M8 53l250 53l10 -55l-251 -52zM8 156l250 53l10 -55l-251 -52z" />
    <glyph glyph-name="uni064E" unicode="&#x64e;" 
d="M40 591l250 53l10 -55l-251 -52z" />
    <glyph glyph-name="uni064E" 
d="M40 591l250 53l10 -55l-251 -52z" />
    <glyph glyph-name="uni064F" unicode="&#x64f;" 
d="M215 602.5q19 -23.5 19 -56.5q0 -40 -21 -66t-56.5 -42t-94.5 -33l-17 58q44 10 74 21q-17 9 -26.5 25t-9.5 36q0 32 21 56.5t58 24.5q34 0 53 -23.5zM188 540q0 13 -8.5 20t-21.5 7q-12 0 -20 -7.5t-8 -19.5q0 -22 39 -32q19 14 19 32z" />
    <glyph glyph-name="uni064F" 
d="M215 602.5q19 -23.5 19 -56.5q0 -40 -21 -66t-56.5 -42t-94.5 -33l-17 58q44 10 74 21q-17 9 -26.5 25t-9.5 36q0 32 21 56.5t58 24.5q34 0 53 -23.5zM188 540q0 13 -8.5 20t-21.5 7q-12 0 -20 -7.5t-8 -19.5q0 -22 39 -32q19 14 19 32z" />
    <glyph glyph-name="uni0650" unicode="&#x650;" 
d="M40 107l250 53l10 -55l-251 -52z" />
    <glyph glyph-name="uni0650" 
d="M40 107l250 53l10 -55l-251 -52z" />
    <glyph glyph-name="uni0651" unicode="&#x651;" 
d="M308 592v-59q0 -93 -81 -93q-44 0 -58 30q-16 -30 -59 -30q-76 0 -76 83v69h52v-60q0 -30 29 -30q30 0 30 29v61h52v-61q0 -29 30 -29q29 0 29 29v61h52z" />
    <glyph glyph-name="uni0651" 
d="M308 592v-59q0 -93 -81 -93q-44 0 -58 30q-16 -30 -59 -30q-76 0 -76 83v69h52v-60q0 -30 29 -30q30 0 30 29v61h52v-61q0 -29 30 -29q29 0 29 29v61h52z" />
    <glyph glyph-name="uni0652" unicode="&#x652;" 
d="M67 455.5q-27 26.5 -27 65.5q0 41 27 69.5t69 28.5q41 0 68 -28.5t27 -69.5q0 -39 -27 -65.5t-68 -26.5q-42 0 -69 26.5zM168 494.5q12 10.5 12 26.5q0 18 -12 30t-32 12t-32 -11.5t-12 -30.5q0 -16 12 -26.5t32 -10.5t32 10.5z" />
    <glyph glyph-name="uni0652" 
d="M67 455.5q-27 26.5 -27 65.5q0 41 27 69.5t69 28.5q41 0 68 -28.5t27 -69.5q0 -39 -27 -65.5t-68 -26.5q-42 0 -69 26.5zM168 494.5q12 10.5 12 26.5q0 18 -12 30t-32 12t-32 -11.5t-12 -30.5q0 -16 12 -26.5t32 -10.5t32 10.5z" />
    <glyph glyph-name="uni0653" unicode="&#x653;" 
d="M273.5 428.5q-20.5 -8.5 -41.5 -8.5q-23 0 -62 15q-12 5 -24 8.5t-21 3.5q-33 0 -65 -21l-20 58q14 11 36 19t44 8q13 0 26 -4t24 -9q30 -14 53 -14q17 0 32 5t33 16l17 -58q-11 -10 -31.5 -18.5z" />
    <glyph glyph-name="uni0653" 
d="M273.5 428.5q-20.5 -8.5 -41.5 -8.5q-23 0 -62 15q-12 5 -24 8.5t-21 3.5q-33 0 -65 -21l-20 58q14 11 36 19t44 8q13 0 26 -4t24 -9q30 -14 53 -14q17 0 32 5t33 16l17 -58q-11 -10 -31.5 -18.5z" />
    <glyph glyph-name="uni0654" unicode="&#x654;" 
d="M227 469v-65h-187v62h29q-15 17 -15 47q0 41 28.5 63.5t69.5 22.5q35 0 65 -13l-13 -54q-26 5 -52 5q-20 0 -32 -8.5t-12 -25.5t7 -25.5t25 -8.5h87z" />
    <glyph glyph-name="uni0655" unicode="&#x655;" 
d="M227 469v-65h-187v62h29q-15 17 -15 47q0 41 28.5 63.5t69.5 22.5q35 0 65 -13l-13 -54q-26 5 -52 5q-20 0 -32 -8.5t-12 -25.5t7 -25.5t25 -8.5h87z" />
    <glyph glyph-name="uni0656" unicode="&#x656;" 
d="M40 517h52v-129h-52v129z" />
    <glyph glyph-name="uni0660" unicode="&#x660;" horiz-adv-x="288" 
d="M70 351h148v-141h-148v141z" />
    <glyph glyph-name="uni0660" horiz-adv-x="288" 
d="M70 351h148v-141h-148v141z" />
    <glyph glyph-name="uni0661" unicode="&#x661;" horiz-adv-x="250" 
d="M70 663h110v-663h-110v663z" />
    <glyph glyph-name="uni0661" horiz-adv-x="250" 
d="M70 663h110v-663h-110v663z" />
    <glyph glyph-name="uni0662" unicode="&#x662;" horiz-adv-x="522" 
d="M472 533h-226q-35 0 -50 -11t-15 -35q0 -18 13 -70l98 -402l-114 -20l-103 414q-15 63 -15 102q0 75 45 113.5t142 38.5h225v-130z" />
    <glyph glyph-name="uni0662" horiz-adv-x="522" 
d="M472 533h-226q-35 0 -50 -11t-15 -35q0 -18 13 -70l98 -402l-114 -20l-103 414q-15 63 -15 102q0 75 45 113.5t142 38.5h225v-130z" />
    <glyph glyph-name="uni0663" unicode="&#x663;" horiz-adv-x="671" 
d="M631 663v-164q0 -79 -43 -121t-117 -42q-45 0 -73 11t-45 34q-14 -24 -41.5 -33.5t-68.5 -9.5h-46l35 -338h-112l-70 663h113l20 -194h60q54 0 54 41v153h110v-159q0 -38 58 -38q56 0 56 37v160h110z" />
    <glyph glyph-name="uni0663" horiz-adv-x="671" 
d="M631 663v-164q0 -79 -43 -121t-117 -42q-45 0 -73 11t-45 34q-14 -24 -41.5 -33.5t-68.5 -9.5h-46l35 -338h-112l-70 663h113l20 -194h60q54 0 54 41v153h110v-159q0 -38 58 -38q56 0 56 37v160h110z" />
    <glyph glyph-name="uni0664" unicode="&#x664;" horiz-adv-x="521" 
d="M481 0h-225q-107 0 -156.5 45.5t-49.5 139.5q0 56 21.5 87.5t53.5 51.5q-24 15 -37 30t-20 40.5t-7 67.5q0 201 220 201h168v-130h-171q-107 0 -107 -72q0 -55 61 -55h217l1 -130h-206q-84 0 -84 -73t99 -73h221z" />
    <glyph glyph-name="uni0664" horiz-adv-x="521" 
d="M481 0h-225q-107 0 -156.5 45.5t-49.5 139.5q0 56 21.5 87.5t53.5 51.5q-24 15 -37 30t-20 40.5t-7 67.5q0 201 220 201h168v-130h-171q-107 0 -107 -72q0 -55 61 -55h217l1 -130h-206q-84 0 -84 -73t99 -73h221z" />
    <glyph glyph-name="uni0665" unicode="&#x665;" horiz-adv-x="589" 
d="M97 64.5q-57 74.5 -57 217.5q0 171 68.5 255t186.5 84q119 0 186.5 -80.5t67.5 -248.5q0 -148 -57 -225t-198 -77q-140 0 -197 74.5zM407.5 161.5q31.5 41.5 31.5 128.5q0 201 -144 201q-67 0 -106 -47.5t-39 -153.5q0 -87 31.5 -128.5t113.5 -41.5q81 0 112.5 41.5z" />
    <glyph glyph-name="uni0665" horiz-adv-x="589" 
d="M97 64.5q-57 74.5 -57 217.5q0 171 68.5 255t186.5 84q119 0 186.5 -80.5t67.5 -248.5q0 -148 -57 -225t-198 -77q-140 0 -197 74.5zM407.5 161.5q31.5 41.5 31.5 128.5q0 201 -144 201q-67 0 -106 -47.5t-39 -153.5q0 -87 31.5 -128.5t113.5 -41.5q81 0 112.5 41.5z" />
    <glyph glyph-name="uni0666" unicode="&#x666;" horiz-adv-x="501" 
d="M321 0v487q0 24 -15 35t-50 11h-216v130h225q88 0 127 -36t39 -116v-511h-110z" />
    <glyph glyph-name="uni0666" horiz-adv-x="501" 
d="M321 0v487q0 24 -15 35t-50 11h-216v130h225q88 0 127 -36t39 -116v-511h-110z" />
    <glyph glyph-name="uni0667" unicode="&#x667;" horiz-adv-x="585" 
d="M452 663h113l-190 -663h-150l-205 663h113l166 -536z" />
    <glyph glyph-name="uni0667" horiz-adv-x="585" 
d="M452 663h113l-190 -663h-150l-205 663h113l166 -536z" />
    <glyph glyph-name="uni0668" unicode="&#x668;" horiz-adv-x="585" 
d="M565 0h-113l-153 536l-166 -536h-113l205 663h150z" />
    <glyph glyph-name="uni0668" horiz-adv-x="585" 
d="M565 0h-113l-153 536l-166 -536h-113l205 663h150z" />
    <glyph glyph-name="uni0669" unicode="&#x669;" horiz-adv-x="503" 
d="M371 653q48 -10 82 -24v-629h-110v259q-37 -27 -111 -27q-102 0 -152 56t-50 139q0 70 30 123.5t84.5 83t126.5 29.5q52 0 100 -10zM343 372v151q-36 10 -84 10q-56 0 -85 -24.5t-29 -66.5q0 -35 25 -57.5t73 -22.5q63 0 100 10z" />
    <glyph glyph-name="uni0669" horiz-adv-x="503" 
d="M371 653q48 -10 82 -24v-629h-110v259q-37 -27 -111 -27q-102 0 -152 56t-50 139q0 70 30 123.5t84.5 83t126.5 29.5q52 0 100 -10zM343 372v151q-36 10 -84 10q-56 0 -85 -24.5t-29 -66.5q0 -35 25 -57.5t73 -22.5q63 0 100 10z" />
    <glyph glyph-name="uni066A" unicode="&#x66a;" horiz-adv-x="716" 
d="M68 520.5q-42 40.5 -42 101.5q0 40 19 72.5t53 51t76 18.5q43 0 77 -18.5t53 -51t19 -72.5q0 -61 -42 -101.5t-107 -40.5q-64 0 -106 40.5zM559 750h98l-496 -750h-98zM228 570q21 21 21 52t-21 51.5t-54 20.5q-32 0 -53 -20.5t-21 -51.5t21 -52t53 -21q33 0 54 21z
M435 25.5q-42 40.5 -42 101.5q0 40 19 72.5t53 51t76 18.5q43 0 77 -18.5t53 -51t19 -72.5q0 -61 -42 -101.5t-107 -40.5q-64 0 -106 40.5zM595 75q21 21 21 52t-21 51.5t-54 20.5q-32 0 -53 -20.5t-21 -51.5t21 -52t53 -21q33 0 54 21z" />
    <glyph glyph-name="uni066A" horiz-adv-x="716" 
d="M68 520.5q-42 40.5 -42 101.5q0 40 19 72.5t53 51t76 18.5q43 0 77 -18.5t53 -51t19 -72.5q0 -61 -42 -101.5t-107 -40.5q-64 0 -106 40.5zM559 750h98l-496 -750h-98zM228 570q21 21 21 52t-21 51.5t-54 20.5q-32 0 -53 -20.5t-21 -51.5t21 -52t53 -21q33 0 54 21z
M435 25.5q-42 40.5 -42 101.5q0 40 19 72.5t53 51t76 18.5q43 0 77 -18.5t53 -51t19 -72.5q0 -61 -42 -101.5t-107 -40.5q-64 0 -106 40.5zM595 75q21 21 21 52t-21 51.5t-54 20.5q-32 0 -53 -20.5t-21 -51.5t21 -52t53 -21q33 0 54 21z" />
    <glyph glyph-name="uni066B" unicode="&#x66b;" horiz-adv-x="276" 
d="M21 -151l76 296h131l-114 -296h-93z" />
    <glyph glyph-name="uni066B" horiz-adv-x="276" 
d="M21 -151l76 296h131l-114 -296h-93z" />
    <glyph glyph-name="uni066C" unicode="&#x66c;" horiz-adv-x="276" 
d="M21 -151l76 296h131l-114 -296h-93z" />
    <glyph glyph-name="uni066C" horiz-adv-x="276" 
d="M21 -151l76 296h131l-114 -296h-93z" />
    <glyph glyph-name="uni066D" unicode="&#x66d;" horiz-adv-x="600" 
d="M303 668l-98 -51l97 -51l-26 -44l-93 58l4 -110h-54l7 110l-93 -58l-27 46l102 49l-99 52l24 44l93 -60l-4 108h54l-6 -107l95 56z" />
    <glyph glyph-name="uni066D" horiz-adv-x="600" 
d="M303 668l-98 -51l97 -51l-26 -44l-93 58l4 -110h-54l7 110l-93 -58l-27 46l102 49l-99 52l24 44l93 -60l-4 108h54l-6 -107l95 56z" />
    <glyph glyph-name="uni066E" unicode="&#x66e;" horiz-adv-x="909" 
d="M138 31q-59 31 -81 84.5t-22 132.5q0 38 9.5 80.5t22.5 73.5h105q-10 -28 -18.5 -69.5t-8.5 -69.5q0 -75 36.5 -104t124.5 -29h317q55 0 85.5 12.5t30.5 50.5v235h110v-222q0 -103 -56.5 -154.5t-175.5 -51.5h-313q-107 0 -166 31z" />
    <glyph glyph-name="uni066E" horiz-adv-x="909" 
d="M138 31q-59 31 -81 84.5t-22 132.5q0 38 9.5 80.5t22.5 73.5h105q-10 -28 -18.5 -69.5t-8.5 -69.5q0 -75 36.5 -104t124.5 -29h317q55 0 85.5 12.5t30.5 50.5v235h110v-222q0 -103 -56.5 -154.5t-175.5 -51.5h-313q-107 0 -166 31z" />
    <glyph glyph-name="uni066F" unicode="&#x66f;" horiz-adv-x="812" 
d="M667.5 437.5q49.5 -13.5 84.5 -33.5v-412q0 -109 -59.5 -164t-196.5 -55h-147q-127 0 -195 31.5t-93.5 95t-25.5 171.5q0 52 11.5 103t25.5 81h110q-13 -35 -22.5 -83t-9.5 -94q0 -63 15.5 -100t58.5 -56t125 -19h150q54 0 84.5 8t44.5 27.5t14 55.5v68
q-17 -29 -49 -45.5t-86 -16.5q-98 0 -146 60t-48 150q0 71 31 125.5t88.5 85t132.5 30.5q53 0 102.5 -13.5zM642 167v136q-38 18 -89 18q-62 0 -93.5 -26t-31.5 -70q0 -42 27 -68.5t79 -26.5q77 0 108 37z" />
    <glyph glyph-name="uni066F" horiz-adv-x="812" 
d="M667.5 437.5q49.5 -13.5 84.5 -33.5v-412q0 -109 -59.5 -164t-196.5 -55h-147q-127 0 -195 31.5t-93.5 95t-25.5 171.5q0 52 11.5 103t25.5 81h110q-13 -35 -22.5 -83t-9.5 -94q0 -63 15.5 -100t58.5 -56t125 -19h150q54 0 84.5 8t44.5 27.5t14 55.5v68
q-17 -29 -49 -45.5t-86 -16.5q-98 0 -146 60t-48 150q0 71 31 125.5t88.5 85t132.5 30.5q53 0 102.5 -13.5zM642 167v136q-38 18 -89 18q-62 0 -93.5 -26t-31.5 -70q0 -42 27 -68.5t79 -26.5q77 0 108 37z" />
    <glyph glyph-name="uni0670" unicode="&#x670;" 
d="M40 517h52v-129h-52v129z" />
    <glyph glyph-name="uni0670" 
d="M40 517h52v-129h-52v129z" />
    <glyph glyph-name="uni0671" unicode="&#x671;" horiz-adv-x="250" 
d="M70 613h110v-613h-110v613z" />
    <glyph glyph-name="uni0671" horiz-adv-x="250" 
d="M70 613h110v-613h-110v613z" />
    <glyph glyph-name="uni06A1" unicode="&#x6a1;" horiz-adv-x="970" 
d="M910 209q0 -104 -47.5 -156.5t-157.5 -52.5h-405q-105 0 -163 34.5t-80 94t-22 144.5q0 42 9.5 88t22.5 81h110q-10 -31 -18.5 -76.5t-8.5 -77.5q0 -60 15 -94.5t48 -49t88 -14.5h405q52 0 72.5 15t20.5 55v50q-36 -57 -130 -57q-92 0 -138 54.5t-46 135.5q0 67 30 118
t84.5 79.5t127.5 28.5q52 0 100 -13.5t82 -33.5zM799 353v108q-36 18 -84 18q-57 0 -86 -22t-29 -59q0 -33 24 -54t72 -21q75 0 103 30z" />
    <glyph glyph-name="uni06A1" horiz-adv-x="970" 
d="M910 209q0 -104 -47.5 -156.5t-157.5 -52.5h-405q-105 0 -163 34.5t-80 94t-22 144.5q0 42 9.5 88t22.5 81h110q-10 -31 -18.5 -76.5t-8.5 -77.5q0 -60 15 -94.5t48 -49t88 -14.5h405q52 0 72.5 15t20.5 55v50q-36 -57 -130 -57q-92 0 -138 54.5t-46 135.5q0 67 30 118
t84.5 79.5t127.5 28.5q52 0 100 -13.5t82 -33.5zM799 353v108q-36 18 -84 18q-57 0 -86 -22t-29 -59q0 -33 24 -54t72 -21q75 0 103 30z" />
    <glyph glyph-name="uni06A4" unicode="&#x6a4;" horiz-adv-x="970" 
d="M910 209q0 -104 -47.5 -156.5t-157.5 -52.5h-405q-105 0 -163 34.5t-80 94t-22 144.5q0 42 9.5 88t22.5 81h110q-10 -31 -18.5 -76.5t-8.5 -77.5q0 -60 15 -94.5t48 -49t88 -14.5h405q52 0 72.5 15t20.5 55v50q-36 -57 -130 -57q-92 0 -138 54.5t-46 135.5q0 67 30 118
t84.5 79.5t127.5 28.5q52 0 100 -13.5t82 -33.5zM799 353v108q-36 18 -84 18q-57 0 -86 -22t-29 -59q0 -33 24 -54t72 -21q75 0 103 30zM671 957h110v-105h-110v105zM594 809h105v-110h-105v110zM750 809h105v-110h-105v110z" />
    <glyph glyph-name="uni06A4" horiz-adv-x="970" 
d="M910 209q0 -104 -47.5 -156.5t-157.5 -52.5h-405q-105 0 -163 34.5t-80 94t-22 144.5q0 42 9.5 88t22.5 81h110q-10 -31 -18.5 -76.5t-8.5 -77.5q0 -60 15 -94.5t48 -49t88 -14.5h405q52 0 72.5 15t20.5 55v50q-36 -57 -130 -57q-92 0 -138 54.5t-46 135.5q0 67 30 118
t84.5 79.5t127.5 28.5q52 0 100 -13.5t82 -33.5zM799 353v108q-36 18 -84 18q-57 0 -86 -22t-29 -59q0 -33 24 -54t72 -21q75 0 103 30zM671 957h110v-105h-110v105zM594 809h105v-110h-105v110zM750 809h105v-110h-105v110z" />
    <glyph glyph-name="uni06A9" unicode="&#x6a9;" horiz-adv-x="879" 
d="M809 713v-507q0 -103 -56.5 -154.5t-175.5 -51.5h-273q-107 0 -166 31t-81 84.5t-22 132.5q0 38 9.5 80.5t22.5 73.5h105q-10 -28 -18.5 -69.5t-8.5 -69.5q0 -75 36.5 -104t124.5 -29h277q55 0 85.5 12.5t30.5 50.5v520h110zM433 283h-113v80h112q20 0 32.5 4.5
t12.5 12.5q0 16 -29 29t-109 13l-6 102l192 83l12 -76l-114 -46q56 -6 90 -31t34 -72q0 -99 -114 -99z" />
    <glyph glyph-name="uni06A9" horiz-adv-x="879" 
d="M809 713v-507q0 -103 -56.5 -154.5t-175.5 -51.5h-273q-107 0 -166 31t-81 84.5t-22 132.5q0 38 9.5 80.5t22.5 73.5h105q-10 -28 -18.5 -69.5t-8.5 -69.5q0 -75 36.5 -104t124.5 -29h277q55 0 85.5 12.5t30.5 50.5v520h110zM433 283h-113v80h112q20 0 32.5 4.5
t12.5 12.5q0 16 -29 29t-109 13l-6 102l192 83l12 -76l-114 -46q56 -6 90 -31t34 -72q0 -99 -114 -99z" />
    <glyph glyph-name="uni06BA" unicode="&#x6ba;" horiz-adv-x="693" 
d="M102 -133q-67 84 -67 216q0 57 11.5 116t26.5 92h110q-11 -34 -22 -87t-11 -111q0 -85 41 -132.5t148 -47.5q104 0 144 36t40 105v373h110v-372q0 -120 -72 -196t-231 -76q-161 0 -228 84z" />
    <glyph glyph-name="uni06BA" horiz-adv-x="693" 
d="M102 -133q-67 84 -67 216q0 57 11.5 116t26.5 92h110q-11 -34 -22 -87t-11 -111q0 -85 41 -132.5t148 -47.5q104 0 144 36t40 105v373h110v-372q0 -120 -72 -196t-231 -76q-161 0 -228 84z" />
    <glyph glyph-name="uni06CC" unicode="&#x6cc;" horiz-adv-x="850" 
d="M177 -177.5q-82 39.5 -112 107.5t-30 167q0 59 10 119.5t23 92.5h110q-9 -32 -18.5 -86.5t-9.5 -112.5q0 -79 24 -121t81.5 -59t164.5 -17t163 11t74 29.5t18 45.5q0 31 -10 45.5t-36 18.5l-123 19q-71 11 -108.5 32.5t-53.5 63t-16 115.5q0 99 66.5 156.5t176.5 57.5
q46 0 97.5 -14t85.5 -38l-38 -111q-35 15 -67.5 24t-80.5 9q-65 0 -95 -20t-30 -64q0 -30 8.5 -46.5t29 -25t58.5 -13.5l105 -14q57 -7 89 -29t44.5 -59.5t12.5 -99.5q0 -109 -85.5 -166t-294.5 -57q-151 0 -233 39.5zM289 -305h105v-110h-105v110zM440 -305h105v-110h-105
v110z" />
    <glyph glyph-name="uni06CC" horiz-adv-x="850" 
d="M177 -177.5q-82 39.5 -112 107.5t-30 167q0 59 10 119.5t23 92.5h110q-9 -32 -18.5 -86.5t-9.5 -112.5q0 -79 24 -121t81.5 -59t164.5 -17t163 11t74 29.5t18 45.5q0 31 -10 45.5t-36 18.5l-123 19q-71 11 -108.5 32.5t-53.5 63t-16 115.5q0 99 66.5 156.5t176.5 57.5
q46 0 97.5 -14t85.5 -38l-38 -111q-35 15 -67.5 24t-80.5 9q-65 0 -95 -20t-30 -64q0 -30 8.5 -46.5t29 -25t58.5 -13.5l105 -14q57 -7 89 -29t44.5 -59.5t12.5 -99.5q0 -109 -85.5 -166t-294.5 -57q-151 0 -233 39.5zM289 -305h105v-110h-105v110zM440 -305h105v-110h-105
v110z" />
    <glyph glyph-name="Wgrave" unicode="&#x1e80;" horiz-adv-x="1074" 
d="M911 750h136l-210 -750h-162l-138 511l-138 -511h-161l-211 750h135l155 -580h3l151 546h132l151 -546h3zM382 871v62l309 -42v-62z" />
    <glyph glyph-name="wgrave" unicode="&#x1e81;" horiz-adv-x="791" 
d="M645 513h124l-126 -513h-163l-85 316l-85 -316h-162l-126 513h123l87 -390h3l105 368h111l104 -368h3zM219 754h128l105 -142h-108z" />
    <glyph glyph-name="Wacute" unicode="&#x1e82;" horiz-adv-x="1074" 
d="M911 750h136l-210 -750h-162l-138 511l-138 -511h-161l-211 750h135l155 -580h3l151 546h132l151 -546h3zM413 891l309 42v-62l-309 -42v62z" />
    <glyph glyph-name="wacute" unicode="&#x1e83;" horiz-adv-x="791" 
d="M645 513h124l-126 -513h-163l-85 316l-85 -316h-162l-126 513h123l87 -390h3l105 368h111l104 -368h3zM434 754h128l-126 -142h-107z" />
    <glyph glyph-name="Wdieresis" unicode="&#x1e84;" horiz-adv-x="1074" 
d="M911 750h136l-210 -750h-162l-138 511l-138 -511h-161l-211 750h135l155 -580h3l151 546h132l151 -546h3zM348 908h145v-60h-145v60zM580 908h145v-60h-145v60z" />
    <glyph glyph-name="wdieresis" unicode="&#x1e85;" horiz-adv-x="791" 
d="M645 513h124l-126 -513h-163l-85 316l-85 -316h-162l-126 513h123l87 -390h3l105 368h111l104 -368h3zM228 750h108v-142h-108v142zM456 750h107v-142h-107v142z" />
    <glyph glyph-name="uni1E9E" unicode="&#x1e9e;" horiz-adv-x="720" 
d="M650 382.5q55 -67.5 55 -163.5q0 -110 -65 -172t-182 -62q-99 0 -158 49t-68 129h138q8 -33 32 -50.5t62 -17.5q49 0 76 32.5t27 91.5q0 60 -33.5 98t-113.5 38h-125l168 285h-174q-53 0 -84 -33.5t-31 -97.5v-509h-134v519q0 112 57.5 171.5t158.5 59.5h409l-176 -288
q106 -12 161 -79.5z" />
    <glyph glyph-name="Ygrave" unicode="&#x1ef2;" horiz-adv-x="654" 
d="M631 750l-238 -514v-236h-133v238l-237 512h138l164 -378h3l165 378h138zM145 871v62l309 -42v-62z" />
    <glyph glyph-name="ygrave" unicode="&#x1ef3;" horiz-adv-x="528" 
d="M506 513l-206 -589q-22 -65 -56.5 -94.5t-99.5 -29.5h-99v110h89q25 0 38 10.5t22 34.5l16 45l-188 513h127l117 -357h3l112 357h125zM87 754h128l105 -142h-108z" />
    <glyph glyph-name="endash" unicode="&#x2013;" horiz-adv-x="745" 
d="M107 315h531v-87h-531v87z" />
    <glyph glyph-name="emdash" unicode="&#x2014;" horiz-adv-x="1344" 
d="M259 315h826v-87h-826v87z" />
    <glyph glyph-name="quoteleft" unicode="&#x2018;" horiz-adv-x="276" 
d="M135 750h93l-76 -296h-131z" />
    <glyph glyph-name="quoteright" unicode="&#x2019;" horiz-adv-x="276" 
d="M21 454l76 296h131l-114 -296h-93z" />
    <glyph glyph-name="quotesinglbase" unicode="&#x201a;" horiz-adv-x="276" 
d="M21 -151l76 296h131l-114 -296h-93z" />
    <glyph glyph-name="quotedblleft" unicode="&#x201c;" horiz-adv-x="464" 
d="M135 750h93l-76 -296h-131zM322 750h94l-77 -296h-131z" />
    <glyph glyph-name="quotedblright" unicode="&#x201d;" horiz-adv-x="464" 
d="M21 454l76 296h131l-114 -296h-93zM208 454l77 296h131l-114 -296h-94z" />
    <glyph glyph-name="quotedblbase" unicode="&#x201e;" horiz-adv-x="464" 
d="M209 -151l76 296h131l-114 -296h-93zM21 -151l76 296h131l-114 -296h-93z" />
    <glyph glyph-name="dagger" unicode="&#x2020;" horiz-adv-x="861" 
d="M59 750h743v-750h-743v750zM706 91v568h-551v-568h551zM426 313l-107 -108l-56 58l106 106l-106 107l56 57l107 -107l106 106l57 -56l-106 -107l106 -106l-57 -57z" />
    <glyph glyph-name="daggerdbl" unicode="&#x2021;" horiz-adv-x="489" 
d="M195 35l-7 113h-155v90h155v185h-155v90h155l7 113l9 35h73l11 -35l7 -113h161v-90h-161v-185h161v-90h-161l-7 -113l-11 -35h-72z" />
    <glyph glyph-name="bullet" unicode="&#x2022;" horiz-adv-x="373" 
d="M109 217.5q-32 31.5 -32 77.5q0 45 32 77t78 32t77.5 -32t31.5 -77q0 -46 -31.5 -77.5t-77.5 -31.5t-78 31.5z" />
    <glyph glyph-name="ellipsis" unicode="&#x2026;" horiz-adv-x="630" 
d="M58 0v145h118v-145h-118zM256 0v145h118v-145h-118zM454 0v145h118v-145h-118z" />
    <glyph glyph-name="perthousand" unicode="&#x2030;" horiz-adv-x="847" 
d="M225 476q-33 -32 -84 -32q-50 0 -82.5 32t-32.5 81v86q0 48 33 80.5t82 32.5q51 0 84 -32.5t33 -80.5v-86q0 -49 -33 -81zM124 0l260 750h67l-259 -750h-68zM114 525q11 -11 27 -11q18 0 28.5 11t10.5 29v91q0 18 -10.5 29.5t-28.5 11.5q-16 0 -27 -11.5t-11 -29.5v-91
q0 -18 11 -29zM517.5 25.5q-32.5 -31.5 -83.5 -31.5q-50 0 -83 31.5t-33 80.5v87q0 48 33 80.5t83 32.5q51 0 83.5 -32.5t32.5 -80.5v-87q0 -49 -32.5 -80.5zM788 25.5q-33 -31.5 -83 -31.5t-83 31.5t-33 80.5v87q0 48 33 80.5t83 32.5q51 0 83.5 -32.5t32.5 -80.5v-87
q0 -49 -33 -80.5zM406.5 74.5q10.5 -11.5 27.5 -11.5t28 11.5t11 29.5v91q0 17 -11 29t-28 12q-16 0 -27 -12t-11 -29v-91q0 -18 10.5 -29.5zM677 74.5q11 -11.5 28 -11.5t28 11.5t11 29.5v91q0 17 -11 29t-28 12q-16 0 -27.5 -12t-11.5 -29v-91q0 -18 11 -29.5z" />
    <glyph glyph-name="guilsinglleft" unicode="&#x2039;" horiz-adv-x="346" 
d="M24 244v7l168 200h130l-170 -203l170 -204h-130z" />
    <glyph glyph-name="guilsinglright" unicode="&#x203a;" horiz-adv-x="346" 
d="M24 44l170 204l-170 203h130l168 -200v-7l-168 -200h-130z" />
    <glyph glyph-name="fraction" unicode="&#x2044;" horiz-adv-x="585" 
d="M500 750h76l-491 -750h-76z" />
    <glyph glyph-name="zero.sups" unicode="&#x2070;" horiz-adv-x="272" 
d="M55 474.5q-30 31.5 -30 82.5v85q0 50 30 82t81 32t81 -32t30 -82v-85q0 -51 -30 -82.5t-81 -31.5t-81 31.5zM157.5 526.5q7.5 9.5 7.5 26.5v93q0 16 -7.5 26t-21.5 10t-21.5 -10t-7.5 -26v-93q0 -17 7.5 -26.5t21.5 -9.5t21.5 9.5z" />
    <glyph glyph-name="four.sups" unicode="&#x2074;" horiz-adv-x="289" 
d="M271 585v-63h-33v-73h-87v73h-131v59l131 169h87v-165h33zM92 585h59v75z" />
    <glyph glyph-name="five.sups" unicode="&#x2075;" horiz-adv-x="270" 
d="M56 468.5q-31 25.5 -31 62.5q0 9 2 17h81v-2q0 -13 8 -21t22 -8q16 0 24 9.5t8 24.5q0 36 -31 36q-18 0 -27 -14h-81l20 177h182v-77h-115l-9 -58q21 27 55 27q40 0 64 -26t24 -66q0 -49 -31.5 -78t-82.5 -29t-82 25.5z" />
    <glyph glyph-name="six.sups" unicode="&#x2076;" horiz-adv-x="273" 
d="M232.5 615q25.5 -29 25.5 -66q0 -46 -33 -76t-85 -30q-51 0 -84.5 28.5t-33.5 73.5q0 34 17 61l89 144h102l-65 -102q42 -4 67.5 -33zM166.5 525q10.5 9 10.5 23q0 15 -10.5 25t-26.5 10t-26 -10t-10 -25q0 -14 10 -23t26 -9t26.5 9z" />
    <glyph glyph-name="seven.sups" unicode="&#x2077;" horiz-adv-x="251" 
d="M18 750h217v-74l-102 -227h-92l107 224h-130v77z" />
    <glyph glyph-name="eight.sups" unicode="&#x2078;" horiz-adv-x="267" 
d="M236.5 577.5q10.5 -18.5 10.5 -39.5q0 -41 -31.5 -68t-82.5 -27t-82 26.5t-31 68.5q0 21 10.5 39.5t28.5 31.5q-27 23 -27 58q0 39 27.5 64t73.5 25q45 0 73 -25t28 -64q0 -34 -27 -58q19 -13 29.5 -31.5zM111.5 685q-8.5 -8 -8.5 -20q0 -14 8.5 -22t21.5 -8q14 0 22 8
t8 22q0 12 -8.5 20t-21.5 8t-21.5 -8zM159 522q11 9 11 22q0 15 -10 24t-27 9q-15 0 -25.5 -9t-10.5 -24q0 -13 10.5 -22t25.5 -9t26 9z" />
    <glyph glyph-name="nine.sups" unicode="&#x2079;" horiz-adv-x="273" 
d="M222 726.5q33 -29.5 33 -75.5q0 -31 -17 -58l-89 -144h-102l64 100q-42 4 -67 32.5t-25 66.5q0 47 33 77.5t85 30.5t85 -29.5zM110 625q10 -10 26 -10t26.5 10t10.5 24q0 15 -10.5 24t-26.5 9t-26 -9t-10 -24q0 -14 10 -24z" />
    <glyph glyph-name="Euro" unicode="&#x20ac;" horiz-adv-x="576" 
d="M543 740v-129q-43 28 -112 28q-86 0 -141.5 -46.5t-68.5 -131.5h247v-60h-468v60h84q11 91 57 159.5t120 106t166 37.5q68 0 116 -24zM289.5 157.5q55.5 -47.5 141.5 -47.5q67 0 112 29v-130q-48 -24 -116 -24q-92 0 -166 38t-120.5 107t-56.5 160h-84v59h468v-59h-247
q13 -85 68.5 -132.5z" />
    <glyph glyph-name="uni2116" unicode="&#x2116;" horiz-adv-x="1074" 
d="M793.5 520.5q-42.5 40.5 -42.5 101.5q0 40 19.5 72.5t53.5 51t76 18.5t76 -18.5t53 -51t19 -72.5q0 -61 -42 -101.5t-106 -40.5t-106.5 40.5zM67 750h138l327 -535h3v535h126v-750h-138l-327 535h-3v-535h-126v750zM953 570q21 21 21 52t-21 51.5t-53 20.5t-53 -20.5
t-21 -51.5t21 -52t53 -21t53 21zM777 409h243v-69h-243v69z" />
    <glyph glyph-name="uni2117" unicode="&#x2117;" horiz-adv-x="891" 
d="M641 711.5q89 -52.5 141 -142t52 -195.5q0 -107 -52 -196t-141 -141t-196 -52q-106 0 -195 52t-141 141t-52 196q0 105 52 195t141 142.5t195 52.5q107 0 196 -52.5zM591 115.5q66 39.5 104.5 108t38.5 150.5t-38.5 150.5t-104.5 108.5t-146 40t-146 -40t-104 -108.5
t-38 -150.5t38 -150.5t104 -108t146 -39.5t146 39.5zM597.5 546q41.5 -40 41.5 -101t-41 -101.5t-115 -40.5h-80v-144h-93v427h172q74 0 115.5 -40zM547 445q0 30 -18 46.5t-54 16.5h-72v-127h71q73 0 73 64z" />
    <glyph glyph-name="uni2120" unicode="&#x2120;" horiz-adv-x="822" 
d="M77 417q-40 33 -43 90h76q1 -29 21 -45.5t52 -16.5q30 0 47 14t17 35q0 23 -18.5 35.5t-58.5 14.5q-58 3 -91.5 29t-33.5 74t35 78.5t95 30.5q61 0 97 -28.5t41 -81.5h-74q-9 50 -64 50q-26 0 -40.5 -13t-14.5 -32q0 -25 17.5 -35.5t59.5 -11.5q58 -1 91 -28.5t33 -77.5
q0 -51 -37.5 -82.5t-101.5 -31.5q-65 0 -105 33zM365 750h118l84 -256h2l84 256h117v-360h-85v252h-1l-83 -250h-67l-83 250h-1v-252h-85v360z" />
    <glyph glyph-name="trademark" unicode="&#x2122;" horiz-adv-x="791" 
d="M109 682h-95v68h275v-68h-95v-292h-85v292zM334 750h118l84 -256h2l84 256h117v-360h-85v252h-1l-83 -250h-67l-83 250h-1v-252h-85v360z" />
    <glyph glyph-name="uni2150" unicode="&#x2150;" horiz-adv-x="576" 
d="M138 750h72v-301h-83v214l-73 -38v79zM500 750h76l-491 -750h-76zM343 301h217v-74l-102 -227h-92l107 224h-130v77z" />
    <glyph glyph-name="uni2151" unicode="&#x2151;" horiz-adv-x="598" 
d="M138 750h72v-301h-83v214l-73 -38v79zM500 750h76l-491 -750h-76zM547 277.5q33 -29.5 33 -75.5q0 -31 -17 -58l-89 -144h-102l64 100q-42 4 -67 32.5t-25 66.5q0 47 33 77.5t85 30.5t85 -29.5zM435 176q10 -10 26 -10t26.5 10t10.5 24q0 15 -10.5 24t-26.5 9t-26 -9
t-10 -24q0 -14 10 -24z" />
    <glyph glyph-name="uni2153" unicode="&#x2153;" horiz-adv-x="595" 
d="M138 750h72v-301h-83v214l-73 -38v79zM500 750h76l-491 -750h-76zM566 130q10 -19 10 -40q0 -41 -31.5 -68.5t-83.5 -27.5q-50 0 -81 26t-31 65q0 9 1 14h82v-6q0 -12 8.5 -18.5t21.5 -6.5t21.5 7t8.5 21t-8.5 22.5t-22.5 8.5h-9v63h9q12 0 19.5 7t7.5 19t-7 19t-19 7
t-19 -7t-7 -19v-6h-75v14q0 37 27 60t73 23t74 -24.5t28 -63.5q0 -34 -25 -57q18 -13 28 -32z" />
    <glyph glyph-name="uni2154" unicode="&#x2154;" horiz-adv-x="621" 
d="M245 523v-74h-217v45l120 133q11 13 11 29q0 13 -7 20.5t-20 7.5t-20.5 -7t-7.5 -20v-3h-75v3q0 45 26.5 72t76.5 27t78 -26t28 -68q0 -34 -30 -68l-62 -71h99zM526 750h76l-491 -750h-76zM592 130q10 -19 10 -40q0 -41 -31.5 -68.5t-83.5 -27.5q-50 0 -81 26t-31 65
q0 9 1 14h82v-6q0 -12 8.5 -18.5t21.5 -6.5t21.5 7t8.5 21t-8.5 22.5t-22.5 8.5h-9v63h9q12 0 19.5 7t7.5 19t-7 19t-19 7t-19 -7t-7 -19v-6h-75v14q0 37 27 60t73 23t74 -24.5t28 -63.5q0 -34 -25 -57q18 -13 28 -32z" />
    <glyph glyph-name="uni2155" unicode="&#x2155;" horiz-adv-x="595" 
d="M138 750h72v-301h-83v214l-73 -38v79zM500 750h76l-491 -750h-76zM381 19.5q-31 25.5 -31 62.5q0 9 2 17h81v-2q0 -13 8 -21t22 -8q16 0 24 9.5t8 24.5q0 36 -31 36q-18 0 -27 -14h-81l20 177h182v-77h-115l-9 -58q21 27 55 27q40 0 64 -26t24 -66q0 -49 -31.5 -78
t-82.5 -29t-82 25.5z" />
    <glyph glyph-name="uni2156" unicode="&#x2156;" horiz-adv-x="621" 
d="M245 523v-74h-217v45l120 133q11 13 11 29q0 13 -7 20.5t-20 7.5t-20.5 -7t-7.5 -20v-3h-75v3q0 45 26.5 72t76.5 27t78 -26t28 -68q0 -34 -30 -68l-62 -71h99zM526 750h76l-491 -750h-76zM407 19.5q-31 25.5 -31 62.5q0 9 2 17h81v-2q0 -13 8 -21t22 -8q16 0 24 9.5
t8 24.5q0 36 -31 36q-18 0 -27 -14h-81l20 177h182v-77h-115l-9 -58q21 27 55 27q40 0 64 -26t24 -66q0 -49 -31.5 -78t-82.5 -29t-82 25.5z" />
    <glyph glyph-name="uni2157" unicode="&#x2157;" horiz-adv-x="625" 
d="M241 579q10 -19 10 -40q0 -41 -31.5 -68.5t-83.5 -27.5q-50 0 -81 26t-31 65q0 9 1 14h82v-6q0 -12 8.5 -18.5t21.5 -6.5t21.5 7t8.5 21t-8.5 22.5t-22.5 8.5h-9v63h9q12 0 19.5 7t7.5 19t-7 19t-19 7t-19 -7t-7 -19v-6h-75v14q0 37 27 60t73 23t74 -24.5t28 -63.5
q0 -34 -25 -57q18 -13 28 -32zM530 750h76l-491 -750h-76zM411 19.5q-31 25.5 -31 62.5q0 9 2 17h81v-2q0 -13 8 -21t22 -8q16 0 24 9.5t8 24.5q0 36 -31 36q-18 0 -27 -14h-81l20 177h182v-77h-115l-9 -58q21 27 55 27q40 0 64 -26t24 -66q0 -49 -31.5 -78t-82.5 -29
t-82 25.5z" />
    <glyph glyph-name="uni2158" unicode="&#x2158;" horiz-adv-x="644" 
d="M271 585v-63h-33v-73h-87v73h-131v59l131 169h87v-165h33zM92 585h59v75zM549 750h76l-491 -750h-76zM430 19.5q-31 25.5 -31 62.5q0 9 2 17h81v-2q0 -13 8 -21t22 -8q16 0 24 9.5t8 24.5q0 36 -31 36q-18 0 -27 -14h-81l20 177h182v-77h-115l-9 -58q21 27 55 27
q40 0 64 -26t24 -66q0 -49 -31.5 -78t-82.5 -29t-82 25.5z" />
    <glyph glyph-name="uni2159" unicode="&#x2159;" horiz-adv-x="578" 
d="M138 750h72v-301h-83v214l-73 -38v79zM500 750h76l-491 -750h-76zM537.5 166q25.5 -29 25.5 -66q0 -46 -33 -76t-85 -30q-51 0 -84.5 28.5t-33.5 73.5q0 34 17 61l89 144h102l-65 -102q42 -4 67.5 -33zM471.5 76q10.5 9 10.5 23q0 15 -10.5 25t-26.5 10t-26 -10t-10 -25
q0 -14 10 -23t26 -9t26.5 9z" />
    <glyph glyph-name="oneeighth" unicode="&#x215b;" horiz-adv-x="592" 
d="M138 750h72v-301h-83v214l-73 -38v79zM500 750h76l-491 -750h-76zM561.5 128.5q10.5 -18.5 10.5 -39.5q0 -41 -31.5 -68t-82.5 -27t-82 26.5t-31 68.5q0 21 10.5 39.5t28.5 31.5q-27 23 -27 58q0 39 27.5 64t73.5 25q45 0 73 -25t28 -64q0 -34 -27 -58q19 -13 29.5 -31.5
zM436.5 236q-8.5 -8 -8.5 -20q0 -14 8.5 -22t21.5 -8q14 0 22 8t8 22q0 12 -8.5 20t-21.5 8t-21.5 -8zM484 73q11 9 11 22q0 15 -10 24t-27 9q-15 0 -25.5 -9t-10.5 -24q0 -13 10.5 -22t25.5 -9t26 9z" />
    <glyph glyph-name="arrowleft" unicode="&#x2190;" horiz-adv-x="715" 
d="M655 303v-93h-433l155 -197h-126l-190 242v4l190 240h126l-154 -196h432z" />
    <glyph glyph-name="arrowup" unicode="&#x2191;" horiz-adv-x="553" 
d="M519 337v-127l-196 154v-364h-93v364l-196 -154v127l240 190h4z" />
    <glyph glyph-name="arrowright" unicode="&#x2192;" horiz-adv-x="715" 
d="M465 499l190 -240v-4l-190 -242h-127l155 197h-432v93h431l-154 196h127z" />
    <glyph glyph-name="arrowdown" unicode="&#x2193;" horiz-adv-x="553" 
d="M323 148l196 154v-127l-241 -190h-4l-240 190v127l196 -154v365h93v-365z" />
    <glyph glyph-name="arrowboth" unicode="&#x2194;" horiz-adv-x="929" 
d="M678 499l190 -240v-4l-190 -242h-126l155 197h-485l155 -197h-126l-190 242v4l190 240h126l-154 -196h483l-154 196h126z" />
    <glyph glyph-name="arrowupdn" unicode="&#x2195;" horiz-adv-x="556" 
d="M515 308l-186 84v-273l186 85v-112l-236 -107h-4l-234 108v111l186 -85v273l-186 -84v112l234 107h4l236 -107v-112z" />
    <glyph glyph-name="uni2196" unicode="&#x2196;" horiz-adv-x="621" 
d="M611 0h-132l-350 350v-166h-99v325l4 4h331v-92h-174z" />
    <glyph glyph-name="uni2197" unicode="&#x2197;" horiz-adv-x="621" 
d="M588 513l3 -4v-325h-98v166l-351 -350h-132l421 421h-175v92h332z" />
    <glyph glyph-name="uni2198" unicode="&#x2198;" horiz-adv-x="621" 
d="M493 329h98v-325l-3 -4h-332v92h175l-421 421h132l351 -350v166z" />
    <glyph glyph-name="uni2199" unicode="&#x2199;" horiz-adv-x="621" 
d="M611 513l-420 -421h174v-92h-331l-4 4v325h99v-166l350 350h132z" />
    <glyph glyph-name="minus" unicode="&#x2212;" horiz-adv-x="610" 
d="M104 405h402v-88h-402v88z" />
    <glyph glyph-name="infinity" unicode="&#x221e;" horiz-adv-x="784" 
d="M690 500q40 -21 62.5 -58t22.5 -83q0 -47 -22.5 -83.5t-62 -57.5t-90.5 -21q-43 0 -83 20.5t-72 50.5l-41 39l-41 -39q-32 -30 -72 -50.5t-82 -20.5q-78 0 -126.5 45.5t-48.5 116.5q0 46 22.5 83t63 58t90.5 21q88 0 153 -69l41 -43l41 43q65 69 154 69q51 0 91 -21z
M341 359l-29 32q-18 20 -43.5 35t-53.5 15q-39 0 -64 -24t-25 -58q0 -35 24.5 -57t63.5 -22q27 0 53 14.5t45 34.5zM658.5 302q24.5 22 24.5 57t-25 58.5t-65 23.5q-28 0 -53 -15t-44 -35l-29 -32l29 -30q49 -49 98 -49q40 0 64.5 22z" />
    <glyph glyph-name="approxequal" unicode="&#x2248;" horiz-adv-x="496" 
d="M416.5 412q-29.5 -35 -86.5 -35q-27 0 -48 10.5t-48 29.5q-21 15 -32 21t-24 6q-38 0 -38 -53h-90q0 72 28.5 109t88.5 37q26 0 46.5 -10t45.5 -29q20 -15 33 -21.5t27 -6.5q38 0 38 53h89q0 -76 -29.5 -111zM416.5 229q-29.5 -35 -86.5 -35q-27 0 -47.5 10.5t-48.5 30.5
q-21 15 -32 21t-24 6q-38 0 -38 -54h-90q0 73 28.5 110t88.5 37q26 0 46.5 -10t45.5 -29q20 -15 33 -21.5t27 -6.5q38 0 38 53h89q0 -77 -29.5 -112z" />
    <glyph glyph-name="notequal" unicode="&#x2260;" horiz-adv-x="610" 
d="M506 407h-148l-20 -95h168v-80h-184l-26 -123h-85l26 123h-133v80h150l20 95h-170v80h186l26 122h84l-25 -122h131v-80z" />
    <glyph glyph-name="lessequal" unicode="&#x2264;" horiz-adv-x="609" 
d="M523 633v-88l-322 -113l322 -114v-92l-437 162v85zM86 243v86l437 -159v-89z" />
    <glyph glyph-name="greaterequal" unicode="&#x2265;" horiz-adv-x="609" 
d="M86 633l437 -160v-85l-437 -162v92l322 114l-322 113v88zM86 81v89l437 159v-86z" />
    <glyph glyph-name="uni22A0" unicode="&#x22a0;" horiz-adv-x="861" 
d="M59 0v750h743v-750h-743zM155 91h551v568h-551v-568zM532 206l-106 107l-107 -108l-56 58l106 106l-106 107l56 57l107 -107l106 106l57 -56l-106 -107l106 -106z" />
    <glyph glyph-name="house" unicode="&#x2302;" horiz-adv-x="831" 
d="M100 267l315 260l316 -260v-267h-631v267z" />
    <glyph glyph-name="uni24FF" unicode="&#x24ff;" horiz-adv-x="891" 
d="M250 37q-89 52 -141 141t-52 196q0 105 52 195t141 142.5t195 52.5q107 0 196 -52.5t141 -142t52 -195.5q0 -107 -52 -196t-141 -141t-196 -52q-106 0 -195 52zM526 249.5q30 31.5 30 82.5v85q0 50 -30 82t-81 32t-81 -32t-30 -82v-85q0 -51 30 -82.5t81 -31.5t81 31.5z
M423.5 301.5q-7.5 9.5 -7.5 26.5v93q0 16 7.5 26t21.5 10t21.5 -10t7.5 -26v-93q0 -17 -7.5 -26.5t-21.5 -9.5t-21.5 9.5z" />
    <glyph glyph-name="filledbox" unicode="&#x25a0;" horiz-adv-x="861" 
d="M59 750h743v-750h-743v750z" />
    <glyph glyph-name="uni25A1" unicode="&#x25a1;" horiz-adv-x="861" 
d="M59 0v750h743v-750h-743zM155 91h551v568h-551v-568z" />
    <glyph glyph-name="uni25AA" unicode="&#x25aa;" horiz-adv-x="626" 
d="M59 513h508v-513h-508v513z" />
    <glyph glyph-name="uni25AB" unicode="&#x25ab;" horiz-adv-x="626" 
d="M59 513h508v-513h-508v513zM476 86v341h-325v-341h325z" />
    <glyph glyph-name="triagup" unicode="&#x25b2;" horiz-adv-x="596" 
d="M293 523h10l240 -523h-490z" />
    <glyph glyph-name="triagrt" unicode="&#x25ba;" horiz-adv-x="556" 
d="M86 523h8l413 -257v-10l-413 -267h-8v534z" />
    <glyph glyph-name="triagdn" unicode="&#x25bc;" horiz-adv-x="596" 
d="M543 513l-240 -524h-10l-240 524h490z" />
    <glyph glyph-name="triaglf" unicode="&#x25c4;" horiz-adv-x="556" 
d="M462 -11l-413 267v10l413 257h8v-534h-8z" />
    <glyph glyph-name="circle" unicode="&#x25cb;" horiz-adv-x="891" 
d="M250 37q-89 52 -141 141t-52 196q0 105 52 195t141 142.5t195 52.5q107 0 196 -52.5t141 -142t52 -195.5q0 -107 -52 -196t-141 -141t-196 -52q-106 0 -195 52zM587.5 121.5q64.5 38.5 102 105.5t37.5 147t-37.5 147t-102 106t-142.5 39t-142 -39t-101.5 -106t-37.5 -147
t37 -147t101.5 -105.5t142.5 -38.5t142.5 38.5z" />
    </font>
</defs>
</svg>
