<svg width="89" height="22" viewBox="0 0 89 22" fill="none" xmlns="http://www.w3.org/2000/svg">
<g clip-path="url(#clip0_45324_83741)">
<path d="M58.0173 8.73134C58.0173 10.9439 56.4265 12.3519 53.8848 12.3519H49.6426V0.630859H54.1591C56.2985 0.630859 57.6151 1.76456 57.6151 3.57483C57.6151 4.63539 57.0482 5.45823 56.1156 5.89708C57.3225 6.35422 58.0173 7.35993 58.0173 8.73134ZM53.958 2.3497H51.6357V5.23881H53.9397C55.0002 5.23881 55.6585 4.67196 55.6585 3.79425C55.6585 2.86169 55.0551 2.3497 53.958 2.3497ZM56.0242 8.73134C56.0242 7.59764 55.2197 6.95764 53.7934 6.95764H51.6357V10.6513H53.7751C55.1648 10.633 56.0242 9.90161 56.0242 8.73134Z" fill="#03BB86"/>
<path d="M66.4486 6.55532V12.3518H64.5286V11.3644C63.9618 12.1507 63.0475 12.5895 61.8589 12.5895C60.195 12.5895 59.043 11.5655 59.043 10.0661C59.043 8.71301 59.8841 7.76216 61.2921 7.59759L64.5286 7.19531V6.79303C64.5286 6.31761 64.2726 6.06161 63.8338 6.06161H59.7744V4.34277H63.9069C65.5343 4.34277 66.4486 5.12905 66.4486 6.55532ZM64.5286 9.71871V8.69472L62.0601 9.04215C61.3652 9.13358 60.9995 9.49929 60.9995 10.0661C60.9995 10.6878 61.4749 11.0536 62.3344 11.0536C63.2852 11.0536 64.1995 10.505 64.5286 9.71871Z" fill="#03BB86"/>
<path d="M76.3761 7.23207V12.352H74.4196V7.70749C74.4196 6.66522 73.9258 5.89723 72.7739 5.89723C71.9144 5.89723 70.9636 6.46408 70.5796 7.26864V12.352H68.623V4.34296H70.5796V5.34866C71.2379 4.56239 72.207 4.12354 73.359 4.12354C75.2424 4.12354 76.3761 5.36695 76.3761 7.23207Z" fill="#03BB86"/>
<path d="M81.2764 8.95076H80.3804V12.3519H78.4238V0.630859H80.3804V7.37821H81.2581L83.4706 4.34282H85.7197L82.8855 8.07306L85.866 12.3519H83.5621L81.2764 8.95076Z" fill="#03BB86"/>
<path d="M9.79763 21.4403C11.9005 21.4403 13.6193 20.782 14.7347 19.6849C15.5758 18.8437 16.0696 17.71 16.0696 16.4118C16.0696 15.2232 15.6307 14.1627 14.8261 13.3398C14.0216 12.5352 12.8513 11.9318 11.3885 11.6575L8.97478 11.1821C7.96908 10.9993 7.42051 10.4873 7.42051 9.8107C7.42051 8.89643 8.29821 8.27472 9.7062 8.27472C10.5839 8.27472 11.3336 8.549 11.8273 9.061C12.1382 9.40842 12.3576 9.84727 12.4125 10.341L15.8867 9.5547C15.7953 8.549 15.3198 7.6713 14.6067 6.95816C13.473 5.82446 11.7359 5.11133 9.66963 5.11133C7.76793 5.11133 6.1771 5.73303 5.07997 6.73874C4.1474 7.61644 3.61713 8.805 3.61713 10.1216C3.61713 11.2735 4.00112 12.2427 4.75083 12.9924C5.50053 13.7421 6.59766 14.3089 8.02393 14.6564L10.401 15.2232C11.5896 15.4975 12.1199 15.9363 12.1199 16.7226C12.1199 17.6918 11.2422 18.2586 9.81591 18.2586C8.79192 18.2586 7.93251 17.9112 7.40223 17.3443C7.01823 16.9603 6.81709 16.4666 6.78052 15.8998L3.21484 16.6861C3.30627 17.7466 3.79998 18.6792 4.54969 19.4289C5.73824 20.6906 7.63994 21.4403 9.79763 21.4403Z" fill="#4F008C"/>
<path d="M38.4338 21.4403C40.7377 21.4403 42.5297 20.5992 43.7548 19.4106C44.724 18.478 45.3091 17.3809 45.6382 16.2472L41.9811 15.0221C41.8166 15.5889 41.5057 16.1741 41.012 16.6495C40.4269 17.2163 39.604 17.6186 38.452 17.6186C37.3915 17.6186 36.3858 17.2163 35.6726 16.4849C34.9595 15.7352 34.5207 14.6381 34.5207 13.2667C34.5207 11.8952 34.9595 10.7981 35.6726 10.0484C36.3858 9.33528 37.3549 8.95128 38.4155 8.95128C39.5492 8.95128 40.3172 9.33528 40.884 9.88384C41.3594 10.3593 41.6337 10.9444 41.8166 11.5478L45.5285 10.3044C45.2542 9.20728 44.6508 8.11015 43.7731 7.21416C42.5297 5.98903 40.7012 5.11133 38.3058 5.11133C36.0932 5.11133 34.0818 5.95246 32.6555 7.39702C31.211 8.85986 30.3516 10.8895 30.3516 13.2667C30.3516 15.6438 31.2658 17.6735 32.7287 19.1363C34.1367 20.5992 36.1664 21.4403 38.4338 21.4403Z" fill="#4F008C"/>
<path d="M21.501 20.9651V8.93325H17.3867V5.29443H29.7112V8.93325H25.5786V20.9651H21.501Z" fill="#4F008C"/>
</g>
<defs>
<clipPath id="clip0_45324_83741">
<rect width="82.8333" height="21" fill="white" transform="translate(3.16797 0.5)"/>
</clipPath>
</defs>
</svg>
